<svg width="100" height="100" viewBox="0 0 100 100" fill="none" xmlns="http://www.w3.org/2000/svg">
<g clip-path="url(#clip0_281_6487)">
<path d="M60.0046 -0.0535984C60.1703 -0.0546212 60.336 -0.055644 60.5067 -0.0566978C61.0641 -0.0596366 61.6214 -0.0597654 62.1787 -0.0598957C62.5774 -0.0613836 62.9762 -0.0630295 63.3749 -0.064822C64.4596 -0.0691156 65.5443 -0.0708276 66.6291 -0.0718193C67.3063 -0.07253 67.9836 -0.0737483 68.6609 -0.0751399C71.0225 -0.0799265 73.3842 -0.0824738 75.7459 -0.0831653C77.9491 -0.0838756 80.1523 -0.0897159 82.3556 -0.0978928C84.2457 -0.104662 86.1358 -0.107686 88.0259 -0.107823C89.1555 -0.107978 90.285 -0.109698 91.4145 -0.115244C92.4767 -0.120343 93.5389 -0.120796 94.6011 -0.117655C94.9913 -0.1173 95.3814 -0.118618 95.7715 -0.121721C96.3037 -0.125697 96.8355 -0.123669 97.3677 -0.120117C97.5225 -0.122695 97.6773 -0.125273 97.8368 -0.12793C98.5763 -0.116638 98.9895 -0.0228976 99.6071 0.392822C100.11 1.14055 100.139 1.75103 100.129 2.62309C100.131 2.78844 100.133 2.95379 100.136 3.12415C100.141 3.67805 100.14 4.2317 100.139 4.78563C100.141 5.18285 100.144 5.58006 100.148 5.97728C100.156 7.0564 100.157 8.13543 100.157 9.21458C100.157 10.1159 100.16 11.0171 100.163 11.9184C100.17 14.0455 100.172 16.1726 100.17 18.2998C100.169 20.4924 100.177 22.6849 100.191 24.8775C100.202 26.761 100.206 28.6445 100.205 30.528C100.205 31.6525 100.207 32.7768 100.216 33.9013C100.224 34.9596 100.223 36.0176 100.217 37.0759C100.216 37.4634 100.218 37.851 100.223 38.2384C100.229 38.7697 100.225 39.2997 100.218 39.8309C100.225 40.0585 100.225 40.0585 100.231 40.2907C100.189 41.7824 99.259 42.556 98.2422 43.5546C97.9735 43.8296 97.7049 44.1045 97.4364 44.3796C96.9303 44.8953 96.4181 45.4046 95.9067 45.9149C95.6743 46.1475 95.442 46.3801 95.2097 46.6128C94.5762 47.2472 93.942 47.881 93.3077 48.5146C92.622 49.1999 91.9368 49.8858 91.2516 50.5715C89.9114 51.9126 88.5707 53.2531 87.2298 54.5935C86.1404 55.6824 85.0513 56.7715 83.9622 57.8607C83.8071 58.0159 83.6519 58.1711 83.492 58.331C83.1768 58.6463 82.8616 58.9616 82.5464 59.2769C79.5941 62.2297 76.6412 65.182 73.6881 68.134C71.153 70.6682 68.6185 73.2029 66.0843 75.738C63.1405 78.6829 60.1963 81.6274 57.2517 84.5714C56.938 84.8851 56.6243 85.1987 56.3106 85.5123C56.0791 85.7438 56.0791 85.7438 55.8429 85.9799C54.754 87.0686 53.6654 88.1576 52.5768 89.2466C51.2517 90.5723 49.9263 91.8975 48.6004 93.2224C47.9237 93.8986 47.2471 94.575 46.5709 95.2518C45.9527 95.8707 45.3339 96.4891 44.7149 97.1071C44.4904 97.3314 44.266 97.5558 44.0419 97.7804C43.7384 98.0845 43.4343 98.388 43.1301 98.6913C42.961 98.8604 42.7919 99.0294 42.6177 99.2036C41.997 99.789 41.5564 100.073 40.7104 100.134C39.8499 100.094 39.4559 99.9289 38.833 99.3386C38.6625 99.1775 38.4919 99.0164 38.3162 98.8505C38.1088 98.6481 37.9019 98.4453 37.6953 98.2421C37.5125 98.0631 37.5125 98.0631 37.3259 97.8804C36.2287 96.8031 35.142 95.7154 34.0553 94.6274C33.6882 94.2605 33.321 93.8937 32.9538 93.5269C32.0639 92.6379 31.1746 91.7484 30.2854 90.8587C29.563 90.1358 28.8404 89.4131 28.1176 88.6906C28.0145 88.5875 27.9113 88.4844 27.805 88.3781C27.5954 88.1686 27.3859 87.959 27.1763 87.7495C25.2159 85.7898 23.2562 83.8294 21.2967 81.8688C19.6153 80.1866 17.9334 78.5048 16.2511 76.8234C14.295 74.8684 12.3393 72.9131 10.3841 70.9573C10.1758 70.7489 9.96751 70.5405 9.7592 70.3322C9.65672 70.2297 9.55424 70.1271 9.44865 70.0215C8.72624 69.299 8.00361 68.5766 7.2809 67.8543C6.4013 66.9753 5.52205 66.0959 4.64324 65.216C4.19486 64.7672 3.74627 64.3185 3.29736 63.8701C2.81135 63.3846 2.32594 62.8985 1.84068 62.4123C1.698 62.2701 1.55532 62.1278 1.40831 61.9813C1.27879 61.8512 1.14927 61.7212 1.01583 61.5872C0.903713 61.4751 0.791596 61.3629 0.676083 61.2474C-0.0106454 60.5018 -0.151277 59.9413 -0.116474 58.9565C0.0273124 58.2675 0.271841 57.9969 0.754958 57.4897C0.915285 57.3199 1.07562 57.1501 1.2408 56.9752C1.41141 56.8003 1.58202 56.6254 1.75781 56.4453C2.00296 56.1922 2.00296 56.1922 2.25307 55.9339C2.79034 55.3847 3.3321 54.8401 3.87511 54.2965C4.08132 54.0894 4.2875 53.8822 4.49364 53.675C5.04757 53.1186 5.60212 52.5627 6.15689 52.0071C6.50415 51.6592 6.8513 51.3113 7.19842 50.9633C8.2867 49.8724 9.37536 48.7818 10.4646 47.6918C11.7184 46.4372 12.9708 45.1812 14.2222 43.9242C15.1931 42.9491 16.165 41.9752 17.1379 41.0021C17.7176 40.4222 18.2968 39.8418 18.8749 39.2602C19.4176 38.7144 19.9616 38.1699 20.5068 37.6265C20.7061 37.4272 20.905 37.2275 21.1034 37.0272C21.3748 36.7533 21.6482 36.4814 21.9217 36.2096C22.0739 36.0572 22.226 35.9047 22.3828 35.7476C23.1267 35.119 23.7376 34.7656 24.7192 34.7656C25.5396 35.0042 25.8604 35.2518 26.3672 35.9374C26.62 36.7406 26.639 37.1334 26.2943 37.9051C25.6421 38.9843 24.7006 39.8291 23.81 40.7096C23.6077 40.9117 23.4056 41.114 23.2035 41.3163C22.6573 41.8627 22.1093 42.4073 21.5609 42.9516C20.9872 43.5216 20.4151 44.0934 19.8428 44.6649C18.7601 45.7458 17.6759 46.8252 16.5912 47.9041C15.3558 49.1329 14.1221 50.3634 12.8885 51.5941C10.352 54.1244 7.81341 56.6527 5.27343 59.1796C5.5319 59.752 5.8115 60.157 6.25507 60.6C6.43789 60.784 6.43789 60.784 6.62441 60.9717C6.75854 61.1046 6.89267 61.2377 7.03087 61.3747C7.17317 61.5173 7.31547 61.6599 7.46208 61.8069C7.94039 62.2859 8.42008 62.7634 8.89978 63.241C9.24243 63.5835 9.585 63.9261 9.92749 64.2688C10.6657 65.0071 11.4045 65.7448 12.1438 66.4819C13.2128 67.5477 14.2806 68.6146 15.3482 69.6817C17.0804 71.413 18.8134 73.1434 20.547 74.8733C22.231 76.5537 23.9146 78.2346 25.5977 79.916C25.7533 80.0714 25.7533 80.0714 25.912 80.23C26.4325 80.7499 26.9529 81.2699 27.4733 81.7898C31.7909 86.1033 36.1098 90.4154 40.4297 94.7265C41.1111 94.4279 41.6048 94.0253 42.1606 93.5336C42.3525 93.3644 42.5445 93.1951 42.7422 93.0208C42.9548 92.8316 43.1673 92.6425 43.3797 92.4533C43.6058 92.2528 43.8319 92.0524 44.058 91.852C44.6805 91.2995 45.3016 90.7456 45.9222 90.191C46.3195 89.8361 46.717 89.4814 47.1146 89.1267C52.21 84.577 57.2075 79.9251 62.167 75.2278C62.9854 74.4528 63.8045 73.6785 64.6242 72.9048C64.7872 72.7508 64.9503 72.5969 65.1183 72.4383C67.3974 70.2896 69.7133 68.1893 72.067 66.1226C76.1326 62.5527 80.1066 58.9032 83.9439 55.088C84.0936 54.9396 84.2432 54.7912 84.3974 54.6382C93.4119 45.6703 97.7454 37.7269 97.8282 24.8419C97.8095 17.8284 97.1602 10.8336 96.0937 3.9062C82.9441 2.6128 82.9441 2.6128 69.7578 2.60767C69.5622 2.61911 69.3666 2.63055 69.165 2.64233C59.8403 3.22272 54.0215 7.38992 47.9431 14.2303C47.7129 14.4915 47.483 14.7529 47.2534 15.0146C47.139 15.1446 47.0246 15.2747 46.9068 15.4086C44.8675 17.7332 42.8818 20.1015 41.0318 22.5803C40.9048 22.7503 40.9048 22.7503 40.7752 22.9239C40.3828 23.4517 39.9954 23.9821 39.6133 24.5175C38.3668 26.2354 38.3668 26.2354 37.3047 26.5624C36.4577 26.5624 36.0589 26.4568 35.376 25.9521C34.8659 25.2619 34.7508 24.8814 34.7656 24.0234C35.399 22.5768 36.566 21.5575 37.6702 20.4633C37.8888 20.2445 38.1074 20.0255 38.3258 19.8065C38.9168 19.2144 39.5096 18.6242 40.1029 18.0344C40.724 17.4162 41.3435 16.7964 41.9632 16.1769C43.0033 15.1375 44.0446 14.0992 45.0865 13.0616C46.4243 11.7295 47.7602 10.3956 49.0956 9.06105C50.2441 7.91333 51.3934 6.76644 52.5429 5.61968C52.9123 5.25106 53.2816 4.88233 53.6509 4.51359C54.2306 3.93486 54.8108 3.35665 55.3914 2.77884C55.6046 2.56658 55.8175 2.35415 56.0303 2.14155C56.3204 1.85179 56.6111 1.56264 56.902 1.27364C57.146 1.03055 57.146 1.03055 57.3948 0.78255C58.2524 -0.0223234 58.8805 -0.0570039 60.0046 -0.0535984Z" fill="#EB0029"/>
<path d="M28.9062 47.0698C30.3286 48.1207 31.249 49.2141 31.6406 50.9761C31.6406 51.2339 31.6406 51.4917 31.6406 51.7573C31.9789 51.7815 31.9789 51.7815 32.3242 51.8062C34.0363 52.0322 35.2728 52.954 36.3281 54.2964C37.2695 55.7958 37.2929 57.4568 37.1093 59.1792C36.7712 60.5519 35.9298 61.5089 34.9609 62.4995C34.8605 62.6026 34.7601 62.7057 34.6567 62.8118C32.3309 65.1926 32.3309 65.1926 31.3232 65.3315C30.6208 65.3166 30.3017 65.1687 29.7873 64.6959C29.6515 64.571 29.5156 64.4461 29.3756 64.3175C28.3893 63.3703 27.4193 62.4077 26.4533 61.4398C26.2196 61.2062 25.9858 60.9726 25.7521 60.7391C25.2654 60.2527 24.779 59.7659 24.2929 59.2789C23.6692 58.6541 23.0447 58.0302 22.4198 57.4065C21.9384 56.9258 21.4575 56.4447 20.9767 55.9634C20.7465 55.733 20.516 55.5027 20.2854 55.2726C19.9648 54.9524 19.6447 54.6316 19.3249 54.3106C19.1426 54.1283 18.9604 53.9459 18.7727 53.758C18.1803 53.13 18.0567 52.669 18.0755 51.7955C18.255 50.9257 18.9173 50.4067 19.5312 49.8042C19.7154 49.6097 19.8989 49.4146 20.082 49.219C22.3993 46.7777 25.6415 44.9248 28.9062 47.0698ZM23.4374 51.7573C23.3525 52.56 23.3525 52.56 23.9074 53.0848C24.1069 53.2791 24.3084 53.4713 24.5117 53.6616C24.6141 53.7606 24.7166 53.8595 24.8222 53.9615C25.075 54.2051 25.3302 54.4463 25.5859 54.687C26.5062 54.2788 27.0844 53.6431 27.539 52.7339C27.623 51.9776 27.6009 51.6548 27.1728 51.0127C26.6644 50.4894 26.4789 50.408 25.7568 50.2925C24.7226 50.4259 24.0775 50.9394 23.4374 51.7573ZM29.1015 57.2261C28.9726 57.4194 28.8437 57.6128 28.7109 57.812C29.4843 58.5855 30.2578 59.3589 31.0546 60.1558C31.9509 59.7077 32.4775 59.2447 33.0078 58.398C33.1552 57.5429 33.1159 57.1966 32.6415 56.4692C32.1741 56.0018 31.9671 55.8839 31.3232 55.7612C30.3337 55.9078 29.7762 56.5164 29.1015 57.2261Z" fill="#EB0029"/>
<path d="M51.7578 57.2268C53.1963 58.221 53.9419 59.2867 54.4922 60.9377C54.5059 61.4402 54.5105 61.937 54.5044 62.4392C54.5035 62.5762 54.5026 62.7133 54.5017 62.8546C54.4994 63.1922 54.4959 63.5298 54.4922 63.8674C54.6705 63.9284 54.8488 63.9894 55.0325 64.0522C55.6975 64.2803 56.3615 64.5109 57.0254 64.7424C57.3121 64.8419 57.5991 64.9408 57.8863 65.039C58.3006 65.1806 58.7139 65.3249 59.127 65.4696C59.2544 65.5125 59.3818 65.5555 59.5131 65.5997C60.4131 65.9189 61.275 66.3002 61.7187 67.1877C61.7924 68.1637 61.7369 68.7484 61.1328 69.5314C60.3327 70.0648 59.7127 70.0528 58.789 69.9221C57.6725 69.6101 56.5845 69.2255 55.4931 68.8356C55.0517 68.6791 54.61 68.5234 54.1674 68.3699C53.8936 68.2747 53.6203 68.1779 53.3477 68.0791C52.5634 67.7997 52.5634 67.7997 51.7578 67.9689C51.8731 68.0811 51.9883 68.1933 52.1071 68.3089C52.5374 68.7292 52.9664 69.1509 53.3945 69.5735C53.67 69.8446 53.947 70.1141 54.224 70.3836C54.3983 70.5561 54.5727 70.7286 54.7523 70.9063C54.9129 71.0638 55.0735 71.2213 55.2389 71.3836C55.8872 72.1333 56.25 72.7433 56.25 73.7429C56.0113 74.5632 55.7637 74.8841 55.0781 75.3908C54.2245 75.6596 53.8621 75.6608 53.0551 75.2623C52.3487 74.8363 51.7677 74.3105 51.1907 73.7246C51.0844 73.619 50.9782 73.5135 50.8687 73.4047C50.5215 73.0591 50.1764 72.7114 49.8314 72.3635C49.5891 72.1211 49.3468 71.8789 49.1044 71.6368C48.5983 71.1307 48.0933 70.6237 47.589 70.1159C46.9429 69.4653 46.2947 68.817 45.6457 68.1693C45.1458 67.6701 44.6469 67.1698 44.1483 66.6693C43.9096 66.4298 43.6706 66.1906 43.4313 65.9517C43.0975 65.618 42.7651 65.283 42.4329 64.9477C42.3342 64.8495 42.2355 64.7512 42.1338 64.65C41.544 64.0512 41.0863 63.5404 40.955 62.6961C41.0227 61.1399 41.9882 60.3394 43.0664 59.3142C43.2371 59.1423 43.4078 58.9705 43.5837 58.7935C45.9238 56.5071 48.7251 55.6529 51.7578 57.2268ZM47.2656 61.133C46.8538 61.5753 46.4751 62.0302 46.0937 62.5002C46.8672 63.2736 47.6406 64.0471 48.4375 64.8439C49.3337 64.3958 49.8603 63.9329 50.3906 63.0861C50.5324 62.2639 50.4826 61.8883 50.0854 61.1574C49.146 60.3384 48.2094 60.3586 47.2656 61.133Z" fill="#EB0029"/>
<path d="M73.0469 31.4457C73.7638 31.9386 73.9763 32.2602 74.2188 33.0936C74.2188 34.269 73.6861 34.9422 72.892 35.7593C72.6074 36.0401 72.3212 36.3193 72.0337 36.5971C71.8873 36.7408 71.7409 36.8846 71.59 37.0327C71.2306 37.3853 70.8699 37.7364 70.5078 38.0863C70.839 38.7959 71.2379 39.2475 71.8018 39.7953C71.9614 39.9514 72.121 40.1075 72.2855 40.2683C72.4078 40.3861 72.5302 40.504 72.6563 40.6254C72.7839 40.5155 72.7839 40.5155 72.9141 40.4034C73.1577 40.1941 73.4021 39.9859 73.6473 39.7785C73.877 39.5801 74.1026 39.3766 74.3202 39.1651C74.9673 38.5555 75.5045 38.3011 76.3748 38.2427C77.0543 38.3117 77.4344 38.6148 77.9297 39.0629C78.2962 39.6525 78.3221 39.9879 78.2974 40.6834C78.0892 41.5566 77.683 41.9846 77.0386 42.5663C76.937 42.6626 76.8354 42.7589 76.7307 42.8581C76.4819 43.0932 76.2296 43.3245 75.9766 43.5551C76.2766 44.2739 76.7151 44.7245 77.2705 45.264C77.4301 45.4201 77.5898 45.5762 77.7542 45.7371C77.8766 45.8549 77.9989 45.9727 78.125 46.0941C78.7574 45.8193 79.1471 45.4954 79.6112 44.9886C79.7426 44.8498 79.8741 44.7109 80.0095 44.5679C80.2821 44.2763 80.5527 43.9828 80.8212 43.6874C81.9522 42.5038 81.9522 42.5038 82.872 42.3695C83.6823 42.3849 84.1008 42.51 84.7656 42.9691C85.219 43.5255 85.2754 44.1904 85.2529 44.9003C85.1344 45.4063 84.9503 45.6256 84.5985 46.0064C84.4743 46.1417 84.3501 46.277 84.2222 46.4164C84.0792 46.5678 83.9363 46.7193 83.7891 46.8754C83.548 47.1354 83.548 47.1354 83.3022 47.4008C82.855 47.8782 82.4034 48.3501 81.9467 48.8183C81.758 49.0132 81.571 49.2096 81.3855 49.4075C79.5268 51.3883 79.5268 51.3883 78.1379 51.4546C77.0756 51.2255 76.3485 50.4277 75.6102 49.6814C75.4998 49.5715 75.3895 49.4615 75.2759 49.3482C74.9134 48.9865 74.5523 48.6233 74.1913 48.2601C73.9392 48.0078 73.6871 47.7556 73.4349 47.5035C72.9077 46.9759 72.3811 46.4477 71.855 45.919C71.1797 45.2404 70.5032 44.5631 69.8261 43.8862C69.306 43.3661 68.7864 42.8454 68.2669 42.3245C68.0176 42.0745 67.768 41.8246 67.5184 41.5748C67.1705 41.2265 66.8233 40.8776 66.4762 40.5284C66.3726 40.4248 66.2689 40.3212 66.162 40.2145C65.5214 39.5681 65.2629 39.2695 65.1367 38.3549C65.1504 37.6444 65.3076 37.325 65.786 36.8053C65.9101 36.6703 66.0342 36.5352 66.162 36.396C66.9387 35.5864 67.7241 34.7865 68.5191 33.9949C68.8146 33.7004 69.1091 33.4049 69.4035 33.1093C69.5917 32.9211 69.78 32.7331 69.9684 32.5451C70.2223 32.2915 70.2223 32.2915 70.4813 32.0328C71.2515 31.3093 72.027 31.2924 73.0469 31.4457Z" fill="#EB0029"/>
<path d="M35.9375 35.1561C36.5747 35.5269 36.9897 35.7993 37.2452 36.5111C37.4125 37.4512 37.2465 37.8674 36.7188 38.6718C36.4807 38.9396 36.2333 39.1994 35.9779 39.4507C35.8388 39.5886 35.6997 39.7264 35.5564 39.8684C35.4123 40.0093 35.2681 40.1502 35.1196 40.2953C34.9 40.5123 34.9 40.5123 34.676 40.7336C34.3161 41.0889 33.9554 41.4432 33.5938 41.7968C33.925 42.5063 34.3238 42.958 34.8877 43.5058C35.0473 43.6619 35.2069 43.8179 35.3714 43.9788C35.4938 44.0966 35.6161 44.2144 35.7422 44.3358C36.4602 44.0428 36.8282 43.6242 37.3291 43.0419C37.9725 42.3836 38.3738 42.0555 39.3066 42.0165C39.9912 42.0857 40.244 42.1938 40.8325 42.5902C41.2883 43.2812 41.4063 43.7037 41.4063 44.5311C41.0286 45.7719 39.981 46.5943 39.0625 47.4608C39.7478 48.2781 40.4454 49.0616 41.2109 49.8046C41.8194 49.5357 42.2177 49.2295 42.675 48.7487C42.8003 48.6195 42.9255 48.4904 43.0546 48.3573C43.3144 48.0856 43.5738 47.8134 43.8328 47.5409C45.0424 46.2961 45.0424 46.2961 45.8984 46.0936C46.7979 46.0936 47.1561 46.1934 47.8394 46.7894C48.2501 47.3651 48.4114 47.904 48.3593 48.6246C47.9178 50.1285 46.0582 51.4329 44.9575 52.5288C44.662 52.8233 44.3675 53.1188 44.0731 53.4144C43.8848 53.6026 43.6965 53.7906 43.5081 53.9786C43.3389 54.1477 43.1696 54.3167 42.9952 54.4909C42.3782 55.0705 41.9054 55.1847 41.0506 55.1666C40.5363 55.0596 40.329 54.8943 39.9436 54.54C39.8078 54.4151 39.6719 54.2903 39.5319 54.1616C38.5456 53.2144 37.5756 52.2518 36.6097 51.2839C36.3759 51.0503 36.1422 50.8167 35.9084 50.5832C35.4217 50.0968 34.9353 49.61 34.4492 49.123C33.8255 48.4982 33.201 47.8743 32.5761 47.2506C32.0947 46.7699 31.6138 46.2888 31.133 45.8075C30.9028 45.5771 30.6723 45.3468 30.4418 45.1167C30.1211 44.7965 29.801 44.4757 29.4812 44.1548C29.299 43.9724 29.1167 43.79 28.929 43.6021C28.4069 43.0487 28.3293 42.8921 28.2715 42.1264C28.3595 40.8277 29.17 40.1091 30.0606 39.2302C30.1715 39.1194 30.2825 39.0085 30.3968 38.8943C30.6303 38.6614 30.8642 38.429 31.0986 38.197C31.4581 37.8412 31.8159 37.4837 32.1735 37.1261C32.4009 36.8996 32.6284 36.6733 32.856 36.447C32.9632 36.34 33.0704 36.233 33.1809 36.1228C34.0648 35.2499 34.6779 34.9552 35.9375 35.1561Z" fill="#EB0029"/>
<path d="M66.787 43.0158C67.348 43.4545 67.7087 43.8736 67.9688 44.5317C68.0124 45.3583 67.9084 46.0736 67.4683 46.7778C66.7995 47.1894 66.2045 47.3536 65.4297 47.2661C64.9561 47.0481 64.5266 46.7901 64.0824 46.5177C63.5069 46.1978 63.142 46.1436 62.5 46.2895C61.8129 46.7825 61.5644 47.0853 61.377 47.9131C61.7285 49.6412 63.747 51.0824 64.9751 52.3057C65.2989 52.6284 65.6216 52.9522 65.9443 53.2762C66.1504 53.4821 66.3565 53.688 66.5627 53.8938C66.6589 53.9904 66.7551 54.087 66.8543 54.1866C67.4691 54.7971 67.75 55.0584 68.628 55.1396C69.3292 55.1358 69.3292 55.1358 69.7998 54.7734C70.2366 54.1182 70.3257 53.7212 70.3125 52.9302C70.0903 52.515 69.8312 52.1413 69.5641 51.7537C69.1976 51.1335 69.2067 50.6984 69.336 50.0005C69.6903 49.4221 70.0863 48.9417 70.7032 48.6333C71.6827 48.5594 72.2869 48.5761 73.0469 49.2192C74.3445 50.8364 74.8291 52.4266 74.6094 54.4927C74.2258 56.1811 73.4571 57.5289 72.0093 58.5095C70.3764 59.4522 68.7168 59.6587 66.8511 59.2626C64.5898 58.4742 62.8054 56.2216 61.1298 54.5688C60.8953 54.3385 60.6595 54.1094 60.4226 53.8816C58.851 52.3694 57.3458 50.9144 57.1038 48.6257C57.1434 46.4857 57.5196 45.0964 58.9844 43.5147C61.1892 41.5382 64.307 41.4403 66.787 43.0158Z" fill="#EB0029"/>
<path d="M41.394 66.5164C43.1616 67.4718 44.2568 68.7747 44.8463 70.705C45.1773 72.4096 44.831 73.921 43.9941 75.4153C43.4448 76.1173 42.8332 76.7311 42.1875 77.3441C42.4752 78.0143 42.8496 78.4377 43.3716 78.9432C43.5272 79.0958 43.6828 79.2483 43.8431 79.4055C44.0057 79.5631 44.1684 79.7207 44.3359 79.8831C44.6583 80.1955 44.9798 80.5088 45.3003 80.8231C45.443 80.9613 45.5858 81.0995 45.7329 81.2419C46.4061 81.9863 46.5712 82.5845 46.5485 83.6002C46.4472 84.208 46.1356 84.5415 45.7031 84.9612C45.0847 85.2705 44.419 85.2823 43.75 85.1566C42.8863 84.6339 42.1716 84.0243 41.4652 83.3098C41.3609 83.2059 41.2566 83.1019 41.1491 82.9948C40.8076 82.6541 40.4676 82.312 40.1276 81.9698C39.8894 81.7314 39.6512 81.493 39.4129 81.2548C38.9152 80.7568 38.4181 80.2582 37.9216 79.759C37.2851 79.1192 36.6474 78.4807 36.0091 77.8426C35.5178 77.3512 35.027 76.8593 34.5364 76.3673C34.3013 76.1316 34.0661 75.896 33.8308 75.6606C33.5027 75.332 33.1751 75.0028 32.8478 74.6733C32.702 74.5277 32.702 74.5277 32.5532 74.3791C31.8873 73.7069 31.3887 73.1994 31.3354 72.2293C31.3736 71.0413 31.9927 70.5199 32.8125 69.7269C33.0136 69.5159 33.2139 69.3043 33.4137 69.0921C33.6321 68.864 33.8509 68.6361 34.0698 68.4085C34.1723 68.3001 34.2749 68.1916 34.3805 68.0799C36.1744 66.262 38.9639 65.5205 41.394 66.5164ZM36.7188 71.68C36.6338 72.4826 36.6338 72.4826 37.1887 73.0075C37.3882 73.2018 37.5897 73.394 37.793 73.5843C37.8954 73.6832 37.9979 73.7822 38.1035 73.8841C38.3563 74.1278 38.6115 74.369 38.8672 74.6097C39.9969 73.758 39.9969 73.758 40.8203 72.6566C40.8203 71.7329 40.8089 71.3104 40.21 70.6058C38.7413 69.8395 37.672 70.4618 36.7188 71.68Z" fill="#EB0029"/>
<path d="M45.0805 27.7831C45.7664 28.3318 45.8714 28.6978 45.9839 29.5653C45.8783 30.4399 45.5963 30.9074 44.9219 31.4452C44.4172 31.728 43.9094 31.9766 43.3807 32.2112C42.9384 32.3859 42.9384 32.3859 42.7734 32.8124C42.6392 33.9391 42.6392 33.9391 43.1762 34.8754C43.9129 35.2359 44.3605 35.2017 45.1172 34.9608C45.5039 34.7944 45.8904 34.6275 46.2768 34.4603C47.9958 33.7783 50.0016 33.593 51.7578 34.2894C53.4881 35.2323 54.4619 36.4325 55.0781 38.2811C55.2374 40.4597 55.0623 42.0287 53.7109 43.7865C52.6586 44.9134 51.1809 45.747 49.6216 45.8251C49.0594 45.7771 48.7651 45.6728 48.2422 45.4222C47.6994 44.7269 47.5616 44.0407 47.6562 43.1639C48.0417 42.2977 48.4885 41.9865 49.3286 41.577C50.1865 41.1628 50.1865 41.1628 50.7812 40.4296C50.8656 39.6559 50.9088 39.2355 50.4394 38.5985C49.9957 38.278 49.7513 38.1685 49.2187 38.0858C48.6856 38.2551 48.1841 38.4358 47.6684 38.6473C45.7285 39.4262 44.0248 39.8034 42.0036 39.0433C40.515 38.3908 39.4659 37.2628 38.6963 35.8519C38.1231 34.037 38.2278 32.3804 38.9892 30.6273C40.0396 28.7016 42.8872 26.8083 45.0805 27.7831Z" fill="#EB0029"/>
<path d="M89.8925 9.60702C91.2907 11.037 91.8411 12.5582 92.0654 14.502C91.8477 16.6786 91.1242 18.2931 89.4531 19.7266C87.7047 20.936 86.0689 21.0453 83.9843 20.8985C82.4688 20.577 81.2777 19.7176 80.2734 18.5548C79.1061 16.6743 78.7464 14.6903 79.2282 12.5138C79.8278 10.8687 81.0534 9.40637 82.6171 8.59383C85.2755 7.49545 87.589 8.05659 89.8925 9.60702ZM83.5205 13.1226C83.1086 13.8355 83.0476 14.4399 83.2031 15.2345C83.5174 15.8406 83.7897 16.2534 84.3261 16.6749C85.1353 16.8997 85.9193 17.0139 86.676 16.6123C87.3159 16.1135 87.7207 15.6364 87.8906 14.8438C87.8754 13.9942 87.7903 13.5954 87.2558 12.9273C85.8977 11.847 84.8031 11.9412 83.5205 13.1226Z" fill="#EB0029"/>
<path d="M52.9297 18.1644C53.4779 18.4261 53.6837 18.6619 54.1016 19.1409C54.3472 19.9355 54.3606 20.3405 54.0649 21.1185C53.7195 21.6664 53.3379 22.1545 52.9297 22.6565C53.0487 22.7747 53.1677 22.8929 53.2904 23.0146C54.4122 24.1286 55.5331 25.2435 56.6529 26.3595C57.2286 26.9332 57.8047 27.5065 58.3817 28.079C58.9385 28.6316 59.4943 29.1851 60.0495 29.7393C60.2614 29.9505 60.4737 30.1614 60.6863 30.3719C60.9842 30.6669 61.2808 30.9631 61.5771 31.2596C61.7463 31.4279 61.9154 31.5962 62.0897 31.7696C62.5728 32.308 62.875 32.7126 62.9135 33.4415C62.8396 34.1373 62.766 34.6482 62.4023 35.2542C61.6556 35.7023 61.0225 35.8265 60.1562 35.7425C58.745 35.0078 57.6234 33.6508 56.5186 32.5336C56.3238 32.3381 56.129 32.1427 55.9341 31.9474C55.4259 31.4378 54.9189 30.9269 54.4122 30.4159C53.8931 29.8927 53.3728 29.3707 52.8526 28.8486C51.8355 27.8273 50.8197 26.8048 49.8047 25.7815C49.6463 25.905 49.6463 25.905 49.4848 26.031C49.2757 26.1915 49.2757 26.1915 49.0623 26.3553C48.9245 26.4618 48.7868 26.5683 48.6448 26.678C48.1129 27.0419 47.7134 27.1487 47.0703 27.1487C46.4309 26.9965 46.1269 26.7886 45.6421 26.3431C45.2961 25.7536 45.1621 25.3123 45.2023 24.6247C45.6102 23.1224 47.5046 21.8015 48.5972 20.7136C48.8927 20.4191 49.1872 20.1236 49.4816 19.8279C49.6698 19.6398 49.8582 19.4517 50.0465 19.2637C50.3004 19.0102 50.3004 19.0102 50.5595 18.7515C51.2756 18.0788 51.9758 18.0104 52.9297 18.1644Z" fill="#EB0029"/>
<path d="M53.7109 50.7817C54.1522 51.098 54.1522 51.098 54.604 51.5257C54.7744 51.686 54.9448 51.8463 55.1203 52.0114C55.2998 52.1857 55.4792 52.36 55.6641 52.5395C55.8446 52.7145 56.0252 52.8896 56.2112 53.0699C56.8042 53.6489 57.391 54.2341 57.9773 54.82C58.1925 55.0345 58.4077 55.2491 58.623 55.4636C59.0697 55.9093 59.5161 56.3553 59.9623 56.8015C60.5335 57.3728 61.1061 57.9427 61.679 58.5122C62.122 58.9531 62.5641 59.3948 63.006 59.8368C63.2168 60.0474 63.428 60.2577 63.6395 60.4677C63.9339 60.7602 64.227 61.0539 64.5199 61.3479C64.6866 61.5143 64.8533 61.6808 65.0251 61.8523C65.7203 62.6305 65.9082 63.2035 65.8844 64.2644C65.7831 64.8722 65.4716 65.2057 65.0391 65.6255C64.4206 65.9347 63.755 65.9465 63.0859 65.8208C62.2222 65.2981 61.5075 64.6886 60.8011 63.974C60.6968 63.8701 60.5925 63.7661 60.485 63.659C60.1435 63.3183 59.8035 62.9762 59.4635 62.634C59.2253 62.3956 58.9871 62.1573 58.7488 61.919C58.2511 61.421 57.7541 60.9224 57.2576 60.4232C56.6211 59.7834 55.9833 59.1449 55.3451 58.5068C54.8537 58.0154 54.3629 57.5236 53.8723 57.0315C53.6372 56.7958 53.4021 56.5603 53.1668 56.3248C52.8386 55.9962 52.5111 55.667 52.1837 55.3376C52.0865 55.2404 51.9893 55.1433 51.8892 55.0433C51.1997 54.3474 50.7251 53.8609 50.708 52.8569C50.7213 52.177 50.7727 51.9672 51.1475 51.3677C51.9236 50.6372 52.686 50.5636 53.7109 50.7817Z" fill="#EB0029"/>
<path d="M31.6406 28.7107C32.251 29.0769 32.251 29.0769 32.6172 29.6873C32.8103 30.669 32.7689 31.3875 32.251 32.2508C31.3877 32.7687 30.6692 32.8101 29.6875 32.617C29.0772 32.2508 29.0772 32.2508 28.711 31.6404C28.5178 30.6587 28.5592 29.9402 29.0772 29.0769C29.9404 28.559 30.659 28.5176 31.6406 28.7107Z" fill="#EB0029"/>
</g>
<defs>
<clipPath id="clip0_281_6487">
<rect width="100" height="100" fill="white"/>
</clipPath>
</defs>
</svg>
