<svg width="95" height="95" viewBox="0 0 95 95" fill="none" xmlns="http://www.w3.org/2000/svg">
<path d="M20.5199 2.27985C23.154 2.11792 25.1339 2.58716 27.1699 4.36985C29.2051 6.20656 30.4774 8.40155 30.6292 11.1657C30.6487 11.8588 30.6519 12.5516 30.6499 13.2449C30.6492 13.679 30.6537 14.1127 30.6585 14.5467C30.6645 16.0007 30.6041 17.2633 30.0199 18.6199C30.208 18.5572 30.3961 18.4945 30.5899 18.4299C30.8916 18.4087 31.1941 18.3978 31.4965 18.3932C31.6805 18.3902 31.8645 18.3871 32.0541 18.384C32.8985 18.3755 33.7429 18.3677 34.5873 18.3633C35.0312 18.3602 35.4752 18.355 35.919 18.3477C36.5615 18.3373 37.2037 18.3332 37.8462 18.3304C38.0424 18.3261 38.2387 18.3218 38.4408 18.3173C39.949 18.3217 41.2167 18.6759 42.3532 19.7107C43.3975 20.8293 43.7872 21.9885 43.7459 23.5042C43.692 24.0143 43.5209 24.4207 43.3199 24.8899C43.3199 25.7765 43.8375 26.3257 44.3701 26.9865C45.1444 28.0196 45.1634 28.9478 45.0299 30.2099C44.6912 31.5668 43.9005 32.4753 42.7499 33.2499C42.6245 33.2499 42.4991 33.2499 42.3699 33.2499C42.4313 33.3794 42.4928 33.509 42.5562 33.6425C42.7829 34.2948 42.807 34.8281 42.8092 35.518C42.8124 35.7431 42.8156 35.9681 42.8189 36.2C42.707 37.2698 42.265 37.9955 41.503 38.7361C41.3891 38.8493 41.2752 38.9624 41.1579 39.079C40.8499 39.3299 40.8499 39.3299 40.4699 39.3299C40.511 39.4357 40.5522 39.5415 40.5946 39.6505C41.0972 41.028 41.2819 42.0668 40.7192 43.4505C40.3629 44.1808 39.9527 44.6882 39.3299 45.2199C39.177 45.357 39.0242 45.4942 38.8667 45.6355C37.8965 46.3217 37.0128 46.4023 35.846 46.3636C35.5693 46.3571 35.2926 46.3509 35.0159 46.345C34.8712 46.3414 34.7266 46.3379 34.5775 46.3342C31.2717 46.2608 28.1952 46.6113 24.9475 47.2053C21.4662 47.7853 17.7946 47.7074 14.6299 45.9799C14.31 45.6891 13.9919 45.3963 13.6754 45.1018C12.0415 43.8559 10.2515 44.0511 8.27675 44.0917C7.73261 44.0957 7.18855 44.0973 6.6444 44.0973C6.30815 44.098 5.97189 44.1015 5.6357 44.108C4.50416 44.121 3.8062 43.9574 2.84987 43.3199C2.77708 42.9162 2.77708 42.9162 2.77493 42.4065C2.77278 42.2136 2.77062 42.0207 2.7684 41.822C2.76896 41.6096 2.76951 41.3972 2.77009 41.1784C2.76767 40.8438 2.76767 40.8438 2.76521 40.5024C2.76152 39.8896 2.76043 39.2768 2.76079 38.664C2.76082 38.1526 2.75919 37.6413 2.75761 37.1299C2.75395 35.9235 2.7534 34.717 2.75469 33.5105C2.75595 32.2657 2.75161 31.0209 2.74456 29.7761C2.73873 28.7077 2.73657 27.6394 2.73731 26.571C2.7377 25.9327 2.73665 25.2945 2.73201 24.6562C2.72781 23.9442 2.72962 23.2325 2.73298 22.5205C2.73046 22.3089 2.72794 22.0972 2.72534 21.8792C2.74093 20.46 2.74093 20.46 3.27865 19.8177C3.79654 19.5714 4.08967 19.4795 4.6564 19.4933C4.90202 19.4959 4.90202 19.4959 5.15261 19.4986C5.32757 19.5038 5.50254 19.5089 5.6828 19.5142C6.05897 19.5161 6.43513 19.5177 6.8113 19.519C7.40006 19.5253 7.98848 19.5341 8.5771 19.5483C11.6365 19.6453 11.6365 19.6453 14.1776 18.1139C14.3269 17.9673 14.4761 17.8208 14.6299 17.6699C14.9899 17.4068 15.3537 17.1488 15.7224 16.898C17.6287 15.5018 18.812 14.0533 19.5699 11.7799C19.5877 11.5158 19.5956 11.2509 19.5968 10.9863C19.5982 10.827 19.5995 10.6678 19.6009 10.5037C19.6021 10.2463 19.6021 10.2463 19.6033 9.98376C19.6077 9.61934 19.6123 9.25493 19.617 8.89052C19.6237 8.31682 19.6292 7.7432 19.6318 7.16948C19.6348 6.61518 19.6424 6.06111 19.6508 5.50688C19.6504 5.33683 19.65 5.16677 19.6497 4.99156C19.6714 3.86902 19.885 3.20954 20.5199 2.27985ZM22.6099 5.12985C22.6129 5.36381 22.6129 5.36381 22.6159 5.60249C22.6224 6.19138 22.6272 6.78025 22.6307 7.36917C22.6336 7.7453 22.6384 8.12142 22.6433 8.49753C22.6616 12.1209 21.834 14.7242 19.3042 17.39C17.8534 18.7671 16.2103 19.897 14.5738 21.0401C14.2254 21.2856 14.2254 21.2856 13.8699 21.6599C13.8075 22.0368 13.8075 22.0368 13.8101 22.4756C13.8066 22.6469 13.803 22.8181 13.7994 22.9946C13.7975 23.183 13.7955 23.3714 13.7936 23.5656C13.7884 23.8627 13.7884 23.8627 13.7832 24.1657C13.7728 24.8235 13.7656 25.4812 13.7593 26.139C13.757 26.3633 13.7548 26.5877 13.7524 26.8189C13.7412 28.0068 13.7328 29.1946 13.7264 30.3825C13.7205 31.3663 13.7086 32.3497 13.6913 33.3333C13.6705 34.5201 13.66 35.7067 13.6568 36.8937C13.6539 37.346 13.6474 37.7984 13.6373 38.2506C13.4737 40.6328 13.4737 40.6328 14.3186 42.744C14.8631 43.0989 15.343 43.3122 15.9599 43.5099C16.2578 43.6542 16.5549 43.8003 16.8505 43.9492C20.1752 45.1474 23.9863 44.6362 27.3599 43.8899C27.3285 43.7409 27.2972 43.592 27.2649 43.4386C27.0625 41.9711 27.0564 40.8592 27.7451 39.5213C27.934 39.1314 28.0634 38.81 28.1199 38.3799C27.7703 37.7922 27.7703 37.7922 27.3599 37.2399C26.9737 36.0813 27.0683 34.8313 27.4311 33.6774C27.5714 33.1458 27.6046 32.9655 27.328 32.4817C27.0372 32.1467 26.7307 31.8455 26.4099 31.5399C26.3472 31.4145 26.2845 31.2891 26.2199 31.1599C25.2547 31.2943 24.6385 31.7276 23.8449 32.2657C23.2678 32.538 23.0145 32.5112 22.4199 32.2999C22.0517 31.8724 22.0517 31.8724 21.8499 31.3499C22.0661 30.414 22.6585 30.003 23.4055 29.4736C23.6301 29.307 23.8543 29.1398 24.0779 28.9719C24.1855 28.8912 24.2931 28.8105 24.4039 28.7273C25.6879 27.7404 26.6424 26.6883 26.8752 25.0487C26.9407 23.7372 26.7786 22.8411 26.1724 21.6717C25.8577 21.0579 25.8577 21.0579 25.6499 20.5199C25.8694 19.8613 25.9793 19.6766 26.4099 19.1899C26.6149 18.8871 26.8167 18.5823 27.0155 18.2755C27.1122 18.1332 27.209 17.9909 27.3087 17.8443C27.8005 17.1013 27.7768 16.4602 27.7851 15.5917C27.7874 15.3652 27.7874 15.3652 27.7898 15.1342C27.7924 14.8135 27.7945 14.4927 27.796 14.172C27.7992 13.687 27.8075 13.2022 27.8159 12.7172C27.8318 11.0691 27.8278 9.63893 26.9799 8.16985C26.8814 7.99841 26.783 7.82696 26.6815 7.65032C25.5902 6.2354 24.3858 5.39958 22.6099 5.12985ZM29.7586 22.1824C29.5775 22.8344 29.6557 23.2897 29.8299 23.9399C30.2438 24.4203 30.5786 24.667 31.2116 24.7704C31.7539 24.8007 32.2911 24.8052 32.8342 24.8008C33.0331 24.8015 33.2319 24.8022 33.4368 24.803C33.8565 24.8035 34.2762 24.8021 34.6958 24.7989C35.3377 24.7949 35.9791 24.7989 36.6209 24.8038C37.0291 24.8033 37.4373 24.8023 37.8455 24.8008C38.0371 24.8023 38.2287 24.8039 38.4261 24.8055C39.2612 24.7943 39.7628 24.7815 40.4914 24.3477C40.9591 23.8156 41.0399 23.507 41.0399 22.7999C40.7467 21.9936 40.7467 21.9936 40.1229 21.4405C39.6649 21.2624 39.3268 21.2305 38.8364 21.2277C38.6645 21.2259 38.4926 21.224 38.3156 21.2222C38.1313 21.2224 37.947 21.2225 37.7572 21.2227C37.5665 21.2219 37.3758 21.2211 37.1794 21.2202C36.7765 21.2191 36.3735 21.219 35.9706 21.2199C35.3547 21.2205 34.7389 21.216 34.1231 21.2112C33.7313 21.2108 33.3396 21.2106 32.9478 21.2108C32.672 21.2082 32.672 21.2082 32.3906 21.2055C31.2971 21.213 30.4799 21.2644 29.7586 22.1824ZM5.50987 22.4199C5.50987 28.6272 5.50987 34.8345 5.50987 41.2299C7.39087 41.2299 9.27187 41.2299 11.2099 41.2299C11.2099 35.0226 11.2099 28.8153 11.2099 22.4199C9.32887 22.4199 7.44787 22.4199 5.50987 22.4199ZM28.6899 28.1199C28.2481 28.7826 28.2463 29.0511 28.3099 29.8299C28.5392 30.465 28.6748 30.5798 29.2599 30.9699C29.8038 31.0304 29.8038 31.0304 30.4288 31.0251C30.7902 31.0287 30.7902 31.0287 31.1589 31.0324C31.4222 31.033 31.6855 31.0334 31.9488 31.0337C32.2188 31.0349 32.4888 31.0362 32.7588 31.0375C33.3247 31.0398 33.8905 31.0405 34.4564 31.0403C35.1812 31.0402 35.9058 31.0454 36.6306 31.052C37.1882 31.0562 37.7458 31.057 38.3034 31.0568C38.5706 31.0572 38.8378 31.0589 39.105 31.0618C39.4787 31.0655 39.8526 31.064 40.2264 31.0622C40.5453 31.063 40.5453 31.063 40.8707 31.0638C41.5486 30.9478 41.7672 30.751 42.1799 30.2099C42.3821 29.4684 42.4454 29.0587 42.1442 28.3455C41.6599 27.7609 41.2803 27.5729 40.5221 27.5003C40.3241 27.4994 40.1261 27.4986 39.9222 27.4977C39.6971 27.4959 39.472 27.494 39.24 27.4922C38.9976 27.4924 38.7551 27.4925 38.5053 27.4927C38.1307 27.4915 38.1307 27.4915 37.7486 27.4902C37.2204 27.4888 36.6923 27.4889 36.1641 27.4899C35.4886 27.491 34.8132 27.4878 34.1376 27.4833C33.4917 27.4799 32.8457 27.4806 32.1997 27.4808C31.8366 27.4782 31.8366 27.4782 31.4661 27.4755C31.2404 27.4767 31.0147 27.4779 30.7821 27.4791C30.584 27.479 30.3859 27.4789 30.1818 27.4788C29.5503 27.5616 29.1995 27.7428 28.6899 28.1199ZM30.0996 34.1641C29.7194 34.7502 29.6642 35.2158 29.6399 35.9099C29.8366 36.6474 29.9408 36.8071 30.5899 37.2399C30.987 37.2998 30.987 37.2998 31.4274 37.2951C31.6804 37.2987 31.6804 37.2987 31.9385 37.3024C32.2111 37.303 32.2111 37.303 32.4891 37.3037C32.6763 37.3049 32.8635 37.3062 33.0563 37.3075C33.4522 37.3094 33.8482 37.3103 34.2441 37.3103C34.85 37.3111 35.4557 37.318 36.0616 37.3252C36.4462 37.3263 36.8308 37.3271 37.2154 37.3274C37.3967 37.3302 37.578 37.3329 37.7648 37.3357C38.7671 37.3414 38.7671 37.3414 39.6283 36.8781C40.0922 36.1978 40.1548 35.7875 40.0899 34.9599C39.7546 34.2547 39.7546 34.2547 39.1399 33.8199C38.8685 33.7991 38.5961 33.7896 38.3239 33.7862C38.1552 33.7838 37.9865 33.7813 37.8127 33.7788C37.6301 33.7774 37.4474 33.776 37.2592 33.7746C37.0717 33.773 36.8843 33.7715 36.6912 33.7699C36.2941 33.7673 35.8971 33.7653 35.5 33.7638C34.8924 33.7605 34.2849 33.7522 33.6774 33.7438C33.2919 33.7419 32.9065 33.7402 32.521 33.739C32.3391 33.7356 32.1572 33.7323 31.9698 33.7289C30.9702 33.7219 30.9702 33.7219 30.0996 34.1641ZM30.1271 40.4349C29.7071 41.0212 29.6524 41.4636 29.6399 42.1799C29.8658 42.7149 30.0441 43.0193 30.5283 43.3423C31.4553 43.6941 32.5092 43.5728 33.4915 43.5698C33.901 43.5692 34.3103 43.5737 34.7198 43.5785C34.9816 43.5789 35.2435 43.5791 35.5054 43.5789C35.8608 43.5797 35.8608 43.5797 36.2234 43.5806C36.9127 43.504 37.2625 43.3579 37.8099 42.9399C38.2198 42.325 38.2381 42.2111 38.1661 41.5149C38.1539 41.3679 38.1416 41.2209 38.129 41.0695C37.9506 40.5037 37.7562 40.3831 37.2399 40.0899C36.7242 40.032 36.2532 40.0054 35.7377 40.0075C35.593 40.0065 35.4482 40.0055 35.2991 40.0045C34.9938 40.0032 34.6884 40.0035 34.3831 40.0051C33.9164 40.0067 33.4501 40.0013 32.9834 39.9952C32.6863 39.9949 32.3892 39.995 32.0921 39.9956C31.9529 39.9935 31.8138 39.9913 31.6704 39.9891C31.0201 39.998 30.6548 40.0415 30.1271 40.4349Z" fill="#EB0029"/>
<path d="M57.42 37.5409C57.7883 37.5586 57.7883 37.5586 58.1641 37.5765C58.6792 37.6013 59.1942 37.6266 59.7093 37.6523C60.2298 37.6781 60.7504 37.7032 61.271 37.7274C70.3139 38.1486 70.3139 38.1486 72.5799 39.8996C72.6865 40.0554 72.6865 40.0554 72.7951 40.2143C73.0861 40.6168 73.2705 40.8169 73.7199 41.0396C74.6229 41.0328 75.4751 40.892 76.3608 40.7291C80.847 39.9475 86.7185 40.1098 90.6299 42.7496C91.3988 43.4622 92.064 44.2569 92.2204 45.3176C92.2593 46.9198 91.8763 47.7004 90.8207 48.8697C87.0285 52.617 80.8989 53.4299 75.8099 53.5796C75.8214 53.7201 75.8329 53.8606 75.8448 54.0053C76.4884 61.96 76.4883 61.96 75.1591 63.6737C74.9787 63.8652 74.7957 64.0543 74.6107 64.2413C74.5106 64.3459 74.4106 64.4505 74.3075 64.5583C73.9875 64.8913 73.6641 65.2207 73.3399 65.5496C73.1312 65.7635 72.9224 65.9774 72.7137 66.1913C72.0393 66.8792 71.3587 67.5608 70.6778 68.2423C70.4194 68.5016 70.161 68.7609 69.9027 69.0203C69.2088 69.7166 68.5143 70.4124 67.8196 71.108C67.3847 71.5434 66.95 71.9789 66.5153 72.4145C65.1523 73.78 63.789 75.1451 62.4252 76.5097C60.8553 78.0805 59.2866 79.6525 57.719 81.2256C56.5029 82.4458 55.2856 83.665 54.0675 84.8834C53.3416 85.6095 52.6162 86.336 51.8919 87.0637C51.2121 87.7467 50.5309 88.4282 49.8487 89.1088C49.599 89.3583 49.3499 89.6082 49.1013 89.8588C48.7612 90.2012 48.4194 90.5419 48.0771 90.8822C47.9798 90.9811 47.8825 91.0799 47.7822 91.1818C46.7135 92.2362 45.7317 92.8287 44.1987 92.8383C43.966 92.8447 43.7333 92.8511 43.4936 92.8576C41.6677 92.5187 40.3605 90.9816 39.1016 89.7121C38.9143 89.5252 38.7269 89.3385 38.5393 89.1518C38.0349 88.6492 37.5322 88.1447 37.0299 87.6399C36.5028 87.1107 35.9743 86.583 35.446 86.055C34.5608 85.1699 33.6767 84.2837 32.7932 83.3968C31.7712 82.3707 30.7474 81.3463 29.7227 80.3228C28.7358 79.337 27.75 78.3501 26.7648 77.3627C26.3456 76.9427 25.9261 76.523 25.5064 76.1037C25.0134 75.6111 24.5215 75.1176 24.0303 74.6234C23.763 74.3549 23.4949 74.0874 23.2267 73.82C23.0693 73.6612 22.9119 73.5025 22.7497 73.3389C22.5429 73.1315 22.5429 73.1315 22.3319 72.9199C22.0399 72.5796 22.0399 72.5796 22.0399 72.1996C21.9145 72.1996 21.7891 72.1996 21.6599 72.1996C20.9153 70.8975 20.5348 69.7521 20.8524 68.2571C21.1501 67.4132 21.5738 66.8767 22.184 66.2266C22.2758 66.1285 22.3676 66.0305 22.4621 65.9295C23.6338 64.6858 24.843 63.4784 26.0513 62.2706C26.3141 62.0073 26.5768 61.7439 26.8395 61.4805C27.5459 60.7724 28.253 60.0649 28.9602 59.3575C29.4026 58.915 29.8449 58.4723 30.2872 58.0295C31.8314 56.4835 33.3761 54.938 34.9213 53.393C36.3601 51.9543 37.7979 50.5145 39.2351 49.0743C40.4721 47.8348 41.7098 46.5961 42.9481 45.3579C43.6865 44.6196 44.4246 43.8809 45.162 43.1416C45.8539 42.4478 46.5467 41.755 47.2402 41.0629C47.4944 40.8088 47.7483 40.5545 48.0019 40.2997C48.348 39.9522 48.6952 39.6059 49.0427 39.2599C49.1427 39.1588 49.2428 39.0578 49.3458 38.9537C51.5547 36.7654 54.5429 37.3991 57.42 37.5409ZM50.5399 41.6096C50.3523 41.7927 50.1647 41.9758 49.977 42.1588C49.2835 42.8389 48.5974 43.5264 47.9111 44.2138C47.6473 44.4774 47.3835 44.7409 47.1196 45.0043C46.4067 45.7163 45.6945 46.4289 44.9824 47.1416C44.2365 47.888 43.4901 48.6339 42.7438 49.3799C41.4921 50.6313 40.2408 51.883 38.9898 53.135C37.5421 54.5836 36.0938 56.0316 34.6452 57.4792C33.4009 58.7226 32.157 59.9664 30.9134 61.2105C30.1708 61.9535 29.428 62.6962 28.6849 63.4387C27.9876 64.1355 27.2906 64.8328 26.5941 65.5305C26.3379 65.7869 26.0815 66.0432 25.825 66.2993C25.4761 66.6477 25.1278 66.9967 24.7796 67.3458C24.6769 67.448 24.5743 67.5502 24.4685 67.6556C23.8881 68.2391 23.5964 68.5513 23.4649 69.3733C23.5644 70.1446 23.6237 70.2601 24.1183 70.8004C24.2397 70.9334 24.3612 71.0665 24.4864 71.2035C25.212 71.9696 25.9482 72.7242 26.6912 73.4735C26.8668 73.6513 27.0425 73.8292 27.2234 74.0124C27.8003 74.5961 28.3782 75.1789 28.9564 75.7614C29.1045 75.9106 29.1045 75.9106 29.2556 76.0628C30.1881 77.0023 31.1211 77.9412 32.055 78.8792C33.2451 80.0746 34.433 81.2721 35.6179 82.4726C36.4543 83.3195 37.2931 84.1639 38.1338 85.0064C38.6349 85.5086 39.1347 86.0119 39.6319 86.518C40.1857 87.0816 40.7446 87.6399 41.3041 88.1978C41.4671 88.3653 41.6301 88.5327 41.798 88.7053C42.7322 89.648 42.7322 89.648 43.9446 90.1047C45.2024 90.0243 45.8973 89.2474 46.7503 88.3875C46.8626 88.2758 46.9748 88.1641 47.0905 88.0491C47.4657 87.6754 47.8395 87.3004 48.2133 86.9254C48.4823 86.6569 48.7514 86.3885 49.0205 86.1202C49.7507 85.3917 50.4797 84.662 51.2085 83.9321C51.971 83.1686 52.7345 82.406 53.4978 81.6433C54.7793 80.3625 56.0599 79.0809 57.3402 77.7989C58.821 76.316 60.3031 74.8345 61.786 73.3537C63.0587 72.0827 64.3307 70.811 65.6021 69.5387C66.3616 68.7785 67.1214 68.0187 67.8818 67.2595C68.5965 66.5459 69.3102 65.8315 70.0232 65.1163C70.2852 64.8537 70.5477 64.5914 70.8104 64.3295C71.1685 63.9725 71.5253 63.6143 71.8819 63.2558C71.9866 63.152 72.0913 63.0481 72.1992 62.9411C72.841 62.2927 73.3144 61.8062 73.3686 60.8781C73.3599 60.6945 73.3511 60.5108 73.3421 60.3216C73.3333 60.1165 73.3245 59.9113 73.3154 59.7C73.3039 59.4829 73.2924 59.2658 73.2805 59.0421C73.2704 58.8213 73.2602 58.6006 73.2498 58.3731C73.1712 56.7109 73.0778 55.0495 72.9599 53.3896C72.1967 53.2236 71.4325 53.0627 70.668 52.9027C70.4526 52.8558 70.2372 52.8089 70.0153 52.7606C68.6288 52.4736 67.6617 52.369 66.3099 52.8196C64.9049 52.9601 63.7046 52.8514 62.5099 52.0596C61.5376 51.2001 60.8862 50.1705 60.7398 48.8623C60.6911 47.6111 60.783 46.6093 61.5599 45.5996C62.5818 44.5002 63.6924 43.7097 65.2293 43.6046C66.6411 43.6623 67.8096 44.3532 68.768 45.3621C69.8735 46.7629 69.9941 47.9758 69.7915 49.721C69.7712 49.8657 69.7509 50.0105 69.7299 50.1596C69.9494 50.2223 70.1688 50.285 70.3949 50.3496C70.5801 50.4025 70.5801 50.4025 70.769 50.4565C71.4419 50.5728 72.0872 50.5511 72.7699 50.5396C72.9376 46.2099 72.9376 46.2099 71.3167 42.4208C69.9336 41.2537 68.6755 41.0505 66.8844 40.9483C66.7569 40.9408 66.6294 40.9334 66.4981 40.9257C66.0791 40.9014 65.6602 40.8781 65.2412 40.8548C64.9467 40.8381 64.6523 40.8213 64.3578 40.8045C63.7407 40.7694 63.1236 40.7348 62.5065 40.7006C61.7229 40.657 60.9394 40.6122 60.1559 40.567C59.5473 40.5321 58.9386 40.4979 58.3298 40.4639C58.0414 40.4476 57.753 40.4312 57.4646 40.4145C56.799 40.3762 56.1337 40.3408 55.4676 40.313C54.9729 40.2909 54.4785 40.261 53.9849 40.2231C53.7545 40.211 53.5241 40.1989 53.2867 40.1865C53.0861 40.1725 52.8855 40.1585 52.6788 40.1441C51.721 40.3538 51.2248 40.9308 50.5399 41.6096ZM75.0499 43.6996C75.238 46.0195 75.4261 48.3394 75.6199 50.7296C77.0201 50.7296 78.2902 50.6975 79.6574 50.4921C79.8297 50.4666 80.002 50.4411 80.1795 50.4148C83.3251 49.9263 87.1408 49.1085 89.2999 46.5496C89.4742 45.901 89.4742 45.901 89.2999 45.2196C87.9304 43.7579 85.1673 43.3661 83.2751 43.292C82.6018 43.2881 81.9286 43.2843 81.2552 43.2844C80.8263 43.284 80.3974 43.2805 79.9684 43.2769C79.6881 43.2764 79.4078 43.276 79.1275 43.2758C78.8783 43.275 78.629 43.2742 78.3722 43.2734C77.2573 43.3338 76.1534 43.5298 75.0499 43.6996ZM63.6499 47.3096C63.6499 47.435 63.6499 47.5604 63.6499 47.6896C63.5245 47.6896 63.3991 47.6896 63.2699 47.6896C63.2066 48.6259 63.2066 48.6259 63.5312 49.4827C63.8142 49.8235 63.8142 49.8235 64.2199 49.7796C64.0945 48.9645 63.9691 48.1494 63.8399 47.3096C63.7772 47.3096 63.7145 47.3096 63.6499 47.3096ZM66.8799 47.6896C66.8172 48.0031 66.7545 48.3166 66.6899 48.6396C66.878 48.6396 67.0661 48.6396 67.2599 48.6396C67.1972 48.3261 67.1345 48.0126 67.0699 47.6896C67.0072 47.6896 66.9445 47.6896 66.8799 47.6896Z" fill="#EB0029"/>
<path d="M56.2044 53.8264C59.2738 56.1543 61.5666 59.3879 62.1299 63.2698C62.4798 66.9281 61.7354 70.3601 59.4106 73.2804C59.1176 73.6203 58.8208 73.9569 58.5199 74.2898C58.3825 74.4428 58.2451 74.5959 58.1036 74.7536C55.7519 77.2399 52.5936 78.5392 49.2099 78.8498C45.7567 78.9379 42.1943 77.9013 39.6268 75.5366C39.2664 75.1911 38.9182 74.8379 38.5699 74.4798C38.4389 74.346 38.3079 74.2123 38.1729 74.0745C35.7728 71.4801 34.6496 67.9826 34.7239 64.481C34.9365 61.5179 36.0235 58.6563 37.9999 56.4298C38.1449 56.2377 38.2899 56.0457 38.4393 55.8479C42.908 50.9635 50.7567 49.9252 56.2044 53.8264ZM40.0899 57.9498C37.9555 60.7834 37.2706 63.7539 37.7506 67.2598C38.1259 69.2536 38.9325 70.8819 40.2799 72.3898C40.3813 72.5066 40.4827 72.6234 40.5872 72.7438C42.3958 74.6951 44.9527 75.8871 47.6075 76.0384C50.8595 76.0765 53.602 75.3276 56.0032 73.011C56.2144 72.7975 56.2144 72.7975 56.4299 72.5798C56.5531 72.4629 56.6763 72.3461 56.8033 72.2257C58.7252 70.2617 59.3542 67.4646 59.3367 64.8048C59.2637 62.1008 58.2008 59.3605 56.3075 57.3976C53.5115 54.9123 50.6886 54.1696 47.0154 54.3057C44.3584 54.5001 41.8607 56.0249 40.0899 57.9498Z" fill="#EB0029"/>
<path d="M54.2567 58.271C55.0085 58.6758 55.0085 58.6758 55.2898 59.0903C55.3492 59.6722 55.3492 59.6722 55.2898 60.2303C55.1644 60.3557 55.039 60.4811 54.9098 60.6103C54.9708 61.2815 55.0767 61.8709 55.2898 62.5103C55.3821 63.7401 55.4673 64.8893 54.7198 65.9303C54.3636 66.2985 54.3636 66.2985 53.9598 66.5003C53.4271 66.4744 53.1179 66.3837 52.6773 66.0847C52.2626 65.4833 52.2366 64.8623 52.2728 64.1439C52.3377 62.998 52.3377 62.998 51.7986 62.0235C51.2004 61.468 50.949 61.3437 50.1598 61.3466C50.0266 61.3461 49.8934 61.3456 49.7561 61.3451C49.3824 61.3487 49.3824 61.3487 49.0198 61.5603C48.8997 62.9137 49.2438 63.6618 49.9461 64.8022C50.7904 66.2035 51.4857 67.4095 51.2353 69.0965C50.9191 70.2151 50.2169 71.1373 49.293 71.8322C48.2637 72.4053 47.1203 72.345 45.9798 72.2003C45.3267 71.9035 45.3267 71.9035 44.8398 71.6303C44.1097 71.6538 44.1097 71.6538 43.5098 72.0103C42.9755 72.0816 42.9755 72.0816 42.3698 72.0103C41.9067 71.6066 41.9067 71.6066 41.6098 71.0603C41.6376 70.3522 41.6748 70.0453 42.1798 69.5403C42.105 68.8916 41.8944 68.3209 41.6692 67.7116C41.2955 66.4844 41.4702 65.397 41.9564 64.2218C42.2665 63.6749 42.5326 63.4708 43.118 63.2466C43.8735 63.2774 44.1357 63.4869 44.6498 64.0303C44.828 64.3985 44.828 64.3985 44.8398 64.7903C44.781 64.9353 44.7223 65.0803 44.6617 65.2297C44.3646 65.9813 44.306 66.6535 44.5905 67.4244C45.0167 68.2537 45.5018 68.7556 46.3598 69.1603C46.9363 69.2179 47.4929 69.2065 48.0698 69.1603C48.1897 67.6746 47.8403 66.8312 47.1198 65.5503C46.9437 65.2069 46.7695 64.8626 46.5973 64.5172C46.5199 64.3646 46.4425 64.212 46.3628 64.0548C45.8844 63.052 45.792 62.13 46.1387 61.0787C46.6677 59.9016 47.3254 59.1579 48.4498 58.5203C49.0265 58.3281 49.4373 58.2989 50.0411 58.2947C50.3078 58.2907 50.3078 58.2907 50.5799 58.2866C51.1417 58.333 51.5438 58.4929 52.0598 58.7103C52.5882 58.6588 52.9334 58.5657 53.3898 58.2947C53.7698 58.1403 53.7698 58.1403 54.2567 58.271Z" fill="#EB0029"/>
</svg>
