<svg width="15" height="17" viewBox="0 0 15 17" fill="none" xmlns="http://www.w3.org/2000/svg">
<path d="M4.25 0C4.8377 0 5.3125 0.474805 5.3125 1.0625V2.125H9.5625V1.0625C9.5625 0.474805 10.0373 0 10.625 0C11.2127 0 11.6875 0.474805 11.6875 1.0625V2.125H13.2812C14.1611 2.125 14.875 2.83887 14.875 3.71875V5.3125H0V3.71875C0 2.83887 0.713867 2.125 1.59375 2.125H3.1875V1.0625C3.1875 0.474805 3.6623 0 4.25 0ZM0 6.375H14.875V15.4062C14.875 16.2861 14.1611 17 13.2812 17H1.59375C0.713867 17 0 16.2861 0 15.4062V6.375ZM2.125 9.03125V10.0938C2.125 10.3859 2.36406 10.625 2.65625 10.625H3.71875C4.01094 10.625 4.25 10.3859 4.25 10.0938V9.03125C4.25 8.73906 4.01094 8.5 3.71875 8.5H2.65625C2.36406 8.5 2.125 8.73906 2.125 9.03125ZM6.375 9.03125V10.0938C6.375 10.3859 6.61406 10.625 6.90625 10.625H7.96875C8.26094 10.625 8.5 10.3859 8.5 10.0938V9.03125C8.5 8.73906 8.26094 8.5 7.96875 8.5H6.90625C6.61406 8.5 6.375 8.73906 6.375 9.03125ZM11.1562 8.5C10.8641 8.5 10.625 8.73906 10.625 9.03125V10.0938C10.625 10.3859 10.8641 10.625 11.1562 10.625H12.2188C12.5109 10.625 12.75 10.3859 12.75 10.0938V9.03125C12.75 8.73906 12.5109 8.5 12.2188 8.5H11.1562ZM2.125 13.2812V14.3438C2.125 14.6359 2.36406 14.875 2.65625 14.875H3.71875C4.01094 14.875 4.25 14.6359 4.25 14.3438V13.2812C4.25 12.9891 4.01094 12.75 3.71875 12.75H2.65625C2.36406 12.75 2.125 12.9891 2.125 13.2812ZM6.90625 12.75C6.61406 12.75 6.375 12.9891 6.375 13.2812V14.3438C6.375 14.6359 6.61406 14.875 6.90625 14.875H7.96875C8.26094 14.875 8.5 14.6359 8.5 14.3438V13.2812C8.5 12.9891 8.26094 12.75 7.96875 12.75H6.90625ZM10.625 13.2812V14.3438C10.625 14.6359 10.8641 14.875 11.1562 14.875H12.2188C12.5109 14.875 12.75 14.6359 12.75 14.3438V13.2812C12.75 12.9891 12.5109 12.75 12.2188 12.75H11.1562C10.8641 12.75 10.625 12.9891 10.625 13.2812Z" fill="#EB0029"/>
</svg>
