<svg width="18" height="17" viewBox="0 0 18 17" fill="none" xmlns="http://www.w3.org/2000/svg">
<path d="M8.88382 0C3.98528 0 0 3.61237 0 8.05268C0 9.60476 0.487426 11.1082 1.41193 12.4083C1.23692 14.3579 0.767858 15.8053 0.0867653 16.491C0.0429136 16.5352 0.0139655 16.5922 0.0040097 16.6539C-0.00594613 16.7156 0.00359347 16.7789 0.0312811 16.8348C0.0589688 16.8908 0.103405 16.9365 0.158314 16.9656C0.213222 16.9948 0.275828 17.0058 0.337289 16.9971C0.45722 16.9801 3.24319 16.5763 5.25833 15.4048C6.40257 15.8698 7.62143 16.1054 8.88382 16.1054C13.7824 16.1054 17.7676 12.493 17.7676 8.05268C17.7676 3.61237 13.7824 0 8.88382 0ZM4.73804 9.24568C4.08478 9.24568 3.55353 8.71062 3.55353 8.05268C3.55353 7.39475 4.08478 6.85969 4.73804 6.85969C5.39129 6.85969 5.92255 7.39475 5.92255 8.05268C5.92255 8.71062 5.39129 9.24568 4.73804 9.24568ZM8.88382 9.24568C8.23056 9.24568 7.69931 8.71062 7.69931 8.05268C7.69931 7.39475 8.23056 6.85969 8.88382 6.85969C9.53707 6.85969 10.0683 7.39475 10.0683 8.05268C10.0683 8.71062 9.53707 9.24568 8.88382 9.24568ZM13.0296 9.24568C12.3763 9.24568 11.8451 8.71062 11.8451 8.05268C11.8451 7.39475 12.3763 6.85969 13.0296 6.85969C13.6829 6.85969 14.2141 7.39475 14.2141 8.05268C14.2141 8.71062 13.6829 9.24568 13.0296 9.24568Z" fill="#EB0029"/>
</svg>
