<svg width="45" height="57" viewBox="0 0 45 57" fill="none" xmlns="http://www.w3.org/2000/svg">
<path d="M3.60693 55.832H41.162" stroke="#EB0029" stroke-width="2" stroke-linecap="round" stroke-linejoin="round"/>
<path d="M22.3846 30.7956C24.598 30.7956 26.7208 29.9164 28.2859 28.3513C29.851 26.7862 30.7302 24.6635 30.7302 22.4501C30.7302 20.2367 29.851 18.114 28.2859 16.5489C26.7208 14.9838 24.598 14.1045 22.3846 14.1045C20.1713 14.1045 18.0485 14.9838 16.4834 16.5489C14.9183 18.114 14.0391 20.2367 14.0391 22.4501C14.0391 24.6635 14.9183 26.7862 16.4834 28.3513C18.0485 29.9164 20.1713 30.7956 22.3846 30.7956V30.7956Z" stroke="#EB0029" stroke-width="2" stroke-linecap="round" stroke-linejoin="round"/>
<path d="M43.2484 22.4499C43.2484 41.2274 22.3845 55.8322 22.3845 55.8322C22.3845 55.8322 1.52051 41.2274 1.52051 22.4499C1.52051 16.9164 3.71867 11.6096 7.63142 7.69685C11.5442 3.7841 16.851 1.58594 22.3845 1.58594C27.9179 1.58594 33.2247 3.7841 37.1375 7.69685C41.0502 11.6096 43.2484 16.9164 43.2484 22.4499V22.4499Z" stroke="#EB0029" stroke-width="2" stroke-linecap="round" stroke-linejoin="round"/>
</svg>
