<svg width="67" height="52" viewBox="0 0 67 52" fill="none" xmlns="http://www.w3.org/2000/svg">
<path d="M63.4279 0.574219H3.3397C1.49611 0.574219 0.00146484 2.06873 0.00146484 3.91245V48.4222C0.00146484 50.2658 1.49598 51.7604 3.3397 51.7604H63.4279C65.2714 51.7604 66.7661 50.2659 66.7661 48.4222V3.91245C66.7661 2.06886 65.2716 0.574219 63.4279 0.574219ZM64.5406 48.4223C64.5406 49.0369 64.0424 49.535 63.4279 49.535H3.3397C2.72512 49.535 2.227 49.0369 2.227 48.4223V3.91245C2.227 3.29788 2.72512 2.79975 3.3397 2.79975H63.4279C64.0424 2.79975 64.5406 3.29788 64.5406 3.91245V48.4223Z" fill="#EB0029"/>
<path d="M61.2995 5.02969C61.0054 5.004 60.7132 5.09619 60.4872 5.28605L34.8161 26.8509C33.9882 27.5469 32.7798 27.5469 31.9519 26.8509L6.28099 5.28592C5.9765 5.03034 5.5587 4.95653 5.18511 5.09241C4.81151 5.22829 4.53872 5.55324 4.4696 5.94483C4.40049 6.33642 4.5455 6.73505 4.84998 6.99064L30.521 28.5545C32.1755 29.9475 34.5926 29.9475 36.2472 28.5545L61.9181 6.99077C62.1442 6.80104 62.2856 6.52928 62.3112 6.23523C62.3369 5.94118 62.2447 5.64896 62.0549 5.42297C61.8653 5.19673 61.5935 5.05538 61.2995 5.02969Z" fill="#EB0029"/>
<path d="M21.4032 28.4008C21.0092 28.3129 20.5987 28.4451 20.3301 28.7463L4.75166 45.4375C4.46974 45.7262 4.3662 46.145 4.48121 46.5318C4.59622 46.9187 4.91166 47.2129 5.30547 47.3008C5.69941 47.3886 6.1099 47.2564 6.37853 46.9552L21.957 30.264C22.2389 29.9753 22.3424 29.5565 22.2274 29.1697C22.1124 28.783 21.7971 28.4887 21.4032 28.4008Z" fill="#EB0029"/>
<path d="M46.4376 28.7463C46.1691 28.4451 45.7585 28.3129 45.3646 28.4008C44.9706 28.4887 44.6553 28.783 44.5403 29.1697C44.4253 29.5566 44.5288 29.9753 44.8107 30.264L60.3892 46.9552C60.8117 47.3879 61.5023 47.404 61.9445 46.9915C62.3867 46.5789 62.4185 45.8888 62.0161 45.4374L46.4376 28.7463Z" fill="#EB0029"/>
</svg>
