<svg width="55" height="55" viewBox="0 0 55 55" fill="none" xmlns="http://www.w3.org/2000/svg">
<path d="M35.2163 3.72363C39.0677 4.75949 42.5794 6.78912 45.3995 9.60926C48.2196 12.4294 50.2493 15.941 51.2851 19.7924" stroke="#EB0029" stroke-width="2" stroke-linecap="round" stroke-linejoin="round"/>
<path d="M32.8647 12.5049C35.1751 13.1264 37.2816 14.344 38.9733 16.0358C40.6651 17.7275 41.8827 19.834 42.5042 22.1444" stroke="#EB0029" stroke-width="2" stroke-linecap="round" stroke-linejoin="round"/>
<path d="M16.2076 27.8102C18.5635 32.6283 22.4683 36.5163 27.2965 38.8514C27.65 39.0189 28.0411 39.0913 28.4311 39.0614C28.8212 39.0315 29.1967 38.9004 29.5206 38.681L36.6315 33.9419C36.9456 33.7322 37.307 33.6041 37.683 33.5692C38.0591 33.5343 38.4379 33.5937 38.7852 33.742L52.0869 39.4444C52.5387 39.6363 52.916 39.9698 53.1618 40.3947C53.4077 40.8196 53.5088 41.3129 53.45 41.8003C53.029 45.0898 51.4235 48.1132 48.9341 50.3044C46.4447 52.4957 43.2421 53.7045 39.9257 53.7048C29.6826 53.7048 19.8591 49.6357 12.6162 42.3928C5.37324 35.1499 1.3042 25.3263 1.3042 15.0833C1.3045 11.7671 2.51346 8.56479 4.70473 6.07577C6.896 3.58676 9.91933 1.98175 13.2087 1.56122C13.6961 1.50244 14.1893 1.60359 14.6142 1.84944C15.0391 2.09528 15.3727 2.47251 15.5646 2.92433L21.2715 16.2374C21.4183 16.5814 21.4779 16.9563 21.445 17.3288C21.4121 17.7013 21.2877 18.06 21.0829 18.3729L16.3575 25.5929C16.143 25.918 16.0165 26.2932 15.9902 26.6818C15.9639 27.0704 16.0388 27.4592 16.2076 27.8102V27.8102Z" stroke="#EB0029" stroke-width="2" stroke-linecap="round" stroke-linejoin="round"/>
</svg>
