<svg width="70" height="70" viewBox="0 0 70 70" fill="none" xmlns="http://www.w3.org/2000/svg">
<path d="M68.8729 31.6119H68.4799C69.0308 30.072 69.0015 28.3841 68.3976 26.8643C67.7936 25.3444 66.6564 24.0968 65.1989 23.355C65.3887 22.7379 65.4853 22.0959 65.4857 21.4503C65.485 20.5524 65.306 19.6635 64.959 18.8353C64.612 18.0071 64.104 17.2561 63.4644 16.6259C62.8248 15.9957 62.0664 15.4987 61.2332 15.164C60.4 14.8292 59.5086 14.6633 58.6108 14.6759C58.678 14.3033 58.7117 13.9254 58.7113 13.5468C58.7095 11.7507 57.9952 10.0287 56.7251 8.75861C55.4551 7.48856 53.733 6.77425 51.9369 6.77246C51.4372 6.77223 50.939 6.82905 50.4522 6.94182C50.149 5.98535 49.6353 5.10899 48.9488 4.37717C48.2623 3.64536 47.4206 3.0767 46.4854 2.71299C45.5503 2.34929 44.5455 2.19979 43.545 2.27549C42.5445 2.35119 41.5736 2.65016 40.7039 3.15042C40.0975 2.18591 39.2564 1.39097 38.2592 0.839989C37.262 0.28901 36.1414 0 35.0021 0C33.8628 0 32.7422 0.28901 31.745 0.839989C30.7478 1.39097 29.9067 2.18591 29.3003 3.15042C28.4305 2.64973 27.4594 2.35042 26.4586 2.27449C25.4578 2.19857 24.4528 2.34797 23.5173 2.7117C22.5819 3.07544 21.7399 3.64425 21.0533 4.3763C20.3666 5.10836 19.8529 5.98502 19.5497 6.94182C19.0629 6.82905 18.5648 6.77223 18.065 6.77246C16.2689 6.77425 14.5468 7.48856 13.2768 8.75861C12.0067 10.0287 11.2924 11.7507 11.2906 13.5468C11.2903 13.9254 11.3239 14.3033 11.3911 14.6759C10.4945 14.6679 9.60512 14.8369 8.77395 15.1732C7.94278 15.5096 7.18616 16.0067 6.54749 16.636C5.90881 17.2654 5.40062 18.0146 5.05206 18.8407C4.7035 19.6668 4.52142 20.5536 4.51625 21.4503C4.5166 22.0959 4.61326 22.7379 4.80304 23.355C3.3455 24.0968 2.2083 25.3444 1.60435 26.8643C1.0004 28.3841 0.971119 30.072 1.52198 31.6119H1.12906C0.829617 31.6119 0.542435 31.7308 0.330695 31.9425C0.118954 32.1543 0 32.4415 0 32.7409V37.2572C0 37.5566 0.118954 37.8438 0.330695 38.0555C0.542435 38.2673 0.829617 38.3862 1.12906 38.3862H2.44442C3.4782 44.0704 5.9866 49.3835 9.71864 53.7938C13.4507 58.2041 18.2755 61.5569 23.7103 63.5169V68.8709C23.7103 69.1704 23.8293 69.4576 24.041 69.6693C24.2528 69.8811 24.5399 70 24.8394 70H45.1625C45.462 70 45.7492 69.8811 45.9609 69.6693C46.1726 69.4576 46.2916 69.1704 46.2916 68.8709V63.5169C51.7264 61.5569 56.5512 58.2041 60.2833 53.7938C64.0153 49.3835 66.5237 44.0704 67.5575 38.3862H68.8729C69.1723 38.3862 69.4595 38.2673 69.6712 38.0555C69.883 37.8438 70.0019 37.5566 70.0019 37.2572V32.7409C70.0019 32.4415 69.883 32.1543 69.6712 31.9425C69.4595 31.7308 69.1723 31.6119 68.8729 31.6119ZM3.38719 29.3537C3.38845 28.3882 3.70162 27.4489 4.28004 26.6757C4.85846 25.9026 5.67118 25.337 6.59712 25.0633C6.75457 25.0152 6.89959 24.9332 7.02203 24.8232C7.14447 24.7131 7.24135 24.5776 7.30589 24.4261C7.37043 24.2747 7.40107 24.1109 7.39566 23.9464C7.39024 23.7818 7.34891 23.6205 7.27455 23.4736C6.94976 22.8483 6.77832 22.1548 6.77438 21.4503C6.77438 20.2525 7.2502 19.1038 8.09716 18.2568C8.94412 17.4098 10.0928 16.934 11.2906 16.934C11.774 16.9416 12.253 17.0278 12.7087 17.1892C12.9219 17.2604 13.1514 17.2664 13.3679 17.2064C13.5845 17.1464 13.7782 17.0231 13.9243 16.8524C14.0704 16.6817 14.1622 16.4713 14.188 16.2481C14.2139 16.0249 14.1725 15.799 14.0693 15.5995C13.7332 14.9671 13.5546 14.263 13.5488 13.5468C13.5456 12.7914 13.7327 12.0474 14.0929 11.3834C14.4531 10.7194 14.9748 10.1568 15.6098 9.74761C16.2448 9.33841 16.9727 9.09577 17.7262 9.04209C18.4797 8.9884 19.2346 9.1254 19.9212 9.44044C20.0835 9.51385 20.2608 9.54784 20.4388 9.53961C20.6167 9.53138 20.7901 9.48117 20.945 9.39308C21.0998 9.30499 21.2315 9.18153 21.3295 9.03278C21.4275 8.88402 21.4889 8.7142 21.5087 8.53718C21.592 7.71404 21.9023 6.93021 22.4049 6.273C22.9075 5.61579 23.5826 5.111 24.3552 4.81486C25.1277 4.51872 25.9673 4.44286 26.7804 4.59572C27.5935 4.74859 28.3482 5.12418 28.9605 5.68066C29.0978 5.80391 29.2631 5.89164 29.4422 5.93618C29.6212 5.98073 29.8084 5.98071 29.9875 5.93615C30.1665 5.89159 30.3319 5.80383 30.4692 5.68056C30.6064 5.55729 30.7114 5.40226 30.7749 5.22903C31.0873 4.35943 31.6605 3.60748 32.4163 3.07591C33.1721 2.54434 34.0736 2.25906 34.9976 2.25906C35.9216 2.25906 36.8231 2.54434 37.5788 3.07591C38.3346 3.60748 38.9079 4.35943 39.2203 5.22903C39.2838 5.40226 39.3887 5.55729 39.526 5.68056C39.6633 5.80383 39.8286 5.89159 40.0077 5.93615C40.1867 5.98071 40.3739 5.98073 40.553 5.93618C40.732 5.89164 40.8974 5.80391 41.0347 5.68066C41.6469 5.12418 42.4016 4.74859 43.2147 4.59572C44.0279 4.44286 44.8674 4.51872 45.64 4.81486C46.4125 5.111 47.0877 5.61579 47.5903 6.273C48.0928 6.93021 48.4031 7.71404 48.4865 8.53718C48.5063 8.7142 48.5677 8.88402 48.6656 9.03278C48.7636 9.18153 48.8954 9.30499 49.0502 9.39308C49.205 9.48117 49.3785 9.53138 49.5564 9.53961C49.7343 9.54784 49.9117 9.51385 50.074 9.44044C50.925 9.04425 51.8789 8.92531 52.8012 9.10041C53.7234 9.2755 54.5674 9.7358 55.214 10.4163C55.8605 11.0968 56.2771 11.9632 56.4048 12.8932C56.5326 13.8232 56.3651 14.7698 55.9259 15.5995C55.8235 15.7985 55.7825 16.0236 55.8083 16.2459C55.834 16.4683 55.9253 16.678 56.0705 16.8484C56.2157 17.0188 56.4083 17.1422 56.6238 17.2029C56.8393 17.2635 57.068 17.2588 57.2808 17.1892C57.7404 17.0264 58.2237 16.9402 58.7113 16.934C59.9091 16.934 61.0578 17.4098 61.9048 18.2568C62.7517 19.1038 63.2275 20.2525 63.2275 21.4503C63.2224 22.153 63.0506 22.8445 62.7262 23.4679C62.6519 23.6148 62.6105 23.7762 62.6051 23.9407C62.5997 24.1053 62.6304 24.269 62.6949 24.4205C62.7594 24.5719 62.8563 24.7074 62.9788 24.8175C63.1012 24.9276 63.2462 25.0095 63.4037 25.0576C64.0558 25.2491 64.6557 25.5867 65.1577 26.0448C65.6598 26.5029 66.0508 27.0694 66.3009 27.7014C66.5511 28.3333 66.6538 29.014 66.6014 29.6916C66.549 30.3692 66.3427 31.0259 65.9983 31.6119H4.00479C3.60166 30.9275 3.38846 30.148 3.38719 29.3537ZM54.195 45.7251V47.4187H45.1625V45.7251C45.1625 45.276 45.341 44.8452 45.6586 44.5276C45.9762 44.21 46.407 44.0315 46.8561 44.0315C47.9042 44.0315 48.9093 43.6152 49.6504 42.8741C50.3915 42.133 50.8078 41.1279 50.8078 40.0798V38.3862H59.8404V40.0798C59.8404 40.529 59.6619 40.9598 59.3443 41.2774C59.0267 41.595 58.5959 41.7734 58.1468 41.7734C57.0987 41.7734 56.0936 42.1898 55.3525 42.9309C54.6114 43.6719 54.195 44.6771 54.195 45.7251ZM48.5497 40.0798C48.5497 40.529 48.3713 40.9598 48.0537 41.2774C47.7361 41.595 47.3053 41.7734 46.8561 41.7734C45.8081 41.7734 44.8029 42.1898 44.0618 42.9309C43.3207 43.6719 42.9044 44.6771 42.9044 45.7251V47.4187H33.8719V45.7251C33.8719 45.276 34.0503 44.8452 34.3679 44.5276C34.6856 44.21 35.1163 44.0315 35.5655 44.0315C36.6136 44.0315 37.6187 43.6152 38.3598 42.8741C39.1009 42.133 39.5172 41.1279 39.5172 40.0798V38.3862H48.5497V40.0798ZM37.2591 40.0798C37.2591 40.529 37.0807 40.9598 36.763 41.2774C36.4454 41.595 36.0147 41.7734 35.5655 41.7734C34.5174 41.7734 33.5123 42.1898 32.7712 42.9309C32.0301 43.6719 31.6138 44.6771 31.6138 45.7251V47.4187H22.5813V45.7251C22.5813 45.276 22.7597 44.8452 23.0773 44.5276C23.3949 44.21 23.8257 44.0315 24.2749 44.0315C25.3229 44.0315 26.3281 43.6152 27.0691 42.8741C27.8102 42.133 28.2266 41.1279 28.2266 40.0798V38.3862H37.2591V40.0798ZM25.9685 40.0798C25.9685 40.529 25.79 40.9598 25.4724 41.2774C25.1548 41.595 24.724 41.7734 24.2749 41.7734C23.2268 41.7734 22.2217 42.1898 21.4806 42.9309C20.7395 43.6719 20.3231 44.6771 20.3231 45.7251V47.4187H11.2906V45.7251C11.2906 45.276 11.4691 44.8452 11.7867 44.5276C12.1043 44.21 12.5351 44.0315 12.9842 44.0315C14.0323 44.0315 15.0374 43.6152 15.7785 42.8741C16.5196 42.133 16.9359 41.1279 16.9359 40.0798V38.3862H25.9685V40.0798ZM14.6778 40.0798C14.6778 40.529 14.4994 40.9598 14.1818 41.2774C13.8642 41.595 13.4334 41.7734 12.9842 41.7734C11.9362 41.7734 10.931 42.1898 10.1899 42.9309C9.44885 43.6719 9.03251 44.6771 9.03251 45.7251V47.4187H8.05587C6.49467 44.5978 5.38383 41.5502 4.76352 38.3862H14.6778V40.0798ZM44.0335 67.7419H25.9685V64.2418C31.8763 65.8977 38.1256 65.8977 44.0335 64.2418V67.7419ZM35.001 63.2256C29.9564 63.237 24.9865 62.007 20.5295 59.6442C16.0725 57.2815 12.2653 53.8584 9.44349 49.6769H60.5584C57.7366 53.8584 53.9294 57.2815 49.4724 59.6442C45.0154 62.007 40.0455 63.237 35.001 63.2256ZM61.9461 47.4187H56.4532V45.7251C56.4532 45.276 56.6316 44.8452 56.9492 44.5276C57.2668 44.21 57.6976 44.0315 58.1468 44.0315C59.1948 44.0315 60.2 43.6152 60.941 42.8741C61.6821 42.133 62.0985 41.1279 62.0985 40.0798V38.3862H65.2384C64.6179 41.5501 63.5071 44.5977 61.9461 47.4187ZM67.7438 36.1281H2.25813V33.87H67.7438V36.1281Z" fill="#E31E24"/>
</svg>
