<svg width="95" height="95" viewBox="0 0 95 95" fill="none" xmlns="http://www.w3.org/2000/svg">
<path d="M42.9389 9.87408C43.5657 10.1368 44.1791 10.4189 44.7925 10.7115C45.0163 10.8146 45.2401 10.9178 45.4707 11.0241C45.9287 11.2354 46.3859 11.4481 46.8425 11.6623C47.7981 12.1098 48.7594 12.5443 49.7206 12.9796C50.063 13.1357 50.4054 13.2918 50.7478 13.4479C51.6595 13.8623 52.5756 14.2658 53.4939 14.6651C56.6898 16.0559 59.8694 17.4838 63.0407 18.9297C65.3711 19.992 67.7086 21.0383 70.0504 22.075C71.0778 22.5308 72.098 23.0001 73.1144 23.48C73.774 23.7743 74.442 24.0403 75.1133 24.3068C75.9458 24.641 76.7695 24.9934 77.5912 25.3533C77.7576 25.4235 77.9239 25.4937 78.0952 25.566C78.2556 25.6366 78.416 25.7073 78.5813 25.7801C78.7244 25.8419 78.8676 25.9037 79.015 25.9674C79.566 26.3114 79.8288 26.6175 80.18 27.1702C80.292 27.7526 80.2872 28.3259 80.2837 28.9175C80.2857 29.0919 80.2876 29.2662 80.2897 29.4458C80.2953 30.0205 80.2955 30.5951 80.2958 31.1699C80.2986 31.5689 80.3018 31.968 80.3053 32.3671C80.3136 33.4163 80.3174 34.4654 80.3203 35.5147C80.324 36.5858 80.332 37.6568 80.3396 38.7279C80.3539 40.8287 80.3634 42.9294 80.37 45.0302C80.5001 45.0941 80.6301 45.1581 80.7641 45.224C80.935 45.3085 81.1058 45.3931 81.2818 45.4802C81.4511 45.5637 81.6203 45.6473 81.7947 45.7333C84.546 47.1624 86.7839 49.5475 88.54 52.0602C88.7395 52.3438 88.7395 52.3438 88.943 52.6332C89.7428 53.8492 90.3341 55.0959 90.8794 56.4421C90.9412 56.5946 91.0031 56.747 91.0669 56.9041C91.9681 59.2229 92.26 61.3937 92.245 63.864C92.2447 64.0112 92.2443 64.1585 92.244 64.3102C92.2326 66.5621 92.0668 68.5792 91.2 70.6802C91.1502 70.8103 91.1003 70.9405 91.049 71.0746C90.3615 72.8669 89.496 74.4523 88.35 76.0002C88.1781 76.2357 88.1781 76.2357 88.0027 76.4759C86.4041 78.5681 84.4935 80.4731 82.27 81.8902C82.1637 81.9587 82.0573 82.0272 81.9478 82.0977C77.6089 84.8477 72.2923 86.0746 67.2051 85.0958C66.5178 84.9415 65.8436 84.7558 65.17 84.5502C65.0429 84.5125 64.9158 84.4748 64.7848 84.436C61.8178 83.5273 59.1595 81.8787 56.9198 79.7438C56.4528 79.362 56.4528 79.362 55.8954 79.4688C55.3041 79.6069 54.79 79.7881 54.2331 80.0288C54.0345 80.1142 53.8359 80.1995 53.6312 80.2875C53.4262 80.3775 53.2212 80.4675 53.01 80.5602C52.8109 80.6473 52.6118 80.7343 52.4066 80.8241C51.7835 81.0983 51.1616 81.3751 50.54 81.6527C50.3179 81.7516 50.0958 81.8506 49.8669 81.9525C48.2088 82.6918 46.5526 83.4353 44.8979 84.1821C44.6966 84.2723 44.6966 84.2723 44.4913 84.3644C44.2022 84.495 43.914 84.6276 43.6264 84.7616C43.4773 84.8302 43.3282 84.8988 43.1745 84.9695C43.0412 85.0317 42.9079 85.0939 42.7706 85.1579C41.7404 85.5496 40.8676 85.4633 39.8495 85.0712C39.2385 84.7869 38.6368 84.4903 38.0357 84.1859C37.2776 83.8108 36.5041 83.4698 35.7319 83.1252C35.5702 83.0526 35.4085 82.9801 35.2419 82.9053C33.6402 82.187 32.0322 81.4833 30.4217 80.7848C28.8679 80.1108 27.3215 79.4226 25.7806 78.7196C23.3383 77.6053 20.8843 76.5178 18.43 75.4302C15.8436 74.2841 13.2588 73.1356 10.6858 71.9596C9.11296 71.2427 7.53076 70.5475 5.94631 69.8567C3.37039 68.7306 3.37039 68.7306 2.85 68.2102C2.81116 67.6694 2.79634 67.1468 2.79791 66.6057C2.79642 66.3536 2.79642 66.3536 2.79489 66.0965C2.79203 65.5301 2.79191 64.9638 2.79178 64.3974C2.79034 63.9926 2.78874 63.5879 2.78699 63.1832C2.78281 62.0813 2.78115 60.9794 2.78018 59.8774C2.77949 59.1895 2.77831 58.5016 2.77695 57.8137C2.7723 55.4152 2.76982 53.0168 2.76915 50.6184C2.76846 48.3804 2.76278 46.1424 2.75482 43.9045C2.74823 41.9851 2.74529 40.0657 2.74516 38.1464C2.74501 36.9991 2.74333 35.8519 2.73794 34.7047C2.73298 33.6256 2.73254 32.5467 2.73559 31.4676C2.73594 31.0713 2.73466 30.6749 2.73164 30.2785C2.72777 29.738 2.72974 29.1977 2.7332 28.6571C2.73069 28.4997 2.72819 28.3423 2.7256 28.1802C2.73744 27.3709 2.7772 27.0712 3.30076 26.4168C3.80919 26.0231 4.2449 25.7906 4.845 25.5641C5.66877 25.2413 6.48301 24.9089 7.29125 24.5488C7.4959 24.4577 7.70054 24.3667 7.91139 24.2729C8.12213 24.1788 8.33287 24.0847 8.55 23.9877C8.77335 23.8882 8.99671 23.7887 9.22683 23.6862C10.7136 23.0233 12.1987 22.3568 13.6826 21.6877C14.6581 21.2479 15.635 20.8115 16.6131 20.3777C18.1308 19.7045 19.6463 19.0263 21.1612 18.3471C21.3401 18.2669 21.3401 18.2669 21.5226 18.1851C23.0059 17.52 24.4886 16.8536 25.9706 16.1858C27.2288 15.619 28.4888 15.0565 29.7504 14.4971C31.2605 13.8268 32.7677 13.15 34.2752 12.4736C35.8888 11.7496 37.5034 11.0276 39.1207 10.3118C40.4838 9.70788 41.4516 9.39336 42.9389 9.87408ZM38.95 13.6802C38.5579 13.8573 38.1647 14.0321 37.7707 14.2049C37.5674 14.295 37.3641 14.3851 37.1546 14.4779C36.8383 14.6179 36.8383 14.6179 36.5156 14.7608C34.7088 15.5622 32.9063 16.3724 31.108 17.1927C29.6188 17.8714 28.1243 18.5374 26.6277 19.1997C25.9571 19.4966 25.287 19.7947 24.6169 20.0927C24.3319 20.2194 24.0469 20.346 23.7619 20.4727C23.5337 20.5741 23.5337 20.5741 23.301 20.6775C21.6244 21.4227 21.6244 21.4227 20.9918 21.7038C20.5575 21.8969 20.1232 22.0899 19.6889 22.2831C18.6623 22.7396 17.6355 23.1957 16.6079 23.6501C16.2573 23.8051 15.9067 23.9603 15.5562 24.1155C15.1166 24.3102 14.6769 24.5045 14.2371 24.6985C13.3812 25.0778 12.5294 25.4585 11.6939 25.881C11.1529 26.1533 10.6223 26.3945 10.0581 26.6121C9.2951 26.9104 8.54132 27.2235 7.79 27.5502C8.22277 27.983 8.55249 28.1085 9.12 28.334C10.121 28.7418 11.1127 29.166 12.1006 29.6046C12.2447 29.6682 12.3888 29.7317 12.5372 29.7972C13.2884 30.1312 14.0313 30.4763 14.7673 30.8425C14.9118 30.9136 15.0562 30.9847 15.2051 31.0579C15.4797 31.1939 15.7531 31.3323 16.0251 31.4736C16.8564 31.8836 17.3515 32.0036 18.24 31.7302C18.7366 31.5321 19.2165 31.3256 19.7006 31.1008C20.0046 30.9627 20.3087 30.8246 20.6128 30.6867C20.779 30.6108 20.9452 30.535 21.1164 30.4568C22.1416 29.9917 23.172 29.5381 24.2012 29.0821C26.3339 28.1349 28.4629 27.1799 30.59 26.2202C32.8246 25.2126 35.0611 24.2096 37.3018 23.2156C38.354 22.7489 39.4061 22.2818 40.4581 21.8146C40.672 21.7197 40.8858 21.6249 41.1061 21.5271C42.2557 21.0166 43.4029 20.5012 44.5475 19.9796C45.2649 19.6534 45.9843 19.3321 46.7044 19.0121C46.8487 18.9479 46.9931 18.8837 47.1418 18.8176C48.4595 18.2333 49.7831 17.6634 51.11 17.1002C50.8435 16.5673 50.5232 16.5073 49.9819 16.269C49.7265 16.1551 49.7265 16.1551 49.4661 16.0389C48.9638 15.8267 48.4603 15.6251 47.9527 15.4266C46.6123 14.8937 45.3157 14.2652 44.0151 13.6427C41.9255 12.665 41.0003 12.6535 38.95 13.6802ZM53.1644 19.1308C52.9128 19.2557 52.661 19.3798 52.4088 19.5034C52.266 19.5739 52.1231 19.6444 51.9759 19.717C50.9975 20.1866 50.0012 20.617 49.0081 21.0546C47.3894 21.771 45.7736 22.493 44.1631 23.2277C42.8286 23.8364 41.4916 24.439 40.1504 25.0329C38.7667 25.646 37.3859 26.2656 36.005 26.8852C34.2461 27.6742 32.4867 28.4619 30.7243 29.2431C30.0187 29.556 29.3138 29.8707 28.6091 30.1857C26.1144 31.2996 23.6142 32.3948 21.09 33.4402C21.8165 34.0629 22.6582 34.4097 23.5244 34.794C23.6729 34.8623 23.8215 34.9306 23.9745 35.001C25.4624 35.6725 25.4624 35.6725 27.0535 35.5911C27.1977 35.5161 27.342 35.4412 27.4906 35.364C27.6694 35.2755 27.8482 35.1871 28.0324 35.096C28.2494 34.9885 28.4664 34.881 28.69 34.7702C29.2935 34.4924 29.9003 34.2218 30.5069 33.9508C30.8386 33.8017 31.1704 33.6525 31.5021 33.5033C33.3367 32.6798 35.1729 31.8599 37.017 31.058C38.7106 30.3212 40.3917 29.5578 42.0724 28.7919C44.66 27.6127 47.2565 26.4553 49.8612 25.3145C51.2582 24.7008 52.6462 24.0696 54.0312 23.4296C55.9529 22.5418 57.8925 21.7058 59.85 20.9002C59.2106 20.2608 58.3464 20.0043 57.5225 19.6533C57.3435 19.5751 57.1644 19.4968 56.98 19.4162C55.0864 18.5883 55.0864 18.5883 53.1644 19.1308ZM62.3549 22.7408C62.2116 22.8101 62.0683 22.8794 61.9207 22.9507C61.6893 23.0643 61.6893 23.0643 61.4531 23.1802C61.1225 23.3396 60.7917 23.4987 60.4608 23.6574C60.2938 23.7376 60.1267 23.8178 59.9546 23.9004C59.2597 24.2299 58.5586 24.5443 57.855 24.8546C57.651 24.9446 57.651 24.9446 57.4429 25.0365C57.1466 25.1671 56.8502 25.2977 56.5538 25.4281C55.5378 25.876 54.5234 26.3274 53.5087 26.7783C53.2872 26.8767 53.0657 26.9752 52.8374 27.0765C51.5635 27.6429 50.2908 28.2119 49.02 28.7852C47.5615 29.4431 46.1004 30.095 44.6381 30.7446C44.4208 30.8411 44.2035 30.9376 43.9796 31.0371C42.8963 31.5182 41.8127 31.9988 40.729 32.4791C38.1099 33.6406 35.4959 34.8129 32.8869 35.9969C32.766 36.0517 32.6451 36.1065 32.5205 36.1629C32.1927 36.3115 31.8649 36.4603 31.5371 36.6091C31.0353 36.8313 30.5311 37.0404 30.02 37.2402C30.02 37.3656 30.02 37.491 30.02 37.6202C32.978 38.9559 32.978 38.9559 35.9446 40.2724C36.7196 40.6139 37.4876 40.9664 38.2516 41.3319C38.4215 41.4118 38.5913 41.4918 38.7663 41.5742C39.0942 41.7288 39.4208 41.8861 39.746 42.0462C40.7035 42.494 41.3133 42.6659 42.37 42.3702C43.002 42.1249 43.002 42.1249 43.6406 41.8002C43.8913 41.6789 44.1422 41.558 44.3932 41.4373C44.593 41.3406 44.593 41.3406 44.7968 41.242C45.5536 40.8811 46.3192 40.5397 47.0844 40.1971C47.2465 40.1243 47.4087 40.0515 47.5758 39.9765C49.0307 39.3241 50.4876 38.6763 51.9451 38.0298C52.9297 37.5929 53.9139 37.1552 54.8981 36.7177C56.2339 36.1239 57.5698 35.5302 58.9059 34.9372C61.0998 33.9633 63.292 32.986 65.4802 31.9996C72.0005 29.0609 72.0005 29.0609 75.05 27.7402C74.5043 27.3012 73.9769 27.0062 73.3333 26.7323C73.148 26.6527 72.9628 26.5731 72.7719 26.4911C72.5792 26.4095 72.3866 26.328 72.1881 26.244C70.3556 25.4612 68.5398 24.6491 66.7316 23.8118C66.5523 23.7291 66.373 23.6465 66.1883 23.5613C65.8198 23.3914 65.4517 23.2207 65.0839 23.0492C64.8179 22.9271 64.8179 22.9271 64.5466 22.8024C64.3877 22.7289 64.2289 22.6553 64.0653 22.5795C63.3832 22.3178 62.9826 22.4333 62.3549 22.7408ZM5.7 30.0202C5.7 42.0586 5.7 54.097 5.7 66.5002C8.90716 67.9785 8.90716 67.9785 12.16 69.3502C12.4879 69.4925 12.8149 69.6372 13.1397 69.7866C13.3044 69.862 13.4692 69.9374 13.6389 70.0151C13.8944 70.1327 13.8944 70.1327 14.155 70.2527C14.5263 70.4225 14.8976 70.5922 15.269 70.7618C15.5422 70.8867 15.5422 70.8867 15.8209 71.014C16.5423 71.3423 17.266 71.6653 17.9906 71.9865C18.1919 72.0757 18.1919 72.0757 18.3972 72.1667C18.6871 72.2952 18.9771 72.4236 19.2671 72.552C22.0522 73.785 24.8356 75.021 27.6069 76.2849C28.7671 76.8136 29.9298 77.3361 31.0962 77.8508C31.8985 78.2054 32.6987 78.5643 33.497 78.928C33.9882 79.1517 34.4799 79.3744 34.9715 79.5972C35.2137 79.7072 35.4558 79.8177 35.6976 79.9286C36.041 80.0861 36.3852 80.2419 36.7294 80.3977C36.9285 80.4885 37.1276 80.5793 37.3328 80.6729C38.1683 81.0076 39.0378 81.2516 39.9 81.5102C39.9 69.5345 39.9 57.5588 39.9 45.2202C37.5642 44.0423 37.5642 44.0423 35.1953 43.0033C34.4341 42.6902 33.6815 42.3598 32.9294 42.0258C32.7856 41.962 32.6419 41.8982 32.4938 41.8325C31.2993 41.2989 30.1157 40.7433 28.9381 40.1735C28.2741 39.8293 28.2741 39.8293 27.55 39.7102C27.5483 39.9832 27.5483 39.9832 27.5466 40.2618C27.5358 41.9756 27.5219 43.6894 27.5052 45.4032C27.4967 46.2843 27.4893 47.1654 27.4842 48.0466C27.4792 48.8967 27.4716 49.7467 27.462 50.5967C27.4588 50.9213 27.4566 51.2459 27.4555 51.5705C27.4536 52.0246 27.4483 52.4785 27.4422 52.9325C27.4426 53.1346 27.4426 53.1346 27.443 53.3408C27.4325 53.8832 27.4192 54.2543 27.1066 54.7079C26.5462 55.0659 26.1104 54.9838 25.46 54.9102C24.8393 54.6991 24.2568 54.4231 23.6669 54.1383C23.3293 53.9806 22.9916 53.823 22.6538 53.6656C22.4866 53.5868 22.3194 53.508 22.1472 53.4268C21.4444 53.0999 20.7334 52.7935 20.0212 52.4877C19.0171 52.0537 18.0338 51.5915 17.0659 51.0813C16.7262 50.8935 16.7262 50.8935 16.34 50.9202C16.0978 50.1738 16.1169 49.4198 16.111 48.6437C16.1091 48.4917 16.1072 48.3396 16.1053 48.1829C16.0993 47.6812 16.0946 47.1796 16.0899 46.6779C16.086 46.3296 16.082 45.9814 16.0779 45.6332C16.0674 44.7174 16.058 43.8016 16.0489 42.8857C16.0393 41.9509 16.0287 41.0161 16.0183 40.0813C15.9978 38.2476 15.9786 36.4139 15.96 34.5802C15.4835 34.3405 15.0069 34.1012 14.5301 33.862C14.3972 33.7951 14.2643 33.7282 14.1274 33.6593C12.909 33.0486 11.675 32.4767 10.4305 31.9215C10.0766 31.7635 9.72356 31.6038 9.37049 31.4441C9.13884 31.3402 8.90716 31.2364 8.67543 31.1327C8.47289 31.0419 8.27036 30.9511 8.06169 30.8575C7.28893 30.5405 6.49238 30.2843 5.7 30.0202ZM75.8924 30.4039C75.7123 30.4875 75.5322 30.571 75.3467 30.6571C75.1508 30.7487 74.9549 30.8402 74.7531 30.9346C73.1017 31.6995 71.4449 32.4494 69.7775 33.179C68.3651 33.7973 66.9549 34.4199 65.55 35.0552C64.1289 35.6976 62.7031 36.3286 61.275 36.9552C59.662 37.663 58.0526 38.3782 56.4471 39.1029C55.4571 39.5497 54.4659 39.9938 53.4731 40.4346C53.27 40.5249 53.27 40.5249 53.0627 40.617C52.1931 41.0032 51.3229 41.3879 50.4524 41.772C50.0106 41.9674 49.5687 42.1629 49.1269 42.3583C48.9258 42.4468 48.7247 42.5353 48.5175 42.6265C46.6403 43.4576 44.7976 44.3403 42.94 45.2202C42.94 57.2586 42.94 69.297 42.94 81.7002C45.4742 80.6609 45.4742 80.6609 47.9646 79.5449C51.5858 77.8576 55.2527 76.2635 58.9113 74.6595C60.0011 74.181 61.087 73.6949 62.1699 73.2008C63.1276 72.7661 64.0897 72.3413 65.0512 71.9152C66.9251 71.0835 68.7975 70.2485 70.6681 69.4096C70.879 69.315 71.0898 69.2205 71.3071 69.1231C73.2521 68.2504 75.1959 67.375 77.14 66.5002C77.2027 60.0421 77.2654 53.584 77.33 46.9302C72.1566 45.2057 67.5056 45.5312 62.6043 47.8097C61.1497 48.5499 59.9193 49.4481 58.71 50.5402C58.4664 50.757 58.4664 50.757 58.2179 50.9781C56.9161 52.2016 56.0083 53.5776 55.1 55.1002C55.2254 55.1629 55.3508 55.2256 55.48 55.2902C55.8545 55.167 55.8545 55.167 56.2667 54.9629C56.4232 54.892 56.5797 54.8211 56.741 54.748C57.0698 54.5959 57.3979 54.442 57.7251 54.2864C58.9326 53.7446 58.9326 53.7446 59.752 53.8778C60.23 54.1502 60.23 54.1502 60.61 54.7202C60.6041 55.3815 60.6041 55.3815 60.42 56.0502C59.9866 56.4042 59.9866 56.4042 59.375 56.6796C59.2623 56.7312 59.1497 56.7827 59.0336 56.8359C58.6119 57.0246 58.1865 57.2026 57.76 57.3802C57.5709 57.4606 57.3818 57.541 57.187 57.6238C56.5562 57.8908 55.9236 58.153 55.29 58.4133C54.9805 58.5415 54.9805 58.5415 54.6647 58.6722C54.3688 58.7906 54.3688 58.7906 54.0669 58.9113C53.8908 58.9825 53.7147 59.0536 53.5332 59.1269C52.9325 59.3029 52.4923 59.3598 51.87 59.2802C51.0659 58.7193 50.7731 57.8675 50.4123 56.9898C50.3502 56.8418 50.288 56.6937 50.2239 56.5412C50.0933 56.2289 49.9637 55.9162 49.835 55.6031C49.6382 55.1257 49.4373 54.6502 49.236 54.1747C49.1093 53.8703 48.9829 53.5657 48.8567 53.2611C48.7968 53.1197 48.7368 52.9784 48.675 52.8327C48.3541 52.0428 48.1616 51.4085 48.26 50.5402C48.5687 50.089 48.5687 50.089 49.02 49.7802C49.6802 49.7128 50.0999 49.7602 50.73 49.9702C50.9185 50.4586 50.9185 50.4586 51.11 51.1102C51.2028 51.3562 51.2984 51.6011 51.3965 51.845C51.4718 52.0323 51.4718 52.0323 51.5486 52.2235C51.5998 52.3499 51.651 52.4762 51.7037 52.6065C51.7564 52.7372 51.8091 52.868 51.8633 53.0028C51.9919 53.322 52.1209 53.6411 52.25 53.9602C52.7736 53.4861 53.111 52.9537 53.485 52.3571C56.5325 47.7327 61.1039 44.7746 66.4265 43.41C67.9351 43.1113 69.4088 43.0888 70.9412 43.0827C71.2994 43.0768 71.2994 43.0768 71.6649 43.0708C73.6083 43.0629 75.1588 43.3506 77.14 43.7002C77.14 39.1858 77.14 34.6714 77.14 30.0202C76.6425 30.0202 76.3439 30.1928 75.8924 30.4039ZM19 35.9102C19 40.2365 19 44.5628 19 49.0202C20.5048 49.6786 20.5048 49.6786 22.04 50.3502C23.2512 50.9083 23.2512 50.9083 23.7426 51.1391C24.1186 51.3245 24.1186 51.3245 24.51 51.3002C24.5727 47.0366 24.6354 42.773 24.7 38.3802C23.7595 37.9413 22.819 37.5024 21.85 37.0502C20.4606 36.3971 20.4606 36.3971 19.8572 36.1128C19.4081 35.8855 19.4081 35.8855 19 35.9102ZM80.18 48.2602C80.1797 48.5033 80.1795 48.7463 80.1792 48.9968C80.176 51.2865 80.1679 53.5761 80.1549 55.8658C80.1484 57.043 80.1436 58.2201 80.1428 59.3973C80.142 60.5332 80.1366 61.669 80.128 62.8049C80.1256 63.2384 80.1248 63.6719 80.1256 64.1055C80.1266 64.7124 80.1216 65.319 80.1153 65.9259C80.1169 66.1055 80.1186 66.285 80.1203 66.4701C80.1051 67.3336 80.0848 67.7089 79.5381 68.4081C79.0352 68.7838 78.5999 69.017 78.0135 69.2374C77.1339 69.582 76.2674 69.9426 75.4055 70.3299C75.2323 70.4076 75.2323 70.4076 75.0557 70.4869C74.7014 70.6461 74.3472 70.8056 73.9931 70.9652C73.7558 71.0719 73.5184 71.1785 73.281 71.2851C72.0646 71.8316 70.8497 72.3813 69.636 72.9337C68.9 73.2685 68.1634 73.6017 67.4262 73.934C67.2683 74.0051 67.1104 74.0763 66.9477 74.1497C65.3832 74.8531 63.8125 75.5422 62.2397 76.227C61.1736 76.6934 60.1254 77.1789 59.09 77.7102C61.9117 80.7089 66.3315 82.0548 70.353 82.1935C74.9762 82.2353 79.0492 81.019 82.65 78.0902C82.8094 77.9641 82.9689 77.8379 83.1332 77.708C86.4033 74.9651 88.5976 70.5274 89.11 66.3102C89.4153 60.9459 88.2275 56.2627 84.74 52.0602C84.6501 51.9404 84.5602 51.8207 84.4676 51.6973C83.3699 50.3087 81.8387 49.2332 80.37 48.2602C80.3073 48.2602 80.2446 48.2602 80.18 48.2602Z" fill="#EB0029"/>
</svg>
