<svg width="71" height="71" viewBox="0 0 71 71" fill="none" xmlns="http://www.w3.org/2000/svg">
<path d="M63.9822 26.3386C57.2683 24.0977 48.9425 25.3951 40.5132 29.9948C40.4836 29.9801 40.4689 29.9506 40.4393 29.9358C41.4449 26.8694 43.2195 23.2722 45.0236 20.7069C46.532 18.5692 48.8242 17.036 51.4713 16.4021L55.5824 15.429C56.662 15.1637 57.5345 14.3823 57.9338 13.3503C58.3183 12.3331 58.2 11.2126 57.5789 10.3133C52.6692 3.23682 41.578 -2.35066 32.1874 0.995932C29.5255 1.93947 27.3665 4.1951 26.42 6.99621C24.1722 13.6894 25.4736 21.9895 30.0875 30.3929C30.0727 30.4224 30.0431 30.4371 30.0283 30.4666C26.9524 29.4641 23.3441 27.695 20.7709 25.8963C18.6266 24.3926 17.0886 22.1075 16.4527 19.4685L15.4767 15.3701C15.2105 14.2938 14.4267 13.424 13.3916 13.026C12.3712 12.6427 11.2473 12.7606 10.3452 13.3798C3.24682 18.2744 -2.35792 29.3314 0.99901 38.693C1.94546 41.3467 4.20806 43.4991 7.01783 44.4427C9.17691 45.1651 11.4839 45.5189 13.9239 45.5189C19.085 45.5189 24.7637 43.9119 30.5016 40.7865C30.5311 40.8012 30.5459 40.8307 30.5755 40.8454C29.5699 43.9119 27.7953 47.5091 25.9912 50.0744C24.4828 52.2121 22.1906 53.7453 19.5435 54.3792L15.4323 55.3523C14.3528 55.6176 13.4803 56.399 13.081 57.431C12.6965 58.4482 12.8148 59.5834 13.4359 60.468C17.34 66.0997 25.163 70.7879 32.9121 70.7879C34.9085 70.7879 36.9049 70.4783 38.8126 69.8001C41.4745 68.8566 43.6335 66.6009 44.58 63.7998C46.8278 57.1066 45.5264 48.8065 40.9125 40.4032C40.9273 40.3737 40.9569 40.3589 40.9717 40.3294C44.0476 41.332 47.6412 43.1011 50.2291 44.8997C52.3734 46.4034 53.9114 48.6886 54.5473 51.3275L55.5233 55.426C55.7069 56.1564 56.1293 56.805 56.7238 57.2695C57.3183 57.734 58.051 57.9879 58.8063 57.9912C59.457 57.9912 60.1076 57.7995 60.6548 57.4162C67.7532 52.5217 73.3579 41.4646 70.001 32.103C69.0545 29.4346 66.8067 27.2822 63.9822 26.3386ZM31.0635 35.3906C31.0635 32.9581 33.0599 30.9678 35.5 30.9678C37.9401 30.9678 39.9365 32.9581 39.9365 35.3906C39.9365 37.8232 37.9401 39.8135 35.5 39.8135C33.0599 39.8135 31.0635 37.8232 31.0635 35.3906ZM29.2298 7.93974C29.8953 5.97896 31.3741 4.41624 33.193 3.76756C41.0012 0.995933 50.8502 5.77257 55.1536 11.9792C55.2275 12.0972 55.2127 12.2151 55.1832 12.2888C55.1536 12.3478 55.0796 12.51 54.9022 12.5542L50.8058 13.5272C47.4489 14.3381 44.5504 16.2841 42.6279 19.0115C40.7794 21.621 38.9604 25.2329 37.8513 28.4174C37.0823 28.1815 36.3134 28.0193 35.5 28.0193C34.4352 28.0193 33.4296 28.2552 32.5276 28.6532C28.4608 21.0902 27.2777 13.7631 29.2298 7.93974ZM7.96428 41.6416C5.99744 40.9781 4.42988 39.5039 3.7792 37.6905C0.99901 29.9064 5.7904 20.0877 12.0163 15.7976C12.1346 15.7239 12.2529 15.7386 12.3268 15.7681C12.386 15.7976 12.5486 15.8713 12.593 16.0482L13.569 20.132C14.3824 23.4785 16.3344 26.3681 19.0703 28.2847C21.6878 30.1275 25.3109 31.9409 28.5052 33.0466C28.2685 33.8132 28.1059 34.5798 28.1059 35.3906C28.1059 36.4521 28.3425 37.4546 28.7418 38.3539C21.1554 42.4082 13.8056 43.5876 7.96428 41.6416ZM41.7702 62.8416C41.1047 64.8023 39.6259 66.3651 37.807 67.0137C29.9988 69.7854 20.1498 65.0087 15.8464 58.8021C15.8169 58.7539 15.7989 58.6996 15.7937 58.6433C15.7886 58.5871 15.7965 58.5304 15.8168 58.4777C15.8464 58.4187 15.9204 58.2566 16.0978 58.2123L20.1942 57.2393C23.5511 56.4285 26.4496 54.4824 28.3721 51.755C30.2206 49.1456 32.0395 45.5336 33.1487 42.3492C33.9177 42.5998 34.6866 42.762 35.5 42.762C36.5648 42.762 37.5704 42.5261 38.4724 42.1281C42.5392 49.6911 43.7223 57.0182 41.7702 62.8416ZM58.9837 54.969C58.9354 54.9984 58.8809 55.0163 58.8245 55.0215C58.7681 55.0266 58.7113 55.0187 58.6584 54.9984C58.5992 54.969 58.4366 54.8952 58.3922 54.7183L57.4162 50.6346C56.6028 47.288 54.6508 44.3984 51.915 42.4819C49.2826 40.639 45.6743 38.8257 42.4801 37.72C42.7315 36.9681 42.8941 36.2015 42.8941 35.3906C42.8941 34.3292 42.6575 33.3267 42.2582 32.4274C49.8446 28.3731 57.1944 27.1937 63.0357 29.1397C65.0026 29.8032 66.5701 31.2774 67.2208 33.0908C70.001 40.8749 65.2096 50.6936 58.9837 54.969Z" fill="#EB0029"/>
</svg>
