<svg width="23" height="23" viewBox="0 0 23 23" fill="none" xmlns="http://www.w3.org/2000/svg">
<path d="M22.1524 3.10134C22.1524 1.06509 16.5802 0 11.0762 0C5.57223 0 0 1.06509 0 3.10134C0 3.563 0.288868 3.97415 0.795716 4.33479L8.41793 14.765V22.5295L8.4454 23H8.88845L9.09092 22.992L13.7345 18.3484V14.765L21.3563 4.33479C21.8636 3.97415 22.1524 3.563 22.1524 3.10134ZM11.0762 0.886098C17.2966 0.886098 21.2664 2.19797 21.2664 3.10134C21.2664 4.00472 17.2966 5.31659 11.0762 5.31659C4.85582 5.31659 0.886098 4.00472 0.886098 3.10134C0.886098 2.19797 4.85582 0.886098 11.0762 0.886098Z" fill="#666666"/>
</svg>
