<svg width="95" height="95" viewBox="0 0 95 95" fill="none" xmlns="http://www.w3.org/2000/svg">
<path d="M13.4394 13.8879C13.8735 13.8861 14.3075 13.8837 14.7416 13.8808C15.9146 13.8748 17.0875 13.8771 18.2605 13.8813C19.4916 13.8847 20.7228 13.8816 21.9539 13.8795C24.1533 13.8769 26.3527 13.881 28.552 13.8878C30.5412 13.8937 32.5303 13.8927 34.5195 13.8866C36.836 13.8794 39.1524 13.8768 41.4689 13.8807C42.6927 13.8828 43.9165 13.8831 45.1403 13.8787C46.2915 13.8748 47.4425 13.8776 48.5936 13.8852C49.0144 13.887 49.4352 13.8865 49.8559 13.8835C52.5085 13.8667 54.6561 13.9839 56.7272 15.8226C58.1506 17.2721 58.7248 18.9065 58.7099 20.9C58.8176 20.8993 58.9254 20.8986 59.0364 20.8978C61.666 20.881 64.2956 20.8685 66.9253 20.8606C68.197 20.8567 69.4687 20.8513 70.7404 20.8426C71.9687 20.8344 73.1969 20.8298 74.4252 20.8279C74.8928 20.8265 75.3604 20.8237 75.8279 20.8196C76.4851 20.8141 77.142 20.8133 77.7992 20.8137C77.9907 20.811 78.1821 20.8082 78.3794 20.8054C81.0184 20.8206 82.8312 21.9772 84.656 23.7789C84.7904 23.9111 84.9248 24.0434 85.0633 24.1796C85.3466 24.4594 85.6294 24.7397 85.9117 25.0205C86.3384 25.4435 86.769 25.8623 87.1999 26.2812C87.4763 26.5552 87.7526 26.8294 88.0285 27.1039C88.1552 27.2259 88.2819 27.3479 88.4125 27.4737C90.2785 29.3572 90.9875 31.1693 90.998 33.7591C90.9951 34.0914 90.9921 34.4237 90.989 34.756C90.9905 35.1123 90.9925 35.4687 90.9951 35.8251C91.0003 36.7861 90.9972 37.7469 90.9923 38.708C90.9882 39.7172 90.9908 40.7265 90.9923 41.7358C90.9939 43.4297 90.99 45.1235 90.9828 46.8174C90.9747 48.7719 90.9754 50.7263 90.9807 52.6808C90.9857 54.5666 90.9842 56.4524 90.9798 58.3383C90.9781 59.1384 90.9787 59.9384 90.9811 60.7385C90.9836 61.6815 90.9805 62.6243 90.9732 63.5672C90.9714 63.912 90.9715 64.2567 90.9737 64.6014C90.9851 66.5897 90.8947 68.0618 89.6799 69.73C89.5912 69.8591 89.5025 69.9882 89.4111 70.1212C88.405 71.5268 86.5825 72.4188 84.9299 72.77C84.2361 72.8119 83.5464 72.8061 82.8518 72.7937C82.6675 72.792 82.4832 72.7903 82.2933 72.7885C81.8421 72.7841 81.391 72.7779 80.9399 72.77C80.9154 72.972 80.8909 73.1741 80.8657 73.3823C80.5327 75.4464 79.156 77.6864 77.5006 78.9695C76.6048 79.5836 75.6704 80.1342 74.6699 80.56C74.5144 80.6278 74.3588 80.6957 74.1986 80.7656C72.0033 81.3381 68.9839 81.3463 66.9482 80.2713C66.8002 80.1784 66.6523 80.0856 66.4999 79.99C66.348 79.903 66.1962 79.8161 66.0397 79.7265C63.8813 78.4046 62.4279 76.5197 61.6445 74.12C61.5599 73.72 61.5599 73.72 61.5599 72.77C52.2803 72.77 43.0007 72.77 33.4399 72.77C33.3772 73.2716 33.3145 73.7732 33.2499 74.29C32.8488 75.8083 32.018 76.944 30.9699 78.09C30.8472 78.2254 30.7245 78.3609 30.5981 78.5004C28.6664 80.4173 26.4696 81.0659 23.8093 81.0825C22.0383 81.0556 20.563 80.8743 18.9999 79.99C18.7001 79.8254 18.7001 79.8254 18.3943 79.6575C18.2179 79.5164 18.0416 79.3753 17.8599 79.23C17.6442 79.0647 17.6442 79.0647 17.4242 78.896C15.7873 77.5538 14.6172 75.7791 14.0599 73.72C14.0541 73.4034 14.0532 73.0866 14.0599 72.77C13.9452 72.7749 13.8305 72.7799 13.7124 72.785C9.43047 72.9463 9.43047 72.9463 7.59989 71.82C7.45686 71.733 7.31382 71.6461 7.16646 71.5565C6.21253 70.9069 5.55781 70.1254 4.93989 69.16C4.85559 69.0355 4.77129 68.9111 4.68443 68.7829C3.60652 66.8705 3.85396 64.639 3.86094 62.5146C3.85903 62.0506 3.85672 61.5866 3.85404 61.1227C3.84872 59.9967 3.84785 58.8707 3.8493 57.7448C3.85041 56.8287 3.84979 55.9127 3.84797 54.9966C3.84772 54.8658 3.84746 54.7351 3.8472 54.6003C3.84668 54.3346 3.84615 54.0688 3.84563 53.8031C3.84096 51.3152 3.84239 48.8273 3.84574 46.3395C3.8486 44.0684 3.84401 41.7974 3.83585 39.5263C3.82752 37.189 3.82414 34.8517 3.82612 32.5143C3.82714 31.2042 3.82627 29.8942 3.82023 28.5841C3.81462 27.3516 3.81604 26.1192 3.82208 24.8867C3.82323 24.4359 3.82213 23.9851 3.81856 23.5343C3.80006 21.0073 3.86035 19.0433 5.31989 16.91C5.46547 16.6884 5.46547 16.6884 5.61399 16.4624C7.61582 13.8201 10.4356 13.8668 13.4394 13.8879ZM8.07489 18.3231C7.35446 19.2257 7.1724 20.0676 7.16698 21.2111C7.16588 21.335 7.16478 21.4589 7.16365 21.5865C7.16043 22.0013 7.15988 22.4161 7.15931 22.831C7.15752 23.1336 7.15557 23.4362 7.15347 23.7388C7.14829 24.5485 7.14536 25.3581 7.14291 26.1678C7.14026 26.9279 7.13558 27.6879 7.13106 28.4479C7.11905 30.67 7.11029 32.8922 7.10114 35.1143C7.07763 40.0794 7.05412 45.0445 7.02989 50.16C23.0811 50.16 39.1323 50.16 55.6699 50.16C55.6856 45.2067 55.7012 40.2534 55.7174 35.15C55.7243 33.5866 55.7312 32.0233 55.7384 30.4126C55.7409 29.0098 55.7409 29.0098 55.7424 27.607C55.7431 26.9827 55.746 26.3585 55.7501 25.7343C55.7554 24.9371 55.7569 24.14 55.7558 23.3429C55.7561 23.0509 55.7576 22.7589 55.7605 22.4669C55.7782 20.6282 55.7374 19.2763 54.3874 17.8956C53.1131 17.0379 51.9986 16.8254 50.5002 16.8363C50.2454 16.8348 50.2454 16.8348 49.9854 16.8332C49.4195 16.8305 48.8537 16.8318 48.2878 16.8332C47.8807 16.8321 47.4736 16.8308 47.0666 16.8292C45.9631 16.8258 44.8596 16.8261 43.7561 16.8271C42.8339 16.8277 41.9118 16.8266 40.9897 16.8254C38.8138 16.8228 36.6378 16.8231 34.4619 16.8252C32.2191 16.8274 29.9765 16.8247 27.7337 16.8196C25.8062 16.8154 23.8788 16.8142 21.9513 16.8153C20.801 16.8159 19.6507 16.8155 18.5003 16.8122C17.4183 16.8092 16.3364 16.81 15.2544 16.8136C14.8581 16.8143 14.4618 16.8137 14.0655 16.8117C10.7866 16.7068 10.7866 16.7068 8.07489 18.3231ZM58.7099 23.94C58.7099 39.0507 58.7099 54.1614 58.7099 69.73C59.6504 69.73 60.5909 69.73 61.5599 69.73C61.5952 69.5027 61.6304 69.2754 61.6668 69.0412C61.857 68.1754 62.1987 67.4081 62.593 66.6187C62.6786 66.4458 62.6786 66.4458 62.766 66.2694C63.0654 65.6869 63.3663 65.2389 63.8399 64.79C63.8399 64.6646 63.8399 64.5392 63.8399 64.41C63.9535 64.3583 64.0672 64.3066 64.1843 64.2534C64.5902 64.0352 64.8443 63.817 65.1699 63.4956C67.1197 61.7769 69.857 61.3932 72.3575 61.5237C74.7228 61.7318 76.9283 62.8514 78.5419 64.5888C79.7691 66.1472 80.4448 67.8235 80.9399 69.73C81.4783 69.7455 82.0163 69.7567 82.5549 69.7656C82.7053 69.7704 82.8557 69.7751 83.0106 69.7801C84.3507 69.7965 85.5663 69.5365 86.6043 68.6375C86.7074 68.5522 86.8105 68.467 86.9167 68.3792C87.7196 67.3954 87.8626 66.3818 87.8356 65.147C87.8347 65.0055 87.8339 64.864 87.8331 64.7182C87.8299 64.271 87.8228 63.824 87.8155 63.3768C87.8127 63.0717 87.8101 62.7665 87.8077 62.4614C87.8015 61.7175 87.7917 60.9738 87.7799 60.23C87.6207 60.2273 87.6207 60.2273 87.4582 60.2246C86.9676 60.2143 86.4772 60.1984 85.9868 60.1825C85.8199 60.1798 85.6529 60.1771 85.481 60.1743C83.6798 60.1078 82.4646 59.5019 81.1299 58.33C81.0045 58.33 80.8791 58.33 80.7499 58.33C80.7029 58.2085 80.6558 58.087 80.6074 57.9618C80.3944 57.4092 80.3944 57.4092 80.1754 57.023C79.4618 55.6488 79.3461 54.2193 79.7353 52.7153C80.3404 51.1987 81.3717 50.0172 82.8599 49.3413C83.5371 49.0942 84.1657 48.9921 84.8854 48.9599C85.1389 48.9479 85.1389 48.9479 85.3975 48.9357C85.5723 48.9283 85.7472 48.9208 85.9274 48.9131C86.1052 48.9049 86.283 48.8967 86.4662 48.8882C86.9041 48.8681 87.342 48.8487 87.7799 48.83C87.7975 46.6762 87.811 44.5225 87.8193 42.3687C87.8232 41.3685 87.8286 40.3683 87.8372 39.3682C87.8455 38.4023 87.85 37.4365 87.852 36.4707C87.8534 36.1028 87.8561 35.735 87.8602 35.3672C87.8658 34.8505 87.8665 34.334 87.8662 33.8174C87.8703 33.5911 87.8703 33.5911 87.8745 33.3602C87.8627 31.75 87.1743 30.6625 86.0818 29.5093C85.9233 29.3401 85.7648 29.1709 85.6016 28.9965C84.6772 28.0436 83.7251 27.1476 82.7263 26.2734C82.2707 25.8408 81.8947 25.3855 81.5099 24.89C75.9427 19.7067 66.3165 23.94 58.7099 23.94ZM82.9824 52.8437C82.53 53.5869 82.396 54.2322 82.4599 55.1C82.7419 55.9191 83.2185 56.5717 83.9799 57C84.7521 57.2315 85.5085 57.2109 86.3074 57.2018C86.7933 57.1979 87.2792 57.194 87.7799 57.19C87.7799 55.4344 87.7799 53.6788 87.7799 51.87C87.2352 51.8582 86.6905 51.8465 86.1293 51.8343C85.9594 51.8292 85.7895 51.824 85.6144 51.8186C84.4535 51.8065 83.8396 52.0342 82.9824 52.8437ZM7.02989 53.2C7.09259 54.0151 7.15529 54.8302 7.21989 55.67C23.2084 55.67 39.1969 55.67 55.6699 55.67C55.7326 54.8549 55.7953 54.0398 55.8599 53.2C39.746 53.2 23.6321 53.2 7.02989 53.2ZM7.02989 58.71C6.50309 64.1744 6.50309 64.1744 8.50239 68.7443C9.80572 69.6216 10.9129 69.8143 12.4449 69.7656C12.6012 69.763 12.7574 69.7605 12.9184 69.7578C13.299 69.7512 13.6794 69.7409 14.0599 69.73C14.1037 69.5715 14.1476 69.413 14.1927 69.2498C15.0195 66.3971 16.3701 64.1431 19.0006 62.5998C21.5006 61.371 24.3265 61.0911 26.9799 61.9637C29.5791 62.9457 31.4149 64.5974 32.6799 67.07C33.0561 68.3867 33.0561 68.3867 33.4399 69.73C40.8385 69.73 48.2371 69.73 55.8599 69.73C55.8599 66.0934 55.8599 62.4568 55.8599 58.71C39.746 58.71 23.6321 58.71 7.02989 58.71ZM18.0499 67.26C17.0803 68.7315 16.7088 70.4558 16.9099 72.2C17.3759 74.2494 18.3628 75.9657 20.1399 77.14C22.3238 78.2114 24.1155 78.3085 26.4143 77.5422C27.9585 76.9627 29.2687 75.7015 30.0592 74.2484C30.837 72.2562 30.7651 70.1929 30.0199 68.21C29.0169 66.3994 27.7375 65.2319 25.7568 64.6237C22.6608 63.9003 20.098 64.8617 18.0499 67.26ZM65.8705 66.7493C64.5376 68.4192 64.2648 70.3091 64.4099 72.39C64.6311 73.5531 65.0145 74.4847 65.7399 75.43C65.8418 75.5867 65.9437 75.7435 66.0486 75.905C67.4168 77.3452 69.2614 78.0081 71.2024 78.1375C72.9617 78.1073 74.7266 77.357 76.0377 76.2018C77.3937 74.7982 77.9949 73.1551 78.1084 71.2173C78.033 69.0312 77.1487 67.3218 75.5843 65.8417C74.197 64.6666 72.5821 64.3161 70.7949 64.3632C68.8339 64.5484 67.2141 65.3016 65.8705 66.7493Z" fill="#EB0029"/>
<path d="M65.9015 26.3551C66.0286 26.3538 66.1557 26.3525 66.2867 26.3512C66.7051 26.3476 67.1235 26.3469 67.5419 26.3465C67.8346 26.3452 68.1274 26.344 68.4201 26.3426C69.0334 26.3404 69.6467 26.3397 70.26 26.3399C71.0421 26.3399 71.8242 26.3347 72.6063 26.3282C73.2111 26.3239 73.8158 26.3232 74.4206 26.3234C74.7087 26.3229 74.9969 26.3213 75.285 26.3183C77.2105 26.3004 78.7528 26.3823 80.2484 27.695C80.4472 27.8914 80.6435 28.0904 80.8374 28.2917C80.9433 28.3981 81.0492 28.5044 81.1583 28.6139C81.3794 28.8368 81.5993 29.0609 81.8181 29.286C82.1519 29.6293 82.4892 29.9688 82.8272 30.3079C83.0429 30.5263 83.2584 30.7448 83.4737 30.9636C83.5734 31.0644 83.6732 31.1651 83.776 31.269C84.8194 32.3464 85.3255 33.225 85.3435 34.7196C85.3471 34.9861 85.3471 34.9861 85.3509 35.2579C85.3523 35.4487 85.3537 35.6395 85.3551 35.8361C85.3567 36.0338 85.3582 36.2316 85.3598 36.4353C85.3624 36.8537 85.3644 37.2722 85.3659 37.6906C85.3681 38.1174 85.372 38.5441 85.3776 38.9709C85.3858 39.5885 85.3888 40.2059 85.3908 40.8236C85.3941 41.0128 85.3974 41.2021 85.4008 41.3971C85.3965 42.8014 85.1109 43.8201 84.1765 44.8863C84.0529 44.9887 83.9292 45.0911 83.8017 45.1965C83.6785 45.3019 83.5553 45.4072 83.4284 45.5157C82.4398 46.1968 81.5564 46.2268 80.3945 46.2255C80.1427 46.2274 80.1427 46.2274 79.8858 46.2294C79.3317 46.233 78.7776 46.2337 78.2235 46.2341C77.837 46.2353 77.4505 46.2366 77.0641 46.238C76.254 46.2402 75.4439 46.2409 74.6339 46.2407C73.5987 46.2407 72.5636 46.2458 71.5284 46.2524C70.73 46.2566 69.9316 46.2574 69.1332 46.2572C68.7518 46.2576 68.3703 46.2593 67.9888 46.2623C67.4537 46.266 66.9187 46.2649 66.3835 46.2626C66.2277 46.2647 66.0719 46.2669 65.9114 46.2691C64.629 46.2553 63.4376 45.9267 62.4869 45.0303C62.4043 44.9049 62.3218 44.7795 62.2367 44.6503C62.1078 44.4622 62.1078 44.4622 61.9762 44.2703C61.9015 44.1449 61.8268 44.0195 61.7499 43.8903C61.6505 43.7307 61.6505 43.7307 61.5492 43.5678C61.3059 42.9742 61.3186 42.471 61.3147 41.8298C61.3134 41.7005 61.3121 41.5713 61.3108 41.4381C61.3072 41.0116 61.3064 40.5851 61.306 40.1586C61.3048 39.8608 61.3035 39.5631 61.3022 39.2654C61.2999 38.6412 61.2992 38.0171 61.2994 37.3929C61.2995 36.596 61.2943 35.7992 61.2877 35.0024C61.2835 34.3872 61.2828 33.772 61.283 33.1568C61.2825 32.8632 61.2808 32.5696 61.2779 32.2761C61.2616 30.4873 61.2709 29.1005 62.5032 27.6943C62.6269 27.5919 62.7505 27.4895 62.878 27.384C63.0012 27.2787 63.1244 27.1734 63.2513 27.0649C64.1162 26.469 64.861 26.3617 65.9015 26.3551ZM64.5999 29.8303C64.3366 30.3567 64.3813 30.789 64.3762 31.3781C64.3738 31.6235 64.3714 31.8689 64.3688 32.1217C64.3673 32.3908 64.3659 32.6598 64.3646 32.9289C64.3638 33.0641 64.363 33.1993 64.3622 33.3386C64.3583 34.0538 64.3556 34.7689 64.3538 35.4841C64.3517 36.2236 64.3451 36.963 64.3376 37.7024C64.3326 38.2705 64.331 38.8385 64.3304 39.4066C64.3294 39.6792 64.3272 39.9518 64.3237 40.2245C64.3191 40.6056 64.3197 40.9868 64.3206 41.3679C64.3194 41.5849 64.3183 41.8019 64.3172 42.0254C64.366 42.5649 64.366 42.5649 64.6969 42.9152C65.3735 43.2229 66.018 43.2097 66.7471 43.204C66.9056 43.205 67.0642 43.206 67.2276 43.2071C67.7512 43.2096 68.2748 43.2079 68.7984 43.206C69.1623 43.2064 69.5262 43.2069 69.8901 43.2076C70.6524 43.2085 71.4147 43.2073 72.1771 43.2046C73.1551 43.2014 74.133 43.2032 75.111 43.2066C75.8622 43.2087 76.6135 43.208 77.3647 43.2066C77.7254 43.2062 78.0861 43.2067 78.4467 43.208C78.9503 43.2094 79.4537 43.2072 79.9572 43.204C80.1068 43.2052 80.2563 43.2064 80.4104 43.2075C81.1947 43.2051 81.1947 43.2051 81.88 42.8644C82.3792 42.1047 82.3076 41.3614 82.3151 40.4792C82.3174 40.2247 82.3174 40.2247 82.3198 39.9651C82.3224 39.6054 82.3244 39.2457 82.3259 38.886C82.3292 38.3376 82.3375 37.7894 82.3459 37.241C82.3479 36.8915 82.3495 36.5419 82.3508 36.1923C82.3557 35.9473 82.3557 35.9473 82.3608 35.6974C82.3571 34.6589 82.1961 34.0774 81.5099 33.2503C81.1463 32.8867 81.1463 32.8867 80.7617 32.5853C80.287 32.1874 79.921 31.8355 79.5267 31.3503C78.725 30.4117 77.9746 29.5763 76.7195 29.331C75.9999 29.2905 75.2917 29.2907 74.5711 29.307C74.307 29.3086 74.0429 29.3095 73.7788 29.31C73.2286 29.3123 72.6786 29.3189 72.1285 29.3291C71.4242 29.342 70.7201 29.3475 70.0158 29.3502C69.3413 29.353 68.6668 29.3596 67.9924 29.3664C67.8645 29.3674 67.7365 29.3684 67.6047 29.3695C67.2424 29.373 66.8801 29.3794 66.5178 29.386C66.2091 29.3908 66.2091 29.3908 65.8942 29.3956C65.3621 29.4501 65.0444 29.5385 64.5999 29.8303Z" fill="#EB0029"/>
<path d="M24.2525 24.9704C24.6363 24.973 25.0193 24.9666 25.4031 24.9593C26.9365 24.9616 28.192 25.0959 29.4499 26.0299C30.7167 27.4096 30.8298 28.3814 30.8464 30.2292C30.8511 30.6083 30.8618 30.9873 30.8726 31.3662C30.8861 32.8425 30.8005 33.8215 29.8299 34.9599C29.7162 35.1167 29.6026 35.2734 29.4855 35.4349C29.411 35.529 29.3366 35.623 29.2599 35.7199C29.3378 35.8669 29.4156 36.0138 29.4959 36.1652C29.5983 36.3631 29.7006 36.561 29.8061 36.7649C29.9075 36.9589 30.0089 37.1529 30.1134 37.3527C30.843 39.001 30.8272 40.493 30.8036 42.2749C30.8019 42.5218 30.8002 42.7687 30.7984 43.023C30.794 43.6287 30.7872 44.2343 30.7799 44.8399C29.7767 44.8399 28.7735 44.8399 27.7399 44.8399C27.735 44.5213 27.7301 44.2026 27.725 43.8743C27.7143 43.448 27.7034 43.0218 27.6924 42.5955C27.6897 42.3865 27.687 42.1774 27.6842 41.9621C27.6268 40.0167 27.1649 38.4408 26.0299 36.8599C26.0299 36.7345 26.0299 36.6091 26.0299 36.4799C25.3402 36.4799 24.6505 36.4799 23.9399 36.4799C23.9399 39.2387 23.9399 41.9975 23.9399 44.8399C22.9367 44.8399 21.9335 44.8399 20.8999 44.8399C20.8779 42.3758 20.861 39.9116 20.8507 37.4474C20.8457 36.3032 20.839 35.1591 20.8282 34.0149C20.8179 32.9111 20.8122 31.8073 20.8097 30.7035C20.808 30.282 20.8046 29.8605 20.7994 29.439C20.7926 28.8493 20.7916 28.26 20.792 27.6703C20.7886 27.4954 20.7852 27.3205 20.7817 27.1402C20.7913 25.9592 20.7913 25.9592 21.3441 25.3518C22.2627 24.858 23.2309 24.9607 24.2525 24.9704ZM23.9399 28.1199C23.9399 29.8755 23.9399 31.6311 23.9399 33.4399C24.4258 33.4556 24.9117 33.4713 25.4124 33.4874C25.5642 33.4943 25.716 33.5012 25.8723 33.5084C26.4943 33.5181 26.9119 33.481 27.4475 33.1571C27.8587 32.486 27.8826 31.8432 27.9061 31.0768C27.9194 30.8628 27.9194 30.8628 27.9328 30.6445C27.9694 29.8453 27.9583 29.214 27.5499 28.4999C26.8289 28.0193 26.2556 28.0774 25.4243 28.0962C24.9344 28.104 24.4446 28.1118 23.9399 28.1199Z" fill="#EB0029"/>
<path d="M35.1954 24.9722C35.3475 24.9723 35.4995 24.9724 35.6562 24.9724C35.8982 24.9798 35.8982 24.9798 36.1451 24.9873C36.3125 24.9886 36.4798 24.99 36.6523 24.9914C37.1847 24.9967 37.7169 25.0086 38.2492 25.0207C38.6111 25.0255 38.9729 25.0298 39.3347 25.0337C40.2199 25.0441 41.1048 25.0605 41.9899 25.0801C41.9899 26.0833 41.9899 27.0865 41.9899 28.1201C40.1716 28.1201 38.3533 28.1201 36.4799 28.1201C36.4799 29.8757 36.4799 31.6313 36.4799 33.4401C38.2982 33.4401 40.1165 33.4401 41.9899 33.4401C41.9899 34.4433 41.9899 35.4465 41.9899 36.4801C40.1716 36.4801 38.3533 36.4801 36.4799 36.4801C36.4799 38.2357 36.4799 39.9913 36.4799 41.8001C38.2982 41.8001 40.1165 41.8001 41.9899 41.8001C41.9899 42.8033 41.9899 43.8065 41.9899 44.8401C40.9249 44.8636 39.8601 44.8808 38.795 44.8923C38.4328 44.897 38.0707 44.9035 37.7086 44.9117C37.1874 44.9233 36.6664 44.9287 36.1451 44.9328C35.9031 44.9402 35.9031 44.9402 35.6562 44.9477C35.5042 44.9478 35.3521 44.9478 35.1954 44.9479C35.0625 44.95 34.9296 44.9521 34.7926 44.9543C34.1226 44.7643 33.8541 44.4425 33.4399 43.8901C33.3035 43.3118 33.3099 42.7498 33.3169 42.1578C33.3144 41.8986 33.3144 41.8986 33.3119 41.6341C33.3077 41.0639 33.3105 40.494 33.3137 39.9238C33.3131 39.527 33.3121 39.1302 33.3109 38.7334C33.3095 37.9023 33.3116 37.0712 33.316 36.24C33.3214 35.1749 33.3183 34.11 33.3126 33.0448C33.3092 32.2256 33.3103 31.4064 33.3127 30.5872C33.3134 30.1945 33.3126 29.8018 33.3104 29.4091C33.308 28.86 33.3117 28.3114 33.3169 27.7623C33.315 27.6002 33.3131 27.4381 33.3111 27.2711C33.3256 26.459 33.3702 26.123 33.8722 25.4535C34.3852 25.0834 34.5795 24.9624 35.1954 24.9722Z" fill="#EB0029"/>
<path d="M46.2113 24.9936C46.4451 24.9937 46.4451 24.9937 46.6837 24.9938C46.8502 24.9977 47.0167 25.0016 47.1882 25.0057C47.36 25.0067 47.5319 25.0078 47.7089 25.0089C48.2568 25.0132 48.8045 25.0227 49.3524 25.0324C49.7242 25.0362 50.0961 25.0397 50.4679 25.0428C51.3787 25.0511 52.2892 25.0643 53.1999 25.0799C53.1999 26.0831 53.1999 27.0863 53.1999 28.1199C51.3816 28.1826 49.5633 28.2453 47.6899 28.3099C47.6899 29.9401 47.6899 31.5703 47.6899 33.2499C49.5082 33.3126 51.3265 33.3753 53.1999 33.4399C53.1999 34.4431 53.1999 35.4463 53.1999 36.4799C51.3816 36.5426 49.5633 36.6053 47.6899 36.6699C47.6899 38.3001 47.6899 39.9303 47.6899 41.6099C49.5082 41.6726 51.3265 41.7353 53.1999 41.7999C53.1999 42.8031 53.1999 43.8063 53.1999 44.8399C52.135 44.8587 51.0701 44.8725 50.005 44.8816C49.6429 44.8855 49.2807 44.8906 48.9186 44.8972C48.3975 44.9065 47.8764 44.9108 47.3552 44.9141C47.1938 44.918 47.0325 44.9219 46.8663 44.926C46.7142 44.926 46.5621 44.9261 46.4054 44.9262C46.2725 44.9279 46.1396 44.9295 46.0027 44.9313C45.3661 44.7868 45.0857 44.5678 44.6499 44.0799C44.5094 43.4977 44.522 42.9278 44.53 42.3313C44.5286 42.1545 44.5273 41.9777 44.5259 41.7955C44.5227 41.2111 44.5264 40.6269 44.5304 40.0424C44.5303 39.6363 44.5298 39.2303 44.529 38.8243C44.5285 37.9733 44.5313 37.1223 44.5365 36.2713C44.543 35.18 44.5418 34.0889 44.5383 32.9975C44.5363 32.1591 44.538 31.3207 44.5408 30.4822C44.5418 30.0798 44.5417 29.6774 44.5405 29.275C44.5395 28.7127 44.5433 28.1507 44.5486 27.5885C44.5473 27.4218 44.5461 27.2552 44.5448 27.0835C44.5562 26.3578 44.5644 25.9629 44.9862 25.356C45.4482 25.0549 45.6662 24.9869 46.2113 24.9936Z" fill="#EB0029"/>
<path d="M11.4454 24.9722C11.5974 24.9723 11.7495 24.9724 11.9062 24.9724C12.1482 24.9798 12.1482 24.9798 12.3951 24.9873C12.5625 24.9886 12.7298 24.99 12.9022 24.9914C13.4347 24.9967 13.9668 25.0086 14.4992 25.0207C14.861 25.0255 15.2229 25.0298 15.5847 25.0337C16.4699 25.0441 17.3548 25.0605 18.2399 25.0801C18.2399 26.0833 18.2399 27.0865 18.2399 28.1201C16.4216 28.1201 14.6033 28.1201 12.7299 28.1201C12.7299 29.8757 12.7299 31.6313 12.7299 33.4401C14.5482 33.4401 16.3665 33.4401 18.2399 33.4401C18.2399 34.4433 18.2399 35.4465 18.2399 36.4801C16.4216 36.4801 14.6033 36.4801 12.7299 36.4801C12.7299 39.2389 12.7299 41.9977 12.7299 44.8401C11.7267 44.8401 10.7235 44.8401 9.68985 44.8401C9.66785 42.404 9.65097 39.9679 9.64063 37.5317C9.63567 36.4005 9.62895 35.2694 9.61819 34.1382C9.60787 33.0467 9.60219 31.9553 9.59972 30.8637C9.59796 30.4472 9.59454 30.0306 9.58941 29.614C9.58252 29.0308 9.58156 28.4479 9.58201 27.8646C9.57859 27.6921 9.57517 27.5197 9.57166 27.342C9.57851 26.5039 9.60902 26.1393 10.1213 25.4471C10.634 25.0842 10.8333 24.9625 11.4454 24.9722Z" fill="#EB0029"/>
<path d="M72.9836 67.153C73.9484 67.7012 74.9847 68.6576 75.3742 69.7143C75.5687 71.0964 75.625 72.5143 74.8599 73.7199C73.6914 74.9254 72.9294 75.4563 71.2261 75.513C70.0743 75.5231 69.2745 75.3567 68.3628 74.6291C67.3169 73.5946 66.8603 72.67 66.8205 71.2024C66.8366 69.9917 67.1179 69.1584 67.9397 68.2633C69.3546 66.9631 71.151 66.3681 72.9836 67.153ZM70.3355 70.3237C69.8645 70.8344 69.8645 70.8344 69.8961 71.4637C70.0719 72.0313 70.0719 72.0313 70.5255 72.3899C71.0665 72.6347 71.0665 72.6347 71.6774 72.4493C72.2206 72.2557 72.2206 72.2557 72.3899 71.8199C72.4655 71.1241 72.4788 70.8006 72.0574 70.2287C71.3659 69.7292 70.9952 69.8252 70.3355 70.3237Z" fill="#EB0029"/>
<path d="M25.7093 67.2836C26.9794 67.9923 27.6752 68.8954 28.1199 70.2999C28.2951 71.6054 28.1251 72.6392 27.3599 73.7199C26.6907 74.5238 26.0984 75.1202 25.0799 75.4299C24.4453 75.487 24.4453 75.487 23.7618 75.4893C23.5367 75.4924 23.3116 75.4956 23.0797 75.4989C21.6868 75.3532 20.8186 74.5617 19.9499 73.5299C19.2917 72.3631 19.2798 71.0296 19.6115 69.7618C20.0912 68.4305 20.9909 67.6972 22.2299 67.0699C23.4378 66.6673 24.5568 66.7453 25.7093 67.2836ZM22.8118 70.3118C22.3675 70.8374 22.3675 70.8374 22.3961 71.4636C22.5719 72.0313 22.5719 72.0313 23.0255 72.3899C23.5622 72.6269 23.5622 72.6269 24.1655 72.4968C24.7395 72.2395 24.7395 72.2395 24.9968 71.6655C25.1269 71.0622 25.1269 71.0622 24.8899 70.5255C24.5313 70.0719 24.5313 70.0719 23.9636 69.8961C23.3374 69.8675 23.3374 69.8675 22.8118 70.3118Z" fill="#EB0029"/>
<path d="M61.3699 48.8301C63.2509 48.8301 65.1319 48.8301 67.0699 48.8301C67.0699 49.8333 67.0699 50.8365 67.0699 51.8701C65.1889 51.8701 63.3079 51.8701 61.3699 51.8701C61.3699 50.8669 61.3699 49.8637 61.3699 48.8301Z" fill="#EB0029"/>
</svg>
