<svg width="100" height="100" viewBox="0 0 100 100" fill="none" xmlns="http://www.w3.org/2000/svg">
<path d="M7.59064 1.31707C7.81628 1.31581 8.04193 1.31455 8.27441 1.31325C8.52045 1.31385 8.76648 1.31446 9.01998 1.31508C9.28545 1.31435 9.55093 1.31345 9.81641 1.3124C10.5449 1.31001 11.2733 1.31006 12.0018 1.31052C12.7878 1.3106 13.5739 1.30845 14.36 1.3066C15.8997 1.30335 17.4394 1.30228 18.9791 1.30206C20.2308 1.30187 21.4826 1.30107 22.7344 1.29983C26.2842 1.29639 29.8341 1.29459 33.3839 1.29488C33.671 1.29491 33.671 1.29491 33.9638 1.29493C34.2511 1.29495 34.2511 1.29495 34.5443 1.29498C37.6486 1.29514 40.7529 1.2914 43.8572 1.28589C47.0456 1.28028 50.2339 1.27758 53.4223 1.27792C55.212 1.27805 57.0016 1.27698 58.7913 1.27277C60.3152 1.26921 61.839 1.26837 63.3629 1.27102C64.1401 1.27229 64.9171 1.27232 65.6943 1.26893C66.4066 1.26585 67.1188 1.26642 67.8311 1.26982C68.209 1.2707 68.5869 1.26776 68.9648 1.26465C70.976 1.28052 72.5554 1.68969 74.0234 3.12513C74.353 3.48579 74.6731 3.85273 74.9901 4.22452C75.4705 4.77996 75.9669 5.31989 76.4648 5.8595C77.1681 6.62305 77.8602 7.3944 78.54 8.17884C79.1047 8.81875 79.6812 9.44812 80.2664 10.0693C80.6746 10.5053 81.0515 10.9329 81.3866 11.4282C81.7064 11.8958 81.9448 12.1909 82.4219 12.5001C83.1923 12.6264 83.9343 12.6476 84.713 12.6603C87.2615 12.7217 89.4871 13.7699 91.3574 15.4664C92.5599 16.7696 93.3376 18.2957 93.8295 19.9906C93.8707 20.1323 93.9119 20.274 93.9544 20.4201C94.536 22.5022 94.8974 24.6341 95.2858 26.7587C95.3719 27.2232 95.458 27.6876 95.5443 28.152C95.7235 29.1185 95.9015 30.0851 96.0785 31.052C96.3051 32.289 96.5346 33.5254 96.7648 34.7617C96.9427 35.7178 97.1191 36.6741 97.2951 37.6305C97.3792 38.0866 97.4637 38.5427 97.5486 38.9987C97.6668 39.6348 97.7832 40.2713 97.8991 40.9078C97.9341 41.0942 97.9691 41.2807 98.0051 41.4727C98.4076 43.7098 98.3543 45.5321 97.0256 47.4576C96.5967 48.0541 96.1532 48.6383 95.7031 49.2189C95.6142 49.3338 95.5254 49.4488 95.4338 49.5672C94.9874 50.1426 94.5371 50.7147 94.0842 51.2849C92.6979 53.0303 91.3567 54.8117 90.0033 56.5826C89.2097 57.6209 88.4133 58.657 87.616 59.6925C87.0222 60.4643 86.4311 61.2381 85.8398 62.0118C84.6141 63.6158 83.3836 65.216 82.1518 66.8153C81.2306 68.012 80.3116 69.2104 79.3945 70.4103C78.1687 72.0142 76.9383 73.6144 75.7065 75.2137C74.6752 76.5534 73.6471 77.8955 72.6205 79.2388C71.8269 80.2771 71.0305 81.3133 70.2331 82.3487C69.6394 83.1206 69.0483 83.8944 68.457 84.6681C67.2312 86.272 66.0008 87.8722 64.769 89.4715C64.6124 89.675 64.4558 89.8784 64.2944 90.088C64.2156 90.1904 64.1368 90.2927 64.0556 90.3982C63.4747 91.1532 62.8966 91.9105 62.3192 92.6682C61.8895 93.2313 61.4585 93.7934 61.027 94.3552C60.7799 94.6775 60.534 95.0007 60.2882 95.3241C59.0805 96.883 57.8843 98.2851 55.8594 98.6329C52.6406 98.9564 50.8876 97.5703 48.4874 95.6609C47.778 95.1001 47.0576 94.5539 46.3379 94.0065C46.0611 93.795 45.7844 93.5834 45.5078 93.3717C45.3099 93.2203 45.3099 93.2203 45.108 93.0658C43.9314 92.1644 42.7575 91.2595 41.5832 90.355C40.2436 89.3237 38.9015 88.2956 37.5582 87.2691C36.5199 86.4754 35.4837 85.679 34.4482 84.8817C33.6764 84.288 32.9026 83.6968 32.1289 83.1056C30.9471 82.2025 29.7673 81.2969 28.5889 80.3895C27.817 79.7958 27.0432 79.2047 26.2695 78.6134C25.7161 78.1903 25.1627 77.7671 24.6094 77.3439C24.4893 77.2521 24.3692 77.1603 24.2455 77.0657C23.5187 76.5096 22.794 75.9509 22.0703 75.3907C21.889 75.2523 21.7078 75.1138 21.521 74.9711C19.8862 73.7013 18.5221 72.4388 18.1641 70.3126C17.9192 67.6999 18.9461 66.0686 20.5078 64.0626C20.6619 63.861 20.816 63.6593 20.9747 63.4515C21.3855 62.914 21.7989 62.3786 22.2131 61.8438C22.61 61.3309 23.0054 60.8169 23.4009 60.3029C23.4799 60.2002 23.5589 60.0975 23.6403 59.9917C24.432 58.9623 25.2206 57.9305 26.0088 56.8985C26.5094 56.2434 27.0106 55.5888 27.5146 54.9363C27.6016 54.8237 27.6886 54.711 27.7782 54.5949C28.0096 54.2956 28.2412 53.9964 28.4729 53.6973C28.7961 53.2706 29.1113 52.8417 29.4216 52.4058C29.5083 52.284 29.5951 52.1623 29.6844 52.0369C29.7499 51.9448 29.8154 51.8528 29.8828 51.7579C29.7668 51.7585 29.6509 51.759 29.5314 51.7596C26.7028 51.7725 23.8742 51.7822 21.0456 51.7883C19.6777 51.7913 18.3097 51.7954 16.9418 51.8021C15.621 51.8086 14.3002 51.812 12.9793 51.8135C12.4761 51.8146 11.9729 51.8167 11.4698 51.8199C10.7634 51.8242 10.0571 51.8247 9.35068 51.8245C9.04069 51.8276 9.04069 51.8276 8.72444 51.8308C6.70088 51.8225 5.01113 51.4184 3.51562 50.0001C1.51387 47.8894 1.67264 45.3629 1.68199 42.6362C1.6812 42.2466 1.68015 41.8569 1.67888 41.4672C1.67622 40.4132 1.67724 39.3592 1.6791 38.3052C1.68059 37.1998 1.67921 36.0945 1.67829 34.9891C1.67722 33.1332 1.67862 31.2773 1.68142 29.4214C1.68461 27.2786 1.68357 25.1358 1.68035 22.993C1.67769 21.1501 1.67732 19.3072 1.67885 17.4644C1.67976 16.3651 1.67989 15.2658 1.67795 14.1665C1.67625 13.1327 1.67744 12.0991 1.68081 11.0654C1.68159 10.687 1.68137 10.3086 1.68008 9.93021C1.672 7.33522 1.7044 4.98017 3.51562 2.92981C4.73692 1.90769 5.9791 1.31935 7.59064 1.31707ZM5.50537 5.8595C4.99383 6.72104 5.04914 7.62085 5.04938 8.59777C5.04866 8.75685 5.04794 8.91593 5.0472 9.07983C5.04505 9.61358 5.04429 10.1473 5.04355 10.6811C5.04233 11.0635 5.04103 11.4459 5.03966 11.8284C5.03555 13.0848 5.03353 14.3412 5.03158 15.5977C5.03079 16.0303 5.02999 16.4629 5.02917 16.8955C5.02545 18.9278 5.02267 20.9601 5.02104 22.9924C5.01913 25.3381 5.01399 27.6838 5.0061 30.0296C5.00021 31.8429 4.99732 33.6562 4.99667 35.4695C4.99621 36.5525 4.99446 37.6354 4.98955 38.7183C4.985 39.7373 4.98417 40.7562 4.98618 41.7751C4.98628 42.1486 4.98504 42.5222 4.98236 42.8957C4.9789 43.4066 4.98029 43.9173 4.98286 44.4283C4.98071 44.5752 4.97857 44.7221 4.97636 44.8734C4.9892 45.9359 5.25933 46.7726 5.85937 47.6564C7.02203 48.6193 8.21168 48.5613 9.67535 48.5728C9.91944 48.5776 10.1635 48.5824 10.415 48.5874C11.0817 48.5993 11.7483 48.6076 12.4151 48.6133C12.8328 48.6169 13.2504 48.6213 13.6681 48.6258C14.9781 48.6396 16.2881 48.6499 17.5981 48.6555C19.1046 48.6621 20.6103 48.681 22.1165 48.7103C23.2848 48.7323 24.4529 48.7429 25.6214 48.745C26.3176 48.7466 27.0129 48.7529 27.7089 48.7713C30.781 48.9857 30.781 48.9857 33.4645 47.8009C33.995 47.2043 34.4009 46.5683 34.7694 45.8619C35.0445 45.3534 35.3952 44.9143 35.7552 44.4635C35.9832 44.1568 36.2108 43.8499 36.438 43.5426C37.3581 42.307 38.2886 41.0823 39.2452 39.8748C40.2735 38.5754 41.2748 37.2555 42.2796 35.9379C42.7155 35.3671 43.1532 34.7977 43.5913 34.2286C43.7479 34.0252 43.9045 33.8218 44.0659 33.6122C44.3761 33.2094 44.6864 32.8065 44.9966 32.4037C45.9179 31.207 46.8369 30.0086 47.7539 28.8087C48.9797 27.2048 50.2102 25.6046 51.442 24.0053C52.2536 22.9509 53.0641 21.8956 53.8719 20.8383C54.0896 20.5537 54.3075 20.2692 54.5258 19.9849C55.0262 19.3325 55.5234 18.6785 56.0097 18.0154C57.2939 16.2759 58.4503 14.9192 60.677 14.5659C60.8582 14.5496 61.0393 14.5334 61.2259 14.5166C61.4442 14.4964 61.6625 14.4762 61.8874 14.4554C62.1298 14.4345 62.3723 14.4137 62.6221 14.3922C62.8827 14.3688 63.1434 14.3453 63.4041 14.3218C64.4045 14.2324 65.4054 14.1473 66.4062 14.0626C66.6352 14.0432 66.8641 14.0239 67.0999 14.0039C70.7746 13.6934 74.4497 13.3883 78.125 13.0861C77.6809 12.3992 77.2405 11.7621 76.6746 11.1711C76.5512 11.0409 76.4277 10.9108 76.3004 10.7766C76.1734 10.6445 76.0464 10.5123 75.9155 10.3761C74.9332 9.34716 73.9776 8.30258 73.0469 7.22669C72.7112 6.84221 72.3732 6.46031 72.0337 6.07923C71.8738 5.89846 71.7139 5.71769 71.5492 5.53144C70.8071 4.79306 70.2704 4.63887 69.2314 4.63738C69.0101 4.63612 68.7888 4.63486 68.5608 4.63356C68.3177 4.63417 68.0745 4.63477 67.824 4.6354C67.5632 4.63467 67.3023 4.63377 67.0414 4.63271C66.324 4.63032 65.6065 4.63038 64.889 4.63084C64.1155 4.63092 63.3419 4.62876 62.5684 4.62691C61.0526 4.62366 59.5369 4.62259 58.0212 4.62237C56.7893 4.62219 55.5575 4.62138 54.3256 4.62014C50.8343 4.6167 47.3431 4.6149 43.8518 4.6152C43.6635 4.61521 43.4752 4.61523 43.2813 4.61524C42.9985 4.61527 42.9985 4.61527 42.7101 4.61529C39.6544 4.61545 36.5988 4.61171 33.5432 4.6062C30.407 4.6006 27.2707 4.5979 24.1345 4.59823C22.3732 4.59836 20.612 4.59729 18.8507 4.59309C17.3512 4.58953 15.8518 4.58868 14.3523 4.59133C13.5871 4.59261 12.822 4.59262 12.0568 4.58924C11.3564 4.58618 10.656 4.58672 9.95551 4.59013C9.58205 4.59102 9.20858 4.58806 8.83514 4.58496C7.32669 4.59715 6.53874 4.71923 5.50537 5.8595ZM77.0065 16.3438C76.5679 16.378 76.1293 16.4121 75.6906 16.4461C74.7783 16.5172 73.866 16.5892 72.9537 16.6619C71.7864 16.7548 70.619 16.8452 69.4515 16.935C68.5486 17.0047 67.6458 17.0757 66.7431 17.1472C66.3125 17.1811 65.8819 17.2145 65.4513 17.2476C64.8507 17.2938 64.2504 17.3419 63.65 17.3905C63.3858 17.4103 63.3858 17.4103 63.1162 17.4305C61.5857 17.5577 60.4499 17.7008 59.3994 18.921C59.232 19.1154 59.0646 19.3098 58.8921 19.51C58.1954 20.3573 57.5414 21.2347 56.8933 22.1196C56.3981 22.7888 55.8898 23.4483 55.3833 24.109C55.2195 24.323 55.2195 24.323 55.0523 24.5413C54.2548 25.5825 53.4552 26.6221 52.655 27.6613C52.0613 28.4331 51.4702 29.2069 50.8789 29.9806C49.6531 31.5845 48.4226 33.1848 47.1909 34.7841C46.2696 35.9808 45.3506 37.1791 44.4336 38.379C43.2078 39.9829 41.9773 41.5832 40.7455 43.1825C39.7142 44.5222 38.6861 45.8643 37.6596 47.2076C36.8659 48.2459 36.0695 49.282 35.2722 50.3175C34.6785 51.0893 34.0874 51.8631 33.4961 52.6368C32.2703 54.2408 31.0398 55.841 29.808 57.4403C28.777 58.7797 27.7489 60.1212 26.723 61.4645C26.1566 62.2058 25.5886 62.9456 25.0171 63.6829C24.7027 64.0897 24.3914 64.4988 24.0798 64.9078C23.8022 65.2681 23.5194 65.6242 23.2368 65.9807C23.0391 66.2364 22.8415 66.4922 22.644 66.7482C22.5041 66.921 22.5041 66.921 22.3613 67.0973C21.6891 67.9815 21.3897 68.8001 21.4844 69.922C21.9721 71.1701 22.8054 71.8035 23.8647 72.5831C24.0971 72.7588 24.0971 72.7588 24.3341 72.9381C24.6562 73.1815 24.9791 73.424 25.3027 73.6656C25.9006 74.1129 26.4931 74.567 27.0853 75.0218C27.4997 75.3398 27.9149 75.6569 28.3302 75.9736C29.0119 76.4938 29.6918 77.016 30.3711 77.5392C31.3461 78.2899 32.323 79.0381 33.3008 79.7853C34.9047 81.0111 36.5049 82.2415 38.1042 83.4733C39.3009 84.3945 40.4993 85.3136 41.6992 86.2306C43.3031 87.4564 44.9034 88.6868 46.5027 89.9186C47.72 90.8557 48.9387 91.7911 50.1587 92.7247C50.2941 92.8284 50.4295 92.9321 50.569 93.0389C50.8326 93.2406 51.0966 93.4419 51.3608 93.6429C51.6362 93.8527 51.9107 94.0636 52.1846 94.2754C52.3914 94.4338 52.3914 94.4338 52.6024 94.5955C52.7262 94.6909 52.85 94.7864 52.9775 94.8848C53.7175 95.3867 54.6038 95.4777 55.4687 95.3126C56.5622 94.7344 57.1907 93.9116 57.9224 92.9322C58.0994 92.6999 58.0994 92.6999 58.28 92.4629C58.5254 92.1406 58.77 91.8177 59.0138 91.4943C59.4641 90.8977 59.9189 90.3045 60.3738 89.7114C60.6907 89.298 61.0069 88.884 61.3228 88.4698C61.856 87.771 62.391 87.0736 62.9272 86.3771C63.0838 86.1736 63.2404 85.9702 63.4018 85.7606C63.7121 85.3578 64.0223 84.9549 64.3326 84.5521C65.3639 83.2124 66.392 81.8704 67.4185 80.527C68.2122 79.4887 69.0086 78.4526 69.8059 77.4171C70.3996 76.6453 70.9908 75.8715 71.582 75.0978C72.8078 73.4939 74.0383 71.8936 75.2701 70.2943C76.3014 68.9546 77.3295 67.6125 78.356 66.2692C79.1497 65.2309 79.9461 64.1948 80.7434 63.1593C81.3371 62.3875 81.9283 61.6137 82.5195 60.84C83.7453 59.236 84.9758 57.6358 86.2076 56.0365C87.2387 54.697 88.2669 53.3552 89.2931 52.0118C89.9343 51.1728 90.5778 50.3356 91.2231 49.4996C91.458 49.1938 91.6929 48.8879 91.9274 48.5817C92.1156 48.3362 92.304 48.0909 92.4926 47.8457C92.8152 47.4254 93.1363 47.0039 93.457 46.5822C93.558 46.4511 93.659 46.32 93.763 46.185C94.8384 44.764 94.951 43.9409 94.7266 42.1876C94.623 41.5209 94.5014 40.8583 94.3761 40.1954C94.3237 39.9124 94.3237 39.9124 94.2702 39.6238C94.1554 39.006 94.0393 38.3885 93.9232 37.771C93.8421 37.3376 93.7611 36.9042 93.68 36.4708C93.5104 35.5643 93.34 34.6579 93.1693 33.7517C92.9517 32.5962 92.7361 31.4404 92.5212 30.2845C92.3545 29.3897 92.1864 28.4951 92.018 27.6006C91.938 27.1749 91.8585 26.749 91.7795 26.3231C90.921 21.0711 90.921 21.0711 87.7685 16.9679C84.6247 15.2213 80.4413 16.0701 77.0065 16.3438Z" fill="#EB0029"/>
<path d="M41.5283 65.1735C41.7564 65.1662 41.9845 65.1589 42.2195 65.1514C43.8041 65.3273 45.0113 66.15 46.2402 67.1144C46.4408 67.2684 46.4408 67.2684 46.6455 67.4255C46.9181 67.6351 47.1901 67.8454 47.4615 68.0564C47.8225 68.337 48.1852 68.615 48.5489 68.8921C49.1655 69.3621 49.7783 69.8371 50.3906 70.3127C50.5722 70.4514 50.7537 70.5901 50.9407 70.733C52.3577 71.8332 53.7537 72.9497 54.1016 74.8048C54.3273 77.6643 53.6859 79.2092 51.9653 81.4211C51.8255 81.6064 51.6856 81.7917 51.5415 81.9826C50.366 83.5122 50.366 83.5122 49.6094 83.7892C48.2812 83.7973 47.5671 83.169 46.5942 82.361C46.2814 82.1092 45.9683 81.8577 45.6551 81.6064C45.499 81.4802 45.3429 81.3539 45.1821 81.2237C44.5213 80.6954 43.844 80.1909 43.1641 79.6877C41.9016 78.7474 40.656 77.787 39.4164 76.8168C38.6667 76.2305 37.9138 75.6495 37.1529 75.078C37.0022 74.9644 36.8515 74.8508 36.6962 74.7338C36.4103 74.5188 36.1236 74.3048 35.8361 74.0919C34.414 73.0205 34.414 73.0205 33.9844 72.2658C33.9443 71.0082 34.5432 70.2727 35.2905 69.3361C35.3916 69.2047 35.4927 69.0732 35.5969 68.9378C35.9009 68.5456 36.2109 68.1591 36.5234 67.7736C36.6234 67.6474 36.7233 67.5213 36.8263 67.3913C37.394 66.6954 37.8738 66.2202 38.7085 65.8449C38.8724 65.7688 39.0363 65.6928 39.2052 65.6145C40.0113 65.2787 40.6566 65.1915 41.5283 65.1735ZM38.7482 70.3607C38.5141 70.7296 38.2936 71.1002 38.0859 71.4845C39.7252 72.8547 41.4131 74.1541 43.1139 75.4463C43.7041 75.895 44.2934 76.345 44.8824 76.7954C45.1659 77.0121 45.4495 77.2285 45.7335 77.4445C46.6071 78.1103 47.4668 78.79 48.3078 79.4969C48.4151 79.5599 48.5223 79.6228 48.6328 79.6877C49.6891 79.3355 50.2159 78.2631 50.7813 77.3439C51.0552 76.4787 51.0734 75.8 50.6554 74.9712C50.0166 74.0985 49.1001 73.4939 48.2422 72.8517C47.9238 72.6109 47.6054 72.3701 47.287 72.1292C46.4586 71.5045 45.6277 70.8833 44.7949 70.2643C44.2229 69.8378 43.6541 69.4071 43.086 68.9754C42.4346 68.506 41.8924 68.4531 41.1026 68.4633C40.0373 68.6675 39.3559 69.5125 38.7482 70.3607Z" fill="#EB0029"/>
<path d="M50 52.5393C50.4883 52.8322 50.4883 52.8322 50.7812 53.3205C50.9208 54.5023 50.7646 55.0804 50.0368 56.0129C49.932 56.1396 49.8272 56.2662 49.7192 56.3967C49.5048 56.6683 49.2904 56.9399 49.0761 57.2115C48.9687 57.3448 48.8614 57.4781 48.7508 57.6155C48.2908 58.1919 47.8514 58.783 47.4121 59.3752C47.168 59.7007 46.9238 60.0263 46.6797 60.3518C47.9222 61.491 49.2653 62.7188 50.7812 63.4768C50.8485 63.3231 50.8485 63.3231 50.9171 63.1663C51.2587 62.5352 51.6869 61.9802 52.124 61.4138C52.2089 61.3011 52.2937 61.1884 52.3811 61.0724C53.4789 59.6433 53.4789 59.6433 54.48 59.4729C55.0781 59.5705 55.0781 59.5705 55.6396 59.9611C56.0803 60.5833 56.1549 60.9401 56.1338 61.6943C55.9893 62.4527 55.5173 62.9476 55.0171 63.5134C54.8221 63.7437 54.6275 63.9743 54.4334 64.2054C54.3419 64.3132 54.2503 64.4211 54.156 64.5322C53.8318 64.9369 53.5706 65.367 53.3203 65.8205C53.4335 65.8736 53.5468 65.9267 53.6634 65.9814C54.0996 66.2101 54.4693 66.4648 54.8615 66.762C55.0692 66.9187 55.0692 66.9187 55.2811 67.0786C55.4236 67.1871 55.5661 67.2956 55.7129 67.4074C55.8584 67.5175 56.0039 67.6275 56.1539 67.7408C56.5119 68.0116 56.8694 68.283 57.2266 68.5549C58.2658 67.4257 59.1841 66.2243 60.0874 64.9855C61.5489 63.0003 61.5489 63.0003 62.3238 62.768C62.9818 62.7902 63.4072 62.8428 63.9526 63.2204C64.3024 63.7381 64.4382 64.0224 64.4531 64.6486C64.0177 65.6855 63.3707 66.5174 62.6831 67.3952C62.455 67.6895 62.2269 67.9837 61.9987 68.2779C61.8857 68.4231 61.7726 68.5683 61.6561 68.7179C61.3552 69.1059 61.0574 69.4961 60.7613 69.8878C60.675 70.0014 60.5888 70.1151 60.5 70.2322C60.2693 70.5366 60.0388 70.8412 59.8083 71.1458C59.6653 71.3221 59.5223 71.4983 59.375 71.6799C59.228 71.8642 59.0809 72.0485 58.9294 72.2384C58.3489 72.6955 57.9781 72.8029 57.2386 72.752C56.4929 72.575 55.9769 72.1364 55.3955 71.6555C55.1959 71.4982 55.1959 71.4982 54.9922 71.3377C54.7084 71.1137 54.4258 70.8881 54.1444 70.6611C53.5704 70.1997 52.9882 69.7495 52.4058 69.2988C51.9616 68.9548 51.5186 68.6093 51.0757 68.2635C50.2285 67.603 49.3767 66.9486 48.5229 66.2966C48.3212 66.1423 48.3212 66.1423 48.1154 65.985C47.3995 65.4381 46.6822 64.8933 45.9633 64.3503C45.8135 64.2368 45.6637 64.1233 45.5094 64.0063C45.2241 63.7901 44.9384 63.5745 44.6521 63.3596C42.6572 61.8455 42.6572 61.8455 42.4072 60.8278C42.4917 59.6623 43.3364 58.8395 44.0483 57.9726C44.5954 57.2969 45.116 56.6006 45.6421 55.9084C45.9512 55.505 46.2606 55.1019 46.5701 54.6988C46.7821 54.4195 46.9915 54.1383 47.199 53.8557C47.3028 53.7144 47.4066 53.573 47.5136 53.4273C47.6532 53.235 47.6532 53.235 47.7957 53.0388C48.3612 52.3539 49.1804 52.4275 50 52.5393Z" fill="#EB0029"/>
<path d="M56.25 44.5314C56.8413 44.6827 56.8413 44.6827 57.4393 44.898C57.6659 44.9783 57.8925 45.0587 58.1259 45.1415C58.3709 45.2308 58.6158 45.3201 58.8608 45.4096C59.1186 45.5019 59.3764 45.594 59.6343 45.6859C60.3145 45.929 60.9937 46.1746 61.6727 46.4208C62.3454 46.6642 63.019 46.9052 63.6925 47.1464C64.485 47.4303 65.2774 47.7148 66.0687 48.0021C67.3136 48.4539 68.5596 48.8994 69.813 49.3273C70.1511 49.4443 70.1511 49.4443 70.496 49.5636C70.9154 49.7084 71.3355 49.8507 71.7567 49.9902C73.4793 50.5896 73.4793 50.5896 74.0234 51.5627C74.1489 52.3153 74.0876 52.6277 73.6938 53.2839C73.1782 53.7716 72.9593 53.8358 72.2656 53.9064C71.7875 53.8 71.7875 53.8 71.2936 53.6195C71.0247 53.5248 71.0247 53.5248 70.7504 53.4281C70.5656 53.3603 70.3808 53.2926 70.1904 53.2228C69.8223 53.089 69.4535 52.9567 69.0842 52.8261C68.9216 52.7665 68.7591 52.707 68.5916 52.6457C68.1338 52.4911 68.1338 52.4911 67.5781 52.7345C67.2755 53.0979 66.9885 53.4744 66.7114 53.8576C65.8335 55.0638 65.8335 55.0638 65.3618 55.5818C64.9978 56.0236 64.9978 56.0236 65.0269 56.521C65.3638 57.3498 65.9301 58.0121 66.4856 58.7042C67.1535 59.5827 67.355 60.2187 67.3828 61.3283C67.0898 61.902 67.0898 61.902 66.6016 62.3049C65.952 62.4788 65.4876 62.5894 64.8438 62.3625C64.3469 62.0407 64.1017 61.6878 63.7688 61.1986C63.6414 61.0133 63.514 60.828 63.3827 60.6371C63.2485 60.4382 63.1143 60.2393 62.9761 60.0343C62.8361 59.8299 62.6961 59.6255 62.5519 59.4148C62.1425 58.8166 61.7353 58.2171 61.3281 57.6174C61.0528 57.2154 60.7767 56.814 60.5004 56.4128C60.3349 56.1725 60.1697 55.9321 60.0048 55.6916C59.3493 54.7361 58.6884 53.7845 58.0261 52.8337C57.7551 52.4444 57.4845 52.0548 57.2144 51.6649C56.6097 50.7928 56.0022 49.9239 55.3772 49.0663C55.2762 48.9257 55.1753 48.7851 55.0713 48.6402C54.8872 48.3843 54.7007 48.13 54.5113 47.878C53.9327 47.0661 53.7812 46.4974 53.9062 45.508C54.6016 44.5176 55.0842 44.4538 56.25 44.5314ZM60.1562 49.6095C60.4635 50.5331 60.9778 51.2391 61.5479 52.0143C61.6392 52.1403 61.7306 52.2663 61.8248 52.3962C62.0489 52.7049 62.2743 53.0128 62.5 53.3205C63.22 53.0356 63.5081 52.6755 63.916 52.0265C64.0177 51.8669 64.1194 51.7073 64.2242 51.5428C64.2998 51.4205 64.3753 51.2981 64.4531 51.172C62.378 50.0964 62.378 50.0964 60.1562 49.6095Z" fill="#EB0029"/>
<path d="M34.7656 13.0856C35.4509 13.4663 35.6899 13.7386 35.9863 14.465C35.8707 16.2865 34.23 17.8561 33.1553 19.2727C32.4396 20.2164 31.7467 21.1733 31.0669 22.1432C29.9482 23.7387 28.8101 25.3194 27.6669 26.8973C27.1232 27.6478 26.5803 28.3989 26.0376 29.15C25.9314 29.297 25.8251 29.4441 25.7157 29.5955C25.0056 30.579 24.2993 31.5651 23.5953 32.5529C22.8211 33.6384 22.0401 34.7189 21.2579 35.7986C20.7448 36.5076 20.2341 37.218 19.7304 37.9337C19.6408 38.0608 19.5511 38.1878 19.4588 38.3186C19.2915 38.5562 19.1249 38.7942 18.9591 39.0328C18.4027 39.8217 18.4027 39.8217 17.9688 40.0387C16.5914 40.1498 16.5914 40.1498 15.918 39.7457C15.5108 39.0671 15.4953 38.458 15.625 37.6949C15.8928 37.1269 16.2547 36.6521 16.6382 36.1569C16.7431 36.015 16.8481 35.8732 16.9562 35.7271C17.1784 35.4269 17.4021 35.1279 17.6271 34.8298C18.1838 34.0882 18.7218 33.3333 19.2627 32.5802C19.4767 32.2843 19.6908 31.9886 19.9051 31.6929C20.4345 30.9613 20.9604 30.2273 21.4844 29.4918C22.3374 28.2947 23.198 27.1032 24.0593 25.9121C24.7798 24.9153 25.4964 23.9157 26.2101 22.914C26.9752 21.8412 27.7486 20.7744 28.5214 19.7072C29.2686 18.6736 30.0048 17.6329 30.7373 16.589C33.302 12.9421 33.302 12.9421 34.7656 13.0856Z" fill="#EB0029"/>
<path d="M62.6953 36.1326C63.2332 36.4675 63.2332 36.4675 63.7817 36.9016C63.8824 36.9801 63.9831 37.0586 64.0868 37.1395C64.2993 37.3053 64.5111 37.4721 64.7223 37.6397C65.2261 38.0384 65.7374 38.4275 66.2476 38.8181C66.46 38.9819 66.6723 39.1456 66.8846 39.3095C67.8088 40.022 68.7366 40.7299 69.664 41.4383C70.4327 42.0256 71.2001 42.6147 71.9655 43.2063C72.4551 43.5842 72.9464 43.9598 73.4375 44.3357C73.5825 44.4493 73.7275 44.5628 73.877 44.6798C74.2664 44.9844 74.2664 44.9844 74.8047 45.3123C75.5608 45.0602 75.7204 44.7345 76.1841 44.0916C76.339 43.8794 76.4942 43.6673 76.6495 43.4553C76.7304 43.3442 76.8112 43.2331 76.8946 43.1186C77.3248 42.5332 77.7674 41.9574 78.2104 41.3816C78.2934 41.273 78.3764 41.1645 78.4619 41.0526C79.3619 39.8812 79.3619 39.8812 80.0415 39.6848C80.7849 39.6411 81.0535 39.7938 81.6406 40.2342C82.0312 40.6248 82.0312 40.6248 82.1045 41.2596C81.9815 42.4894 81.1252 43.3445 80.3833 44.2991C79.7942 45.0573 79.209 45.8179 78.6324 46.5856C78.5198 46.7349 78.4072 46.8841 78.2913 47.0378C78.0701 47.3312 77.8498 47.6252 77.6303 47.9199C76.4022 49.5435 76.4022 49.5435 75.3334 49.7083C74.3845 49.5784 73.9092 49.2025 73.1812 48.6082C73.0472 48.5033 72.9132 48.3984 72.7752 48.2904C72.4894 48.0662 72.2047 47.8406 71.921 47.6138C71.3447 47.1539 70.7617 46.7029 70.1788 46.2515C69.7348 45.9074 69.2919 45.5619 68.8492 45.2162C68.002 44.5557 67.1501 43.9013 66.2964 43.2493C66.1619 43.1465 66.0274 43.0436 65.8888 42.9377C65.173 42.3908 64.4556 41.846 63.7367 41.303C63.5869 41.1895 63.4372 41.076 63.2828 40.959C62.9975 40.7428 62.7118 40.5272 62.4256 40.3123C60.4684 38.8269 60.4684 38.8269 60.1562 37.8904C60.1562 37.1776 60.2976 36.8798 60.7422 36.3279C61.411 35.8205 61.9058 35.9395 62.6953 36.1326Z" fill="#EB0029"/>
<path d="M82.9834 21.7891C84.3871 22.5379 85.5035 23.5321 86.1618 24.9988C86.5977 26.5362 86.6024 28.3111 85.9497 29.7847C85.1769 31.0793 83.9613 32.2839 82.4921 32.7335C80.4694 33.0784 78.7897 32.9145 77.1126 31.7294C75.9723 30.8151 75.2872 29.7585 75 28.3199C74.8297 26.4156 75.1205 24.8441 76.2695 23.2906C78.0041 21.4649 80.6345 20.8633 82.9834 21.7891ZM78.5156 25.9761C78.2323 26.8044 78.2149 27.4703 78.5401 28.2832C79.2138 29.0693 79.5929 29.4549 80.6519 29.5894C81.4795 29.5456 81.9851 29.2523 82.6172 28.7105C83.0819 28.119 83.0787 27.4902 83.0567 26.7497C82.9558 25.9587 82.5926 25.5316 81.9946 25.0362C80.5693 24.4343 79.4105 24.7125 78.5156 25.9761Z" fill="#EB0029"/>
<path d="M22.0703 13.4762C23.2446 14.2294 24.0934 15.4555 24.5407 16.7812C24.8685 18.7187 24.6434 20.2924 23.5405 21.9043C22.5255 23.1929 21.3943 23.9132 19.7563 24.1161C17.7216 24.2279 16.209 23.7887 14.6728 22.4239C13.4289 21.0535 13.1239 19.5 13.1813 17.683C13.3876 16.2559 14.0348 14.9701 15.0757 13.9644C17.2617 12.3369 19.6861 12.3349 22.0703 13.4762ZM16.8213 17.1383C16.4903 17.8003 16.4751 18.4252 16.6016 19.1402C16.9951 19.8731 17.2763 20.2411 17.9687 20.7027C18.8841 20.8527 19.5697 20.7826 20.3979 20.3609C21.1144 19.7318 21.2573 19.426 21.3623 18.481C21.2744 17.6317 21.0543 17.251 20.5078 16.6012C19.9726 16.1786 19.6315 16.0302 18.9575 15.9298C18.0411 16.0607 17.4855 16.5183 16.8213 17.1383Z" fill="#EB0029"/>
<path d="M35.5469 29.6877C36.9121 30.5909 37.5773 31.6774 38.0859 33.2033C38.2692 35.363 38.0627 36.9267 36.6577 38.6354C35.1758 39.8417 33.8278 40.49 31.8688 40.4062C30.2382 40.185 29.1272 39.4653 27.9663 38.3302C26.8435 36.6621 26.5188 35.1197 26.8295 33.1362C27.209 31.6598 28.282 30.4293 29.5364 29.5931C31.5377 28.5587 33.556 28.6788 35.5469 29.6877ZM30.3833 33.3254C29.9797 34.1973 29.9857 34.8304 30.2734 35.7424C30.7638 36.4202 31.147 36.6731 31.9092 37.0119C32.8028 37.1352 33.2105 36.9763 33.9844 36.5236C34.6228 35.967 34.8245 35.5189 34.8877 34.6926C34.8439 33.8185 34.5642 33.2988 33.9539 32.6799C32.6794 31.7673 31.3814 32.2505 30.3833 33.3254Z" fill="#EB0029"/>
</svg>
