<svg width="95" height="95" viewBox="0 0 95 95" fill="none" xmlns="http://www.w3.org/2000/svg">
<path d="M33.3926 3.88576C34.9773 4.85777 36.4732 6.25744 37.24 7.98013C37.3116 8.29503 37.3768 8.6116 37.43 8.93013C37.5725 8.84074 37.7151 8.75134 37.8619 8.65924C40.1679 7.2565 42.2028 6.61387 44.9224 7.1615C46.295 7.54791 47.4617 8.13218 48.64 8.93013C48.661 8.79249 48.6821 8.65484 48.7038 8.51302C49.1114 6.79155 50.407 5.33907 51.8514 4.38646C53.579 3.34865 54.8651 2.97145 56.8694 2.96888C57.0583 2.96423 57.2473 2.95958 57.442 2.95478C58.7378 2.94968 59.6671 3.17692 60.8 3.80013C60.9861 3.89639 61.1723 3.99264 61.364 4.09181C63.6168 5.4511 65.0269 7.40775 65.6658 9.96326C65.9417 11.7731 65.7607 13.4772 65.17 15.2001C67.1156 13.7088 68.3079 11.6572 68.6939 9.22552C68.7489 8.80154 68.798 8.37672 68.8394 7.95119C68.9954 7.30467 69.2207 7.06588 69.73 6.65013C70.1951 6.41759 70.4394 6.45702 70.9531 6.50763C71.1761 6.52674 71.1761 6.52674 71.4036 6.54623C71.8994 6.66995 72.0786 6.82019 72.39 7.22013C73.0467 9.19044 72.3438 11.6748 71.5624 13.5324C71.1133 14.3886 70.5874 15.1361 69.993 15.897C69.8727 16.0511 69.7524 16.2052 69.6285 16.364C69.5366 16.4815 69.4447 16.5991 69.35 16.7201C69.564 16.7212 69.564 16.7212 69.7823 16.7222C71.1297 16.7294 72.477 16.7403 73.8244 16.7551C74.517 16.7626 75.2095 16.7687 75.9022 16.7716C76.5712 16.7745 77.2401 16.7811 77.909 16.7901C78.2873 16.7943 78.6655 16.7947 79.0437 16.7951C81.2473 16.8307 81.2473 16.8307 82.08 17.6701C82.17 17.7576 82.2599 17.8451 82.3527 17.9352C83.4255 19.2378 83.1627 21.1094 83.1495 22.6999C83.1496 23.0439 83.1501 23.3878 83.1509 23.7318C83.1514 24.4506 83.1486 25.1694 83.1434 25.8882C83.1369 26.8074 83.1381 27.7263 83.1416 28.6455C83.1436 29.3551 83.1419 30.0646 83.1391 30.7741C83.1381 31.113 83.1382 31.4518 83.1394 31.7906C83.1404 32.2649 83.1365 32.7388 83.1313 33.2131C83.1332 33.4208 83.1332 33.4208 83.1351 33.6328C83.1158 34.6776 82.842 35.2561 82.27 36.1001C80.7082 37.5448 79.9442 37.2401 77.52 37.2401C77.52 39.56 77.52 41.8799 77.52 44.2701C77.8962 44.3955 78.2724 44.5209 78.66 44.6501C80.997 45.716 82.9872 47.3535 84.74 49.2101C84.8916 49.3598 85.0432 49.5094 85.1994 49.6636C88.2131 52.7138 90.2434 56.4946 91.39 60.6101C91.4396 60.7769 91.4892 60.9437 91.5403 61.1156C92.0078 62.8595 92.0536 64.5435 92.0447 66.3361C92.0431 66.8293 92.0486 67.3221 92.0546 67.8153C92.0665 70.6083 91.5733 73.1485 90.5706 75.7626C90.5136 75.9132 90.4566 76.0637 90.3979 76.2188C88.5295 81.0308 84.9329 85.4066 80.56 88.1601C80.4056 88.2581 80.4056 88.2581 80.2482 88.3581C78.7027 89.3247 77.1173 90.0725 75.4062 90.7014C75.2411 90.7625 75.076 90.8236 74.9058 90.8865C72.4067 91.7666 70.0603 92.0623 67.4305 92.0553C66.9431 92.0551 66.4563 92.0631 65.9689 92.0715C60.2144 92.1126 54.6621 89.5983 50.35 85.8801C50.2755 85.7783 50.2009 85.6765 50.1241 85.5717C49.5765 85.1555 48.9768 85.2328 48.3164 85.2395C48.1658 85.2388 48.0152 85.238 47.8601 85.2373C47.3538 85.2355 46.8476 85.2378 46.3413 85.24C45.979 85.2396 45.6167 85.2388 45.2543 85.2379C44.473 85.2363 43.6918 85.2364 42.9105 85.2379C41.6745 85.2401 40.4385 85.2378 39.2025 85.2347C36.1314 85.2279 33.0603 85.2267 29.9891 85.2272C27.6045 85.2275 25.22 85.2261 22.8354 85.2196C21.6074 85.2164 20.3795 85.2167 19.1515 85.2197C18.3861 85.2208 17.6206 85.2188 16.8551 85.2159C16.5011 85.2152 16.147 85.2158 15.7929 85.2178C12.4209 85.2355 12.4209 85.2355 11.02 84.3601C10.8515 84.2818 10.683 84.2034 10.5094 84.1226C9.43209 83.3074 8.81458 82.2579 8.54998 80.9401C8.4988 80.3333 8.50023 79.7299 8.50429 79.1212C8.50396 78.9416 8.50364 78.762 8.5033 78.577C8.50268 77.9772 8.50477 77.3774 8.50684 76.7776C8.50695 76.3469 8.50689 75.9162 8.50668 75.4854C8.50657 74.3173 8.5088 73.1491 8.51145 71.981C8.51383 70.7598 8.51405 69.5385 8.5145 68.3173C8.51555 66.2679 8.51792 64.2185 8.52132 62.1691C8.52481 60.0587 8.5275 57.9482 8.52911 55.8377C8.52921 55.7075 8.52931 55.5774 8.52941 55.4432C8.52991 54.7901 8.53039 54.137 8.53086 53.4839C8.5348 48.0693 8.54152 42.6547 8.54998 37.2401C8.34376 37.2467 8.13754 37.2534 7.92506 37.2602C7.65046 37.2655 7.37585 37.2707 7.10123 37.2758C6.96579 37.2805 6.83035 37.2853 6.6908 37.2902C5.47769 37.3069 4.54366 36.9426 3.64477 36.1038C2.59306 34.8266 2.84966 33.044 2.86334 31.4808C2.86245 31.1202 2.86116 30.7597 2.85949 30.3992C2.85753 29.6453 2.86036 28.8916 2.86659 28.1378C2.87417 27.1742 2.8698 26.2112 2.86184 25.2476C2.85702 24.5037 2.85857 23.7598 2.86201 23.0158C2.86289 22.6607 2.86182 22.3056 2.85871 21.9505C2.83742 18.8361 2.83742 18.8361 3.66852 17.8445C4.4933 17.0889 5.1653 16.8634 6.28019 16.8496C6.62816 16.8439 6.62816 16.8439 6.98317 16.8381C7.23276 16.8359 7.48236 16.8337 7.73952 16.8315C7.99828 16.8279 8.25705 16.8242 8.51581 16.8203C9.19548 16.8106 9.87515 16.803 10.5549 16.796C11.249 16.7884 11.9431 16.7786 12.6372 16.7691C13.9981 16.7507 15.359 16.7347 16.72 16.7201C16.6286 16.6181 16.5373 16.5161 16.4431 16.411C16.3233 16.2759 16.2035 16.1408 16.08 16.0016C15.9612 15.8682 15.8425 15.7348 15.7201 15.5974C13.9765 13.4988 13.1679 10.475 13.3 7.79013C13.4667 7.22921 13.6368 7.06471 14.0956 6.69763C14.7848 6.39131 15.2119 6.35513 15.96 6.46013C16.7438 6.97136 17.042 7.16612 17.261 8.08775C17.2786 8.34059 17.292 8.59375 17.3019 8.84701C17.4842 11.0224 18.2262 12.8492 19.76 14.4401C20.1308 14.7402 20.4824 14.9659 20.9 15.2001C20.8588 15.0982 20.8177 14.9964 20.7753 14.8914C19.9442 12.5521 20.1055 10.0547 21.09 7.79013C22.2642 5.57366 24.0657 4.18497 26.3514 3.1997C28.6599 2.61371 31.2978 2.72318 33.3926 3.88576ZM25.27 8.17013C24.2015 9.57394 23.796 10.8888 24.0276 12.644C24.2848 13.8145 24.9249 14.9858 25.84 15.7701C27.2542 16.6466 28.4946 16.9363 30.1551 16.9287C30.3914 16.9281 30.6278 16.9275 30.8713 16.9268C31.1155 16.9252 31.3596 16.9236 31.6112 16.922C31.8598 16.9212 32.1084 16.9203 32.3646 16.9194C32.9764 16.9172 33.5882 16.9141 34.2 16.9101C34.219 16.1096 34.2327 15.3092 34.2417 14.5085C34.2455 14.237 34.2507 13.9656 34.2573 13.6943C34.3081 11.5652 34.1773 9.50619 32.6377 7.87252C31.5573 7.00107 30.1333 6.57791 28.7568 6.59595C27.5026 6.74804 26.1449 7.24379 25.27 8.17013ZM53.154 8.15381C51.5541 10.0523 51.6513 12.1808 51.6681 14.5351C51.669 14.7639 51.6698 14.9926 51.6707 15.2283C51.6729 15.7889 51.676 16.3495 51.68 16.9101C52.4334 16.9196 53.1867 16.9265 53.9402 16.931C54.3205 16.9338 54.7008 16.9387 55.0811 16.9435C57.6116 16.9563 59.1291 16.6523 60.9544 14.8676C61.8303 13.5663 62.1404 12.1161 61.8576 10.5696C61.5529 9.32639 61.0295 8.4225 60.04 7.60013C57.7612 6.27439 55.1238 6.2637 53.154 8.15381ZM39.0324 12.5594C37.9415 14.0041 37.962 14.9335 37.81 16.9101C41.1958 16.9101 44.5816 16.9101 48.07 16.9101C48.07 15.0239 47.8376 13.4637 46.5077 12.0525C45.4293 11.1827 44.0004 10.7525 42.6253 10.7782C41.2055 10.9438 39.9798 11.4825 39.0324 12.5594ZM6.64998 20.5201C6.64998 24.7837 6.64998 29.0473 6.64998 33.4401C15.7415 33.4401 24.833 33.4401 34.2 33.4401C34.2 29.1765 34.2 24.9129 34.2 20.5201C25.1085 20.5201 16.017 20.5201 6.64998 20.5201ZM37.81 20.5201C37.81 24.7837 37.81 29.0473 37.81 33.4401C41.1958 33.4401 44.5816 33.4401 48.07 33.4401C48.07 29.1765 48.07 24.9129 48.07 20.5201C44.6842 20.5201 41.2984 20.5201 37.81 20.5201ZM51.68 20.5201C51.68 24.7837 51.68 29.0473 51.68 33.4401C60.8342 33.4401 69.9884 33.4401 79.42 33.4401C79.42 29.1765 79.42 24.9129 79.42 20.5201C70.2658 20.5201 61.1116 20.5201 51.68 20.5201ZM12.16 37.2401C12.1434 44.8104 12.1434 44.8104 12.1322 52.3808C12.131 53.4013 12.1299 54.4218 12.1287 55.4423C12.1285 55.5702 12.1284 55.6981 12.1282 55.8299C12.1257 57.8947 12.1212 59.9595 12.116 62.0244C12.1107 64.1435 12.1076 66.2626 12.1064 68.3817C12.1056 69.572 12.1039 70.7622 12.0997 71.9525C12.0959 73.0725 12.0947 74.1925 12.0955 75.3125C12.0954 75.7238 12.0942 76.1351 12.092 76.5464C12.0892 77.1077 12.0899 77.6688 12.0914 78.2301C12.0898 78.3931 12.0881 78.5561 12.0864 78.7241C12.0934 79.6575 12.1753 80.3411 12.73 81.1301C19.3758 83.7885 27.0422 81.5101 34.2 81.5101C34.2 66.901 34.2 52.2919 34.2 37.2401C26.9268 37.2401 19.6536 37.2401 12.16 37.2401ZM37.81 37.2401C37.81 51.8492 37.81 66.4583 37.81 81.5101C40.6942 81.5101 43.5784 81.5101 46.55 81.5101C46.4246 81.4474 46.2992 81.3847 46.17 81.3201C46.0412 81.0043 45.9151 80.6874 45.79 80.3701C45.5998 80.0224 45.3984 79.6825 45.1968 79.3413C42.1223 74.1179 41.0641 67.4412 42.4999 61.5342C42.5815 61.2257 42.6649 60.9177 42.75 60.6101C42.7948 60.4469 42.8397 60.2836 42.8859 60.1154C43.8716 56.6459 45.4806 53.1295 48.07 50.5401C48.0879 50.1263 48.0923 49.7119 48.0916 49.2977C48.0916 49.1679 48.0916 49.0382 48.0916 48.9045C48.0915 48.4737 48.09 48.043 48.0885 47.6122C48.0882 47.3143 48.0879 47.0164 48.0877 46.7184C48.087 45.9329 48.0851 45.1473 48.083 44.3617C48.0807 43.4199 48.0799 42.4781 48.0788 41.5364C48.0769 40.1043 48.0733 38.6722 48.07 37.2401C44.6842 37.2401 41.2984 37.2401 37.81 37.2401ZM51.68 37.2401C51.7427 40.3751 51.8054 43.5101 51.87 46.7401C52.5453 46.4025 53.1891 46.0393 53.8412 45.6595C54.2047 45.4523 54.5689 45.2464 54.9335 45.0412C55.2596 44.8573 55.5844 44.6711 55.909 44.4846C57.8801 43.4183 59.958 42.8783 62.13 42.3701C62.3445 42.3189 62.5591 42.2678 62.7801 42.215C65.9861 41.5955 69.4149 41.8636 72.58 42.5601C72.9562 42.6228 73.3324 42.6855 73.72 42.7501C73.72 40.9318 73.72 39.1135 73.72 37.2401C66.4468 37.2401 59.1736 37.2401 51.68 37.2401ZM51.68 51.8701C51.5257 52.0195 51.3714 52.1689 51.2124 52.3229C47.0475 56.6192 45.5171 62.2078 45.5718 68.0461C45.6648 72.8712 47.6518 77.2869 50.73 80.9401C50.9129 81.1683 50.9129 81.1683 51.0996 81.401C54.7189 85.7153 60.0696 87.8396 65.55 88.3501C71.0081 88.7454 76.4554 87.0474 80.625 83.4972C85.4253 79.2739 87.9445 74.0048 88.4042 67.6513C88.4742 64.8782 88.109 61.8446 87.02 59.2801C86.9447 59.0997 86.9447 59.0997 86.8679 58.9155C85.3078 55.226 82.9078 51.9196 79.61 49.5901C79.5061 49.5162 79.4022 49.4423 79.2951 49.3662C70.6403 43.3111 59.1679 44.6199 51.68 51.8701Z" fill="#EB0029"/>
<path d="M72.58 55.2902C73.1359 55.5402 73.3091 55.7472 73.72 56.2402C73.8673 57.5321 73.5248 58.368 72.9422 59.5059C72.8615 59.6694 72.7807 59.833 72.6975 60.0015C72.4395 60.5225 72.1773 61.0413 71.915 61.5602C71.7445 61.9027 71.5743 62.2454 71.4044 62.5882C70.99 63.4224 70.5724 64.255 70.1534 65.0869C69.1484 67.082 68.155 69.0816 67.1888 71.0959C67.0839 71.3134 66.9791 71.5309 66.8711 71.755C66.3663 72.804 65.8657 73.8547 65.3756 74.9107C65.2477 75.1847 65.2477 75.1847 65.1172 75.4642C64.959 75.804 64.8021 76.1443 64.6469 76.4854C64.282 77.267 63.9696 77.9314 63.27 78.4702C62.5339 78.671 62.1237 78.7396 61.4175 78.4346C60.979 78.0814 60.6888 77.8255 60.42 77.3302C60.3199 76.3542 60.5992 75.6668 61.0316 74.8142C61.0954 74.6839 61.1593 74.5535 61.2251 74.4192C61.4297 74.0031 61.6373 73.5885 61.845 73.174C61.9788 72.9029 62.1124 72.6318 62.2458 72.3605C62.7745 71.2879 63.3095 70.2185 63.8475 69.1505C64.686 67.4844 65.4958 65.807 66.2856 64.1173C66.4816 63.6982 66.6782 63.2795 66.875 62.8608C67.4561 61.6242 68.0358 60.3869 68.6123 59.1481C68.779 58.7924 68.9457 58.4366 69.1125 58.0809C69.185 57.9236 69.2574 57.7663 69.3321 57.6042C70.0619 56.0533 70.6911 54.9894 72.58 55.2902Z" fill="#EB0029"/>
<path d="M77.9193 70.093C79.5867 71.0502 80.6731 72.2436 81.2517 74.1135C81.5715 75.8304 81.1381 77.311 80.2631 78.7907C79.4185 79.9956 78.0065 80.8308 76.57 81.1301C74.9571 81.3135 73.506 80.978 72.1436 80.0836C71.0425 79.1936 70.3655 78.0967 69.92 76.7601C69.7571 74.683 69.9779 73.246 71.25 71.5945C72.953 69.7864 75.5944 69.0287 77.9193 70.093ZM74.1 74.1001C73.6332 74.8003 73.5868 75.3769 73.72 76.1901C74.0608 76.724 74.2936 77.0469 74.86 77.3301C75.628 77.4059 75.628 77.4059 76.38 77.3301C76.9425 76.8946 76.9425 76.8946 77.33 76.3801C77.3927 76.3174 77.4554 76.2547 77.52 76.1901C77.6487 75.054 77.6487 75.054 77.0688 74.112C76.0467 73.309 75.1543 73.3094 74.1 74.1001Z" fill="#EB0029"/>
<path d="M62.3794 53.9834C63.8393 55.5451 64.3147 57.0215 64.272 59.1275C64.1549 60.7554 63.345 62.0113 62.13 63.0796C60.7334 64.0401 59.2736 64.3823 57.5967 64.1417C55.8645 63.7422 54.5933 62.8172 53.58 61.3696C52.8165 59.8952 52.7843 58.2716 53.1213 56.656C53.6197 55.1906 54.6273 54.0469 55.9825 53.3043C58.225 52.39 60.3569 52.686 62.3794 53.9834ZM57.19 56.9996C56.7529 57.6143 56.6165 57.9678 56.6319 58.7215C56.8505 59.4067 57.0249 59.7527 57.57 60.2296C58.2775 60.4731 58.9346 60.5637 59.6377 60.2705C60.2228 59.8536 60.4992 59.4075 60.6338 58.7215C60.6635 58.1161 60.5839 57.891 60.325 57.3084C59.3336 56.2674 58.3855 56.264 57.19 56.9996Z" fill="#EB0029"/>
</svg>
