<svg width="100" height="100" viewBox="0 0 100 100" fill="none" xmlns="http://www.w3.org/2000/svg">
<g clip-path="url(#clip0_281_6560)">
<path d="M83.9844 14.8442C84.8523 15.6028 85.6922 16.3895 86.5234 17.1879C86.6987 17.3551 86.8739 17.5223 87.0544 17.6945C88.2102 18.8217 89.241 20.0178 90.2344 21.2895C90.4413 21.55 90.4413 21.55 90.6525 21.8159C94.6078 26.9237 97.3628 32.7459 98.9014 39.0141C98.9678 39.2835 98.9678 39.2835 99.0355 39.5583C99.8339 43.0303 100.108 46.4701 100.085 50.0248C100.084 50.3253 100.084 50.3253 100.083 50.6318C100.068 53.7993 99.9223 56.8609 99.2188 59.9613C99.1465 60.2806 99.1465 60.2806 99.0727 60.6062C98.1231 64.6578 96.6614 68.3961 94.7266 72.0707C94.6309 72.258 94.5352 72.4454 94.4366 72.6383C92.5314 76.2775 89.9402 79.4693 87.1094 82.4223C86.9346 82.6073 86.7599 82.7924 86.5799 82.983C85.2322 84.3762 83.7771 85.564 82.2266 86.7192C82.0577 86.8457 82.0577 86.8457 81.8853 86.9748C72.3021 94.1149 60.1612 97.24 48.3108 95.588C36.3363 93.7314 25.4109 87.5422 18.1641 77.7348C17.9556 77.4765 17.9556 77.4765 17.7429 77.2129C16.8277 76.0352 16.4184 74.941 16.4062 73.4379C16.5858 72.153 17.2104 71.1752 18.1641 70.3129C19.1218 69.6599 20.146 69.5024 21.2891 69.5317C23.1189 69.882 24.0771 70.901 25.1221 72.3637C26.1682 73.7923 27.2883 75.0935 28.5156 76.3676C28.6503 76.5146 28.785 76.6617 28.9238 76.8131C35.3752 83.6485 45.092 87.0045 54.2969 87.3051C55.606 87.3182 56.901 87.2411 58.2031 87.1098C58.3577 87.0945 58.5122 87.0791 58.6714 87.0633C66.5668 86.2161 74.7118 82.6654 80.2025 76.8078C80.4688 76.5629 80.4688 76.5629 80.8594 76.5629C80.9379 76.3873 80.9379 76.3873 81.0181 76.2081C81.2533 75.7755 81.4737 75.5362 81.8359 75.2079C88.2646 68.9119 91.3754 59.177 91.4673 50.3544C91.4283 40.1523 87.1443 30.8591 80.0781 23.6332C79.5777 23.1478 79.0599 22.7015 78.5156 22.266C78.3409 22.123 78.1662 21.98 77.9861 21.8327C70.0649 15.5277 60.1982 12.6091 50.1236 13.7211C44.5089 14.4193 38.5943 16.3848 33.9844 19.727C33.8686 19.8097 33.7527 19.8924 33.6334 19.9777C31.8155 21.2816 30.1262 22.6678 28.5156 24.2192C28.2951 24.4212 28.2951 24.4212 28.0701 24.6273C23.4097 29.0259 20.7048 35.0356 18.75 41.016C18.9301 40.8949 19.1102 40.7737 19.2958 40.6488C19.9704 40.1958 20.6468 39.7454 21.3237 39.2958C21.6153 39.1016 21.9065 38.9067 22.1971 38.711C22.6172 38.4284 23.039 38.1484 23.4611 37.8689C23.5888 37.7822 23.7164 37.6955 23.8479 37.6062C25.1585 36.7457 26.4988 36.1464 28.0869 36.4147C29.5344 36.7831 30.2428 37.3775 31.0295 38.6486C31.5433 39.614 31.5349 40.5335 31.4453 41.602C30.9732 43.0929 30.2098 43.9527 28.9314 44.7857C28.7221 44.9235 28.5128 45.0612 28.2972 45.2031C28.178 45.2815 28.0589 45.3599 27.9361 45.4407C27.1527 45.9593 26.3751 46.4867 25.5966 47.0127C25.2375 47.2551 24.8784 47.4975 24.5193 47.7398C23.968 48.1121 23.4166 48.4843 22.8653 48.8567C22.6855 48.9781 22.5058 49.0994 22.3206 49.2245C22.1415 49.3454 21.9624 49.4663 21.7779 49.5909C21.2435 49.9514 20.7085 50.311 20.1735 50.6707C19.4966 51.1259 18.8232 51.5856 18.152 52.0493C17.9955 52.1563 17.839 52.2634 17.6777 52.3737C17.388 52.5718 17.0994 52.7715 16.8121 52.9731C15.4351 53.9092 14.061 54.473 12.3856 54.224C9.61485 53.5067 8.14902 50.1343 6.70166 47.913C6.26791 47.2495 5.83364 46.5864 5.39932 45.9233C5.2364 45.6743 5.2364 45.6743 5.07019 45.4203C4.3591 44.3349 3.6422 43.2536 2.91977 42.1757C2.82846 42.0394 2.73715 41.9031 2.64308 41.7626C2.29618 41.2451 1.94911 40.7276 1.60072 40.2111C1.36567 39.8625 1.13139 39.5135 0.897215 39.1644C0.765665 38.9692 0.634115 38.774 0.498579 38.573C-0.250034 37.3718 -0.192006 35.7507 -2.16067e-06 34.3754C0.398009 33.315 1.10845 32.4586 2.13928 31.9638C3.37417 31.5702 4.67638 31.4458 5.86881 32.0167C7.41472 32.8694 8.25006 34.2561 9.16748 35.7182C9.36782 36.0316 9.36782 36.0316 9.57222 36.3514C9.89907 36.8634 10.2239 37.3766 10.5469 37.891C10.6187 37.6689 10.6187 37.6689 10.6921 37.4424C13.6857 28.2748 18.576 19.8027 26.3672 13.8676C26.4782 13.7828 26.5892 13.698 26.7035 13.6107C33.4002 8.52183 41.0559 5.32763 49.4141 4.29728C49.6277 4.26966 49.6277 4.26966 49.8456 4.24149C62.0301 2.8281 74.6865 6.92275 83.9844 14.8442Z" fill="#EB0029"/>
<path d="M57.1056 25.6417C57.9377 26.5236 58.4604 27.6707 58.472 28.8848C58.4554 29.222 58.4332 29.5589 58.4064 29.8955C58.3856 30.2815 58.365 30.6675 58.3444 31.0535C58.3255 31.3568 58.3255 31.3568 58.3061 31.6662C58.2414 32.7567 58.2043 33.8482 58.1666 34.9399C58.1587 35.1673 58.1509 35.3948 58.1428 35.6291C57.4813 44.2254 57.4813 44.2254 60.7482 51.7946C62.1161 53.1762 63.6782 54.3346 65.3596 55.3054C66.1509 55.7777 66.6959 56.3363 67.2727 57.0506C67.5898 57.4363 67.9291 57.7794 68.2892 58.1249C68.4637 58.2931 68.4637 58.2931 68.6417 58.4648C68.8786 58.6912 69.1167 58.9165 69.3558 59.1407C70.2649 60.0231 70.7715 60.7821 70.99 62.0586C71.0067 63.4378 70.7374 64.4966 69.9219 65.6253C68.9672 66.5341 68.0572 66.8293 66.7603 66.8582C66.4419 66.8692 66.4419 66.8692 66.1171 66.8804C64.3538 66.667 63.284 65.5422 62.0964 64.3283C61.851 64.0819 61.851 64.0819 61.6006 63.8306C61.0807 63.3076 60.5636 62.7819 60.0464 62.2562C59.6983 61.9058 59.35 61.5556 59.0015 61.2056C58.6658 60.8673 58.3303 60.5288 57.9948 60.1901C57.8402 60.034 57.6855 59.8779 57.5262 59.7171C56.7188 58.896 55.9434 58.0584 55.1913 57.1866C54.7594 56.6962 54.2985 56.2403 53.83 55.7849C53.6412 55.5996 53.4525 55.4142 53.2639 55.2287C52.9735 54.9444 52.6827 54.6606 52.3909 54.3778C52.1042 54.0995 51.8195 53.8193 51.535 53.5388C51.3668 53.3749 51.1986 53.211 51.0252 53.0421C49.9269 51.7852 49.9138 50.6724 49.918 49.0719C49.9163 48.8419 49.9147 48.6118 49.913 48.3747C49.9092 47.746 49.9081 47.1173 49.9084 46.4886C49.9085 45.9624 49.9068 45.4363 49.9052 44.9102C49.9014 43.6683 49.9008 42.4264 49.9022 41.1845C49.9035 39.9061 49.899 38.6279 49.8917 37.3496C49.8857 36.2495 49.8835 35.1494 49.8843 34.0493C49.8847 33.3934 49.8836 32.7375 49.8788 32.0816C49.8745 31.3495 49.8764 30.6176 49.8798 29.8855C49.8773 29.6702 49.8747 29.4548 49.872 29.2329C49.8865 27.8985 50.1035 27.0066 50.9766 25.9769C52.6547 24.4216 55.2607 24.0686 57.1056 25.6417Z" fill="#EB0029"/>
</g>
<defs>
<clipPath id="clip0_281_6560">
<rect width="100" height="100" fill="white"/>
</clipPath>
</defs>
</svg>
