<svg width="34" height="30" viewBox="0 0 34 30" fill="none" xmlns="http://www.w3.org/2000/svg">
<path d="M33.2963 11.8491L17.3437 0.168901C17.1938 0.0591594 17.0129 0 16.8272 0C16.6414 0 16.4605 0.0591594 16.3107 0.168901L0.357942 11.8491C-0.0317099 12.1344 -0.116371 12.6815 0.168966 13.0712C0.454303 13.4608 1.00151 13.5454 1.3911 13.2602L16.8271 1.95816L32.2631 13.2601C32.4127 13.37 32.5934 13.4292 32.779 13.429C33.0482 13.429 33.3139 13.3051 33.4852 13.0711C33.7706 12.6815 33.6859 12.1344 33.2963 11.8491Z" fill="black"/>
<path d="M29.0695 13.459C28.5866 13.459 28.195 13.8505 28.195 14.3334V28.2518H21.1999V20.6543C21.1999 18.2433 19.2383 16.2819 16.8274 16.2819C14.4166 16.2819 12.455 18.2434 12.455 20.6543V28.2519H5.45977V14.3335C5.45977 13.8505 5.06821 13.4591 4.58535 13.4591C4.1025 13.4591 3.71094 13.8505 3.71094 14.3335V29.1264C3.71094 29.6093 4.1025 30.0008 4.58535 30.0008H13.3294C13.7893 30.0008 14.1656 29.6455 14.2004 29.1945C14.2026 29.174 14.2039 29.1517 14.2039 29.1264V20.6543C14.2039 19.2077 15.3808 18.0308 16.8274 18.0308C18.2741 18.0308 19.451 19.2077 19.451 20.6543V29.1264C19.451 29.1515 19.4523 29.1735 19.4544 29.1937C19.4889 29.6451 19.8653 30.0008 20.3254 30.0008H29.0695C29.5525 30.0008 29.9439 29.6093 29.9439 29.1264V14.3335C29.9439 13.8505 29.5524 13.459 29.0695 13.459Z" fill="black"/>
</svg>
