<svg width="20" height="20" viewBox="0 0 20 20" fill="none" xmlns="http://www.w3.org/2000/svg">
<path fill-rule="evenodd" clip-rule="evenodd" d="M4.88634 0.151367C3.63058 0.151367 2.42625 0.650216 1.53829 1.53817C0.650338 2.42613 0.151489 3.63046 0.151489 4.88622V14.3559C0.151489 15.6117 0.650338 16.816 1.53829 17.704C2.42625 18.5919 3.63058 19.0908 4.88634 19.0908H14.356C15.6118 19.0908 16.8161 18.5919 17.7041 17.704C18.592 16.816 19.0909 15.6117 19.0909 14.3559V4.88622C19.0909 3.63046 18.592 2.42613 17.7041 1.53817C16.8161 0.650216 15.6118 0.151367 14.356 0.151367H4.88634ZM9.62119 6.17754C8.70791 6.17754 7.83203 6.54034 7.18625 7.18612C6.54046 7.83191 6.17766 8.70778 6.17766 9.62106C6.17766 10.5343 6.54046 11.4102 7.18625 12.056C7.83203 12.7018 8.70791 13.0646 9.62119 13.0646C10.5345 13.0646 11.4103 12.7018 12.0561 12.056C12.7019 11.4102 13.0647 10.5343 13.0647 9.62106C13.0647 8.70778 12.7019 7.83191 12.0561 7.18612C11.4103 6.54034 10.5345 6.17754 9.62119 6.17754ZM4.4559 9.62106C4.4559 8.25114 5.0001 6.93733 5.96878 5.96865C6.93746 4.99997 8.25127 4.45578 9.62119 4.45578C10.9911 4.45578 12.3049 4.99997 13.2736 5.96865C14.2423 6.93733 14.7865 8.25114 14.7865 9.62106C14.7865 10.991 14.2423 12.3048 13.2736 13.2735C12.3049 14.2422 10.9911 14.7864 9.62119 14.7864C8.25127 14.7864 6.93746 14.2422 5.96878 13.2735C5.0001 12.3048 4.4559 10.991 4.4559 9.62106ZM14.7865 2.73401C14.3298 2.73401 13.8919 2.91541 13.569 3.2383C13.2461 3.5612 13.0647 3.99914 13.0647 4.45578C13.0647 4.91242 13.2461 5.35035 13.569 5.67325C13.8919 5.99614 14.3298 6.17754 14.7865 6.17754C15.2431 6.17754 15.6811 5.99614 16.0039 5.67325C16.3268 5.35035 16.5082 4.91242 16.5082 4.45578C16.5082 3.99914 16.3268 3.5612 16.0039 3.2383C15.6811 2.91541 15.2431 2.73401 14.7865 2.73401Z" fill="white"/>
</svg>
