<svg width="20" height="20" viewBox="0 0 20 20" fill="none" xmlns="http://www.w3.org/2000/svg">
<path d="M4.39172 19.0908H0.464327V6.44618H4.39172V19.0908ZM2.42591 4.72134C1.17033 4.72134 0.151489 3.68137 0.151489 2.42579C0.151489 1.82257 0.391115 1.24407 0.817651 0.817529C1.24419 0.390993 1.82269 0.151367 2.42591 0.151367C3.02912 0.151367 3.60763 0.390993 4.03416 0.817529C4.4607 1.24407 4.70033 1.82257 4.70033 2.42579C4.70033 3.68137 3.68149 4.72134 2.42591 4.72134ZM19.0867 19.0908H15.1677V12.9355C15.1677 11.4685 15.1381 9.58724 13.1258 9.58724C11.0839 9.58724 10.7711 11.181 10.7711 12.8298V19.0908H6.84792V6.44618H10.6147V8.17102H10.6696C11.1938 7.17754 12.4748 6.12911 14.3856 6.12911C18.3595 6.12911 19.0909 8.74596 19.0909 12.1449V19.0908H19.0867Z" fill="white"/>
</svg>
