<svg width="15" height="20" viewBox="0 0 15 20" fill="none" xmlns="http://www.w3.org/2000/svg">
<path d="M8.3586 19.2401C10.2672 16.8515 14.6203 11.0623 14.6203 7.81048C14.6203 3.86668 11.4206 0.666992 7.47682 0.666992C3.53302 0.666992 0.333336 3.86668 0.333336 7.81048C0.333336 11.0623 4.6864 16.8515 6.59505 19.2401C7.05268 19.8093 7.90097 19.8093 8.3586 19.2401ZM7.47682 5.42932C8.10835 5.42932 8.714 5.68019 9.16056 6.12674C9.60711 6.5733 9.85799 7.17896 9.85799 7.81048C9.85799 8.442 9.60711 9.04766 9.16056 9.49422C8.714 9.94077 8.10835 10.1916 7.47682 10.1916C6.8453 10.1916 6.23964 9.94077 5.79309 9.49422C5.34653 9.04766 5.09566 8.442 5.09566 7.81048C5.09566 7.17896 5.34653 6.5733 5.79309 6.12674C6.23964 5.68019 6.8453 5.42932 7.47682 5.42932Z" fill="white"/>
</svg>
