<svg width="20" height="15" viewBox="0 0 20 15" fill="none" xmlns="http://www.w3.org/2000/svg">
<path d="M2.41666 0.333008C1.45052 0.333008 0.666664 1.11686 0.666664 2.08301C0.666664 2.63353 0.925518 3.15124 1.36666 3.48301L9.3 9.43301C9.71562 9.7429 10.2844 9.7429 10.7 9.43301L18.6333 3.48301C19.0745 3.15124 19.3333 2.63353 19.3333 2.08301C19.3333 1.11686 18.5495 0.333008 17.5833 0.333008H2.41666ZM0.666664 4.41634V11.9997C0.666664 13.2867 1.71302 14.333 3 14.333H17C18.287 14.333 19.3333 13.2867 19.3333 11.9997V4.41634L11.4 10.3663C10.5687 10.9898 9.43125 10.9898 8.6 10.3663L0.666664 4.41634Z" fill="white"/>
</svg>
