<svg width="100" height="100" viewBox="0 0 100 100" fill="none" xmlns="http://www.w3.org/2000/svg">
<g clip-path="url(#clip0_281_6546)">
<path d="M47.4441 -0.040055C47.6246 -0.0414339 47.8051 -0.0428127 47.991 -0.0442333C55.5205 -0.0886962 55.5205 -0.0886962 58.789 0.585555C59.0006 0.628514 59.2121 0.671472 59.4301 0.715732C65.2126 1.9162 65.2126 1.9162 66.3208 3.05138C66.8048 3.851 66.8601 4.32501 66.7969 5.27306C66.4426 6.27688 65.9992 6.76386 65.039 7.22618C63.687 7.40773 62.4566 7.05096 61.1694 6.67686C59.6881 6.2685 58.2229 5.92128 56.7016 5.7003C56.5525 5.67857 56.4034 5.65684 56.2497 5.63445C52.0698 5.06608 47.7271 5.00556 43.5547 5.66368C43.3742 5.69207 43.1938 5.72045 43.0078 5.7497C34.2852 7.18485 26.1128 11.0393 19.6586 17.0963C19.2466 17.4792 18.8302 17.8435 18.396 18.2003C17.649 18.8342 17.0346 19.5631 16.4062 20.3121C16.2594 20.4808 16.1127 20.6495 15.9614 20.8233C11.9751 25.4708 9.06818 30.8922 7.22654 36.7184C7.18025 36.864 7.13395 37.0097 7.08626 37.1597C3.52826 48.5677 5.14659 60.8707 10.5957 71.3863C16.0695 81.6546 25.6496 89.4199 36.7515 92.8356C48.6639 96.334 61.0769 94.9619 71.9971 89.0789C74.8881 87.4726 77.5831 85.4722 80.0117 83.2325C80.4618 82.8185 80.9218 82.4187 81.3843 82.0187C82.1964 81.296 82.8984 80.521 83.5937 79.6871C83.74 79.5189 83.8863 79.3508 84.037 79.1775C89.5625 72.7383 93.0194 64.8008 94.3359 56.4449C94.3613 56.2852 94.3867 56.1254 94.4128 55.9608C95.3589 49.6598 94.7896 42.7669 92.7734 36.7184C92.6677 35.8083 92.6893 35.1353 93.0908 34.3014C93.7079 33.6193 94.2085 33.2334 95.1515 33.1776C96.0793 33.229 96.6693 33.411 97.3879 34.0488C97.9138 34.6873 98.0696 35.4528 98.2666 36.2423C98.3146 36.4229 98.3626 36.6035 98.4121 36.7895C98.7298 38.0116 99.0122 39.2416 99.2676 40.4781C99.2971 40.6205 99.3265 40.7629 99.3569 40.9096C99.936 43.9095 100.073 46.8784 100.061 49.9264C100.061 50.116 100.06 50.3056 100.06 50.501C100.05 53.3013 99.9734 56.0362 99.414 58.7887C99.3558 59.0846 99.3558 59.0846 99.2965 59.3865C97.5806 67.9145 93.9802 75.8149 88.2812 82.4215C88.1574 82.567 88.0335 82.7125 87.9059 82.8625C85.6961 85.3891 83.3144 87.8204 80.5983 89.8014C80.2719 90.0398 79.9495 90.283 79.6272 90.527C77.7921 91.8965 75.8343 93.0408 73.8281 94.1403C73.6988 94.2112 73.5695 94.2822 73.4363 94.3553C67.0663 97.8027 59.6537 100.001 52.3842 100.039C52.2083 100.041 52.0324 100.042 51.8513 100.043C44.5184 100.088 44.5184 100.088 41.2109 99.4137C40.9103 99.3539 40.9103 99.3539 40.6036 99.293C31.0908 97.3571 22.4366 93.0764 15.4297 86.3278C15.3009 86.2043 15.1721 86.0808 15.0394 85.9536C13.2903 84.2679 11.6382 82.5629 10.2013 80.6011C9.96134 80.2736 9.71688 79.9498 9.47187 79.6261C8.10287 77.791 6.95864 75.8336 5.85935 73.8278C5.7529 73.6338 5.7529 73.6338 5.6443 73.436C2.22605 67.1198 0.0159036 59.7496 -0.0465603 52.5402C-0.0484643 52.3575 -0.0503683 52.1747 -0.05233 51.9865C-0.0853161 48.0003 -0.0525943 44.1494 0.781229 40.234C0.817799 40.0536 0.854368 39.8731 0.892046 39.6873C2.76997 30.549 7.20709 22.1415 13.6719 15.4293C13.7953 15.3005 13.9188 15.1717 14.046 15.0391C15.7317 13.29 17.4367 11.6378 19.3985 10.201C19.726 9.96097 20.0498 9.71652 20.3735 9.47151C22.2086 8.10251 24.166 6.95828 26.1719 5.85899C26.3658 5.75254 26.3658 5.75254 26.5636 5.64394C32.8646 2.23389 40.2481 -0.00343829 47.4441 -0.040055Z" fill="#EB0029"/>
<path d="M49.9146 14.7947C50.0727 14.7928 50.2307 14.791 50.3936 14.7891C51.6999 14.7963 53.1118 14.86 54.1871 15.6736C54.9164 16.4563 55.0849 17.004 55.066 18.0662C54.835 18.9284 54.5259 19.2869 53.9063 19.9216C53.3368 20.2064 52.8269 20.1493 52.1912 20.1582C51.9169 20.1631 51.6425 20.1683 51.3681 20.1736C51.2244 20.1761 51.0807 20.1787 50.9326 20.1814C43.4685 20.3293 36.5596 22.3348 30.8594 27.3435C30.6136 27.5539 30.6136 27.5539 30.3628 27.7685C24.4904 32.8943 21.0858 40.2997 20.5322 48.0341C20.0812 55.5096 22.5507 63.3268 27.4987 68.9931C28.02 69.576 28.5587 70.1402 29.1016 70.7029C29.2315 70.8429 29.3614 70.9829 29.4953 71.1271C34.3103 76.1849 41.7226 79.1804 48.6329 79.492C48.8534 79.5023 49.074 79.5126 49.3012 79.5232C57.4277 79.714 65.065 76.6127 70.9359 71.0432C75.8927 66.2036 79.5071 59.1992 79.7091 52.1821C79.7088 51.929 79.7085 51.6758 79.7082 51.415C79.7108 51.1326 79.7137 50.8502 79.7169 50.5678C79.7214 50.1301 79.7242 49.6928 79.7217 49.2552C79.7106 46.4987 79.7106 46.4987 80.4421 45.6121C81.1377 44.9503 81.8502 44.8527 82.8004 44.8667C83.6677 44.985 84.207 45.4884 84.7291 46.1546C86.6523 50.5071 84.6134 57.9671 83.0328 62.1211C82.7177 62.9072 82.3825 63.6823 82.0313 64.4529C81.9338 64.667 81.9338 64.667 81.8343 64.8854C77.9552 73.2598 70.6993 79.6047 62.1094 82.8123C59.7475 83.6477 57.3637 84.2242 54.8829 84.5701C54.7547 84.5885 54.6266 84.6069 54.4946 84.6259C49.2209 85.3069 43.8914 84.6552 38.8672 83.0076C38.6582 82.94 38.6582 82.94 38.445 82.8711C29.6684 79.9799 22.7192 73.2474 18.5807 65.1197C14.6289 57.0988 14.043 47.4581 16.8213 38.9792C19.7504 30.365 25.7252 22.871 33.9234 18.7254C34.4606 18.464 35.0023 18.2141 35.5469 17.9685C35.6921 17.9026 35.8372 17.8366 35.9868 17.7686C40.4056 15.7948 45.0876 14.8403 49.9146 14.7947Z" fill="#EB0029"/>
<path d="M83.8379 5.12716C84.5843 5.60214 84.8786 6.00306 85.1562 6.83614C85.173 7.10292 85.1792 7.37045 85.1784 7.63775C85.1784 7.79803 85.1784 7.95831 85.1784 8.12344C85.1774 8.29558 85.1764 8.46772 85.1753 8.64507C85.1749 8.91044 85.1749 8.91044 85.1745 9.18117C85.1734 9.74634 85.1709 10.3115 85.1685 10.8767C85.1675 11.2598 85.1666 11.6429 85.1658 12.026C85.1636 12.9653 85.1603 13.9046 85.1562 14.844C85.3927 14.8409 85.6291 14.8378 85.8727 14.8347C86.7529 14.824 87.633 14.8173 88.5132 14.8118C88.8936 14.8088 89.274 14.8048 89.6544 14.7998C90.2022 14.7926 90.75 14.7893 91.2979 14.7867C91.5516 14.7822 91.5516 14.7822 91.8104 14.7776C92.8022 14.7773 93.4737 14.8836 94.3359 15.4299C94.8997 16.0389 95.1007 16.68 95.2148 17.4929C95.0042 18.9411 93.8358 19.8925 92.8401 20.8825C92.6905 21.0328 92.5408 21.1832 92.3866 21.3381C91.8937 21.8327 91.3994 22.3259 90.905 22.819C90.5615 23.1627 90.2181 23.5065 89.8747 23.8503C89.1561 24.5696 88.4368 25.2881 87.7169 26.0061C86.977 26.7442 86.2379 27.4832 85.4998 28.2232C84.6083 29.117 83.7158 30.0098 82.8225 30.9018C82.482 31.2421 82.1418 31.5826 81.8018 31.9235C81.3278 32.3986 80.8524 32.8724 80.3768 33.3459C80.2358 33.4876 80.0949 33.6293 79.9497 33.7754C79.8202 33.9038 79.6907 34.0322 79.5572 34.1645C79.445 34.2765 79.3328 34.3886 79.2171 34.5041C78.8103 34.8466 78.4729 34.9716 77.9397 34.935C77.7947 34.9124 77.6497 34.8898 77.5003 34.8666C73.852 34.3611 69.8647 33.9999 66.7561 36.29C65.7644 37.1012 64.8375 37.9664 63.9389 38.8788C63.8474 38.9717 63.756 39.0645 63.6617 39.1601C62.531 40.3152 61.4443 41.5076 60.3716 42.7164C59.266 43.9605 58.124 45.1702 56.9826 46.3814C56.7066 46.6743 56.4307 46.9674 56.1548 47.2605C56.0654 47.3555 55.976 47.4505 55.8838 47.5484C55.2741 48.1978 54.6752 48.8562 54.0798 49.5187C53.9215 49.6927 53.7632 49.8668 53.6001 50.0461C53.3063 50.3696 53.015 50.6954 52.7268 51.0239C51.8627 51.9685 51.2832 52.382 50 52.5393C49.1089 52.4184 48.7299 52.2394 48.0713 51.6237C47.6022 50.8924 47.4609 50.4763 47.4609 49.6096C47.8636 48.2911 48.6364 47.5988 49.6522 46.7002C49.9914 46.3927 50.3304 46.085 50.6692 45.777C50.9387 45.5338 50.9387 45.5338 51.2136 45.2856C52.2742 44.3205 53.3139 43.3328 54.3563 42.348C55.4534 41.3121 56.5565 40.2855 57.6848 39.2835C63.1554 34.609 63.1554 34.609 65.4353 28.064C65.485 26.3893 65.3904 24.7109 65.1565 23.0516C64.9882 21.818 64.9882 21.818 65.228 21.1668C65.8213 20.4742 66.449 19.8252 67.0955 19.1823C67.2448 19.0323 67.3942 18.8822 67.548 18.7277C68.041 18.233 68.5355 17.7397 69.03 17.2464C69.3733 16.9029 69.7165 16.5593 70.0597 16.2156C70.8707 15.404 71.6827 14.5933 72.4951 13.783C73.1428 13.1367 73.7895 12.4895 74.4357 11.8417C75.327 10.9482 76.2192 10.0556 77.1123 9.16377C77.4526 8.82367 77.7927 8.48329 78.1325 8.14261C78.607 7.66708 79.0828 7.19283 79.5589 6.71889C79.6994 6.57755 79.84 6.43621 79.9848 6.29058C80.1149 6.16163 80.2449 6.03268 80.3789 5.89982C80.4912 5.78766 80.6035 5.67551 80.7192 5.55995C81.6831 4.73735 82.6588 4.67366 83.8379 5.12716ZM75.928 17.2769C75.3585 17.8153 74.7849 18.3461 74.1953 18.8626C71.1092 21.502 71.1092 21.502 69.819 25.2002C69.746 26.7706 69.8863 28.3303 70.1172 29.883C74.0313 30.4826 74.0313 30.4826 77.6543 29.2516C79.0691 28.1498 80.2636 26.8026 81.4415 25.458C81.9633 24.8705 82.5054 24.3023 83.0456 23.7318C84.9482 22.028 84.9482 22.028 86.1328 20.1174C85.7548 20.103 85.7548 20.103 85.3691 20.0884C85.0337 20.0737 84.6982 20.059 84.3628 20.0441C84.1145 20.0351 84.1145 20.0351 83.8612 20.0258C81.4367 19.9135 81.4367 19.9135 80.5908 19.0676C80.135 18.3313 80.0547 17.6988 80.0163 16.8429C80.0081 16.6691 80 16.4954 79.9915 16.3164C79.9839 16.1367 79.9762 15.9569 79.9683 15.7717C79.9598 15.5889 79.9514 15.4061 79.9427 15.2178C79.922 14.7677 79.9021 14.3176 79.8828 13.8674C78.8496 13.8674 76.7365 16.5114 75.928 17.2769Z" fill="#EB0029"/>
<path d="M49.3652 29.7856C49.5223 29.7772 49.6795 29.7688 49.8414 29.7602C50.9314 29.7481 51.4885 30.0022 52.2844 30.745C52.7865 31.3566 52.8005 32.0327 52.7893 32.8007C52.6743 33.6434 52.1977 34.1895 51.5396 34.6898C50.8134 35.04 50.1198 35.0873 49.3286 35.1445C45.1785 35.5328 41.5827 37.2274 38.8061 40.3569C36.1847 43.6902 35.1628 47.5579 35.5468 51.7582C36.0276 55.5011 38.0248 58.8499 40.8561 61.2965C44.2586 63.9109 48.3347 64.9113 52.5846 64.4012C56.3003 63.7819 59.5894 61.75 61.9018 58.8017C63.7408 56.1846 64.6741 53.4197 64.8714 50.238C64.9491 49.2444 65.1783 48.6508 65.8203 47.852C66.5157 47.2724 67.1048 47.1724 67.984 47.2104C68.7619 47.3258 69.2019 47.7205 69.7479 48.2564C70.2481 49.0316 70.236 49.6212 70.2148 50.5253C70.2123 50.6884 70.2098 50.8515 70.2072 51.0196C70.1143 53.9484 69.2803 56.5797 67.9687 59.1801C67.8665 59.3846 67.7643 59.589 67.6589 59.7996C65.024 64.6581 60.456 67.7399 55.2734 69.3364C54.6226 69.5139 53.9894 69.6453 53.3203 69.727C53.1659 69.7481 53.0116 69.7693 52.8526 69.7911C47.4988 70.4318 42.1925 69.0043 37.8868 65.7681C37.3556 65.3416 36.8389 64.9041 36.3281 64.4536C36.2065 64.3483 36.0849 64.2431 35.9596 64.1346C32.1652 60.6144 30.3368 55.4086 30.0422 50.3628C29.9293 45.3993 31.6091 40.7175 34.7656 36.9145C34.9018 36.7463 35.038 36.5781 35.1783 36.4049C37.8046 33.3128 41.4339 31.3349 45.3124 30.2739C45.4872 30.226 45.6619 30.1782 45.8419 30.1289C47.0009 29.8686 48.1813 29.8214 49.3652 29.7856Z" fill="#EB0029"/>
</g>
<defs>
<clipPath id="clip0_281_6546">
<rect width="100" height="100" fill="white"/>
</clipPath>
</defs>
</svg>
