<svg width="14" height="20" viewBox="0 0 14 20" fill="none" xmlns="http://www.w3.org/2000/svg">
<path d="M0.333336 3.04199C0.333336 1.73203 1.39837 0.666992 2.70834 0.666992H11.0208C12.3308 0.666992 13.3958 1.73203 13.3958 3.04199V17.292C13.3958 18.602 12.3308 19.667 11.0208 19.667H2.70834C1.39837 19.667 0.333336 18.602 0.333336 17.292V3.04199ZM8.05209 17.292C8.05209 16.977 7.92697 16.675 7.70428 16.4523C7.48158 16.2296 7.17953 16.1045 6.86459 16.1045C6.54964 16.1045 6.2476 16.2296 6.0249 16.4523C5.8022 16.675 5.67709 16.977 5.67709 17.292C5.67709 17.6069 5.8022 17.909 6.0249 18.1317C6.2476 18.3544 6.54964 18.4795 6.86459 18.4795C7.17953 18.4795 7.48158 18.3544 7.70428 18.1317C7.92697 17.909 8.05209 17.6069 8.05209 17.292ZM11.0208 3.04199H2.70834V14.917H11.0208V3.04199Z" fill="white"/>
</svg>
