<svg width="100" height="100" viewBox="0 0 100 100" fill="none" xmlns="http://www.w3.org/2000/svg">
<path d="M86.3281 55.8592C86.4696 55.971 86.6111 56.0828 86.7569 56.198C90.8852 59.5978 93.3585 65.1034 93.8843 70.3375C94.3894 76.5947 92.3643 82.2314 88.3545 86.9994C84.2807 91.4494 78.7906 93.6079 72.8683 93.981C67.0281 94.131 61.501 91.8561 57.2411 87.9111C53.1165 83.7244 50.8706 78.2661 50.7202 72.412C50.8129 67.1841 52.5439 62.1145 56.0547 58.203C56.1695 58.0582 56.2843 57.9134 56.4026 57.7643C59.5578 53.8825 64.7342 51.5277 69.6167 50.9032C75.8009 50.2965 81.5201 51.9134 86.3281 55.8592ZM78.7201 64.678C77.6482 65.96 76.6583 67.3077 75.6607 68.6476C74.915 69.6477 74.1579 70.6391 73.4009 71.6307C73.1356 71.9788 72.8704 72.327 72.6051 72.6752C72.1662 73.2512 71.7263 73.8265 71.2852 74.4009C71.1237 74.6127 70.9622 74.8246 70.8008 75.0365C70.6658 75.2125 70.5309 75.3884 70.3918 75.5698C70.0807 75.9486 70.0807 75.9486 70.1172 76.367C68.9982 75.7691 68.0321 75.0568 67.041 74.2674C66.7307 74.0233 66.4202 73.7794 66.1095 73.5358C65.8853 73.3598 65.8853 73.3598 65.6566 73.1803C63.6384 71.5009 63.6384 71.5009 61.1328 71.0936C60.3197 71.3646 60.0122 71.6107 59.4971 72.3021C59.1078 73.0823 59.0095 73.7545 59.1797 74.6092C59.8847 75.7912 60.7348 76.4775 61.853 77.2581C62.1857 77.4962 62.5181 77.7348 62.8502 77.9738C63.019 78.0949 63.1877 78.2161 63.3616 78.341C64.1646 78.9283 64.9424 79.5465 65.7227 80.1634C68.0325 82.172 68.0325 82.172 70.8656 82.9367C72.3377 82.5044 73.0822 81.307 73.9502 80.1268C74.0879 79.9428 74.2256 79.7587 74.3675 79.5691C74.7752 79.0237 75.1807 78.4767 75.5859 77.9295C75.8843 77.5304 76.1835 77.1317 76.4828 76.7332C76.6668 76.4883 76.8505 76.2431 77.0339 75.9978C77.8589 74.8951 78.6934 73.7998 79.5288 72.7049C80.8075 71.0288 80.8075 71.0288 82.0801 69.348C82.206 69.1811 82.3318 69.0141 82.4615 68.8422C83.448 67.5545 83.448 67.5545 83.7891 66.0155C83.6024 65.1629 83.3436 64.59 82.7148 63.9769C81.1726 63.013 79.8654 63.416 78.7201 64.678Z" fill="#EB0029"/>
<path d="M77.1484 15.4292C77.3403 15.5816 77.5321 15.7339 77.7298 15.8908C80.5889 18.2053 83.1886 20.8522 85.3516 23.8277C85.4742 23.9926 85.5968 24.1575 85.7231 24.3274C87.4237 26.6759 88.8003 29.2198 90.0391 31.8355C90.139 32.0422 90.239 32.2489 90.342 32.4619C92.5245 37.2329 95.4483 45.8813 93.7012 51.1226C93.2831 51.8991 92.9044 52.3429 92.1509 52.795C91.0811 53.0565 90.1619 52.893 89.1846 52.4043C88.2673 51.5962 88.0567 50.8125 87.9707 49.6211C87.9465 49.1614 87.924 48.7016 87.9028 48.2417C87.3135 38.4565 83.4362 30.1498 76.7578 23.0464C76.644 22.922 76.5302 22.7977 76.413 22.6695C70.3698 16.2907 60.8309 12.44 52.1408 12.0847C46.2491 11.9419 40.6065 12.7172 35.1563 15.0386C35.0261 15.0934 34.896 15.1481 34.7619 15.2045C30.3214 17.1018 26.5199 19.9252 23.0469 23.2417C22.919 23.3593 22.7911 23.4769 22.6593 23.598C16.2705 29.637 12.4405 39.1812 12.0851 47.8589C11.9427 53.7507 12.7177 59.393 15.0391 64.8433C15.0938 64.9734 15.1486 65.1036 15.205 65.2376C17.1022 69.6781 19.9257 73.4796 23.2422 76.9527C23.3598 77.0806 23.4773 77.2085 23.5985 77.3402C30.0316 84.146 39.7836 87.5583 48.9351 87.9179C50.2275 87.9824 51.0989 88.0865 52.1484 88.8667C52.7411 89.5977 52.8815 90.2778 52.9297 91.2105C52.7729 92.3276 52.3718 92.8316 51.5335 93.5222C48.7711 95.2589 42.6228 93.4235 39.6446 92.7547C33.5279 91.2874 27.7452 88.5311 22.8516 84.5699C22.6597 84.4175 22.4679 84.2652 22.2702 84.1083C19.4111 81.7938 16.8114 79.1469 14.6484 76.1714C14.5258 76.0065 14.4032 75.8416 14.2769 75.6717C7.39412 66.1669 4.8562 54.2332 6.62689 42.699C8.50055 31.5956 14.6891 21.2914 23.8281 14.648C23.993 14.5254 24.1579 14.4028 24.3279 14.2764C39.2345 3.48194 59.6299 3.568 77.1484 15.4292Z" fill="#EB0029"/>
<path d="M50.9766 17.3829C51.9791 17.8933 52.5742 18.4648 52.9297 19.5313C52.9494 19.9909 52.9569 20.4511 52.9584 20.9111C52.9592 21.0525 52.9599 21.1939 52.9606 21.3395C52.9628 21.8145 52.9635 22.2895 52.9643 22.7644C52.9655 23.1045 52.9668 23.4446 52.9682 23.7846C52.9723 24.9026 52.9743 26.0206 52.9762 27.1386C52.977 27.5235 52.9778 27.9084 52.9786 28.2934C52.9824 30.1019 52.9851 31.9103 52.9868 33.7189C52.9887 35.806 52.9938 37.8932 53.0017 39.9803C53.0076 41.5938 53.0105 43.2072 53.0111 44.8207C53.0116 45.7842 53.0134 46.7477 53.0183 47.7112C53.0228 48.6181 53.0236 49.5249 53.0216 50.4318C53.0215 50.7641 53.0228 51.0963 53.0255 51.4286C53.0502 54.6706 53.0502 54.6706 52.1484 55.8595C51.0688 56.715 50.143 56.7527 48.7979 56.7387C48.5062 56.7403 48.5062 56.7403 48.2085 56.7419C47.5683 56.7443 46.9284 56.7411 46.2883 56.7376C45.842 56.7376 45.3958 56.7379 44.9495 56.7385C44.0155 56.7387 43.0815 56.7363 42.1475 56.7318C40.9511 56.7263 39.7548 56.7268 38.5583 56.7293C37.6373 56.7307 36.7163 56.7291 35.7952 56.7267C35.3541 56.7258 34.9129 56.7258 34.4718 56.7265C33.8552 56.7271 33.2387 56.7239 32.6221 56.7196C32.4404 56.7205 32.2586 56.7214 32.0714 56.7223C31.0657 56.7108 30.3607 56.6187 29.4922 56.0548C28.6239 55.0926 28.4471 54.5018 28.4599 53.2311C28.5613 52.3274 29.0348 51.8001 29.6875 51.2086C30.5533 50.6945 31.4548 50.7545 32.4362 50.7592C32.6735 50.7591 32.6735 50.7591 32.9157 50.7591C33.4377 50.7592 33.9598 50.7607 34.4818 50.7623C34.8442 50.7626 35.2065 50.7629 35.5688 50.7631C36.5218 50.7638 37.4748 50.7658 38.4278 50.7679C39.4005 50.7699 40.3733 50.7708 41.346 50.7718C43.2541 50.7739 45.1622 50.7772 47.0703 50.7813C47.0698 50.6214 47.0692 50.4614 47.0687 50.2966C47.0557 46.4039 47.046 42.5112 47.04 38.6186C47.0369 36.7361 47.0328 34.8536 47.0261 32.9712C47.0203 31.3304 47.0165 29.6897 47.0152 28.0489C47.0144 27.1801 47.0126 26.3114 47.0084 25.4426C47.0044 24.6247 47.0032 23.8068 47.004 22.9889C47.0039 22.689 47.0027 22.389 47.0005 22.089C46.9976 21.6788 46.9983 21.2688 46.9999 20.8586C46.9993 20.6293 46.9988 20.3999 46.9982 20.1636C47.1091 19.1914 47.4331 18.5608 48.1567 17.9078C49.0776 17.2703 49.8748 17.2593 50.9766 17.3829Z" fill="#EB0029"/>
</svg>
