<svg width="100" height="100" viewBox="0 0 100 100" fill="none" xmlns="http://www.w3.org/2000/svg">
<path d="M50.7813 1.56277C51.4481 1.83698 52.0478 2.19898 52.6611 2.57595C52.8388 2.68134 53.0164 2.78672 53.1994 2.89529C53.5741 3.11791 53.9479 3.34197 54.3208 3.56739C54.8633 3.89477 55.4084 4.21739 55.9548 4.53823C56.8531 5.06589 57.7496 5.59662 58.6454 6.12849C59.5106 6.64201 60.3766 7.15428 61.2427 7.66629C61.5032 7.82035 61.5032 7.82035 61.7691 7.97752C63.4024 8.94243 65.0393 9.9014 66.6762 10.8601C68.3855 11.8612 70.0927 12.8657 71.7969 13.8753C72.8134 14.4769 73.8318 15.0751 74.852 15.6703C79.2706 18.2488 79.2706 18.2488 80.9937 19.3118C81.1176 19.3872 81.2416 19.4627 81.3693 19.5404C81.9347 19.894 82.2402 20.1379 82.6172 20.7034C82.6558 21.2087 82.6715 21.693 82.6694 22.1983C82.6703 22.3521 82.6712 22.5058 82.6721 22.6642C82.6746 23.1811 82.6743 23.6979 82.6739 24.2147C82.6751 24.5846 82.6764 24.9545 82.6779 25.3244C82.6814 26.3304 82.6823 27.3364 82.6825 28.3424C82.6829 29.1816 82.6843 30.0209 82.6857 30.8601C82.6889 32.8398 82.6899 34.8194 82.6896 36.7991C82.6893 38.8426 82.6935 40.8861 82.6996 42.9296C82.7047 44.6828 82.7068 46.4361 82.7066 48.1894C82.7065 49.237 82.7076 50.2847 82.7117 51.3323C82.7155 52.3176 82.7156 53.3028 82.7127 54.2881C82.7123 54.6499 82.7132 55.0117 82.7156 55.3735C82.7186 55.8671 82.7168 56.3605 82.7138 56.8542C82.7158 56.9976 82.7178 57.141 82.7199 57.2888C82.7071 58.2353 82.506 58.7103 81.8359 59.3753C81.2955 59.7506 81.2955 59.7506 80.6717 60.1077C80.5588 60.1731 80.446 60.2384 80.3297 60.3058C79.962 60.5183 79.5928 60.728 79.2236 60.9378C78.9654 61.0865 78.7073 61.2354 78.4493 61.3845C77.9312 61.6837 77.4127 61.9821 76.8938 62.2798C75.9318 62.8327 74.9774 63.3983 74.0234 63.9651C72.2438 65.019 70.4597 66.0651 68.675 67.1103C67.1356 68.0119 65.5977 68.9158 64.0625 69.8245C62.2841 70.8772 60.5017 71.9229 58.7183 72.9671C56.9139 74.0239 55.1118 75.0844 53.3131 76.1508C53.0002 76.3361 52.6868 76.5207 52.3729 76.7044C52.1042 76.8638 51.8378 77.0272 51.5745 77.1955C50.8107 77.6721 50.3088 77.8974 49.4141 77.7346C48.7661 77.4448 48.166 77.0876 47.5586 76.7215C47.3782 76.6155 47.1978 76.5096 47.012 76.4004C46.4441 76.0662 45.8783 75.7287 45.3125 75.3909C44.9709 75.1892 44.6291 74.9878 44.2871 74.7866C43.5865 74.3741 42.8867 73.9602 42.1875 73.5453C40.8557 72.756 39.5196 71.9739 38.1836 71.1917C35.6336 69.6983 33.0886 68.1965 30.5456 66.6911C30.0277 66.3846 29.5097 66.0781 28.9917 65.7718C28.8187 65.6694 28.6457 65.567 28.4675 65.4616C27.4261 64.846 26.3829 64.2337 25.338 63.6241C20.9159 61.0435 20.9159 61.0435 19.2139 59.9978C19.0304 59.8871 19.0304 59.8871 18.8432 59.7741C18.2107 59.38 17.7538 59.0473 17.3828 58.3987C17.3256 57.8773 17.302 57.4015 17.3058 56.8803C17.3046 56.7264 17.3034 56.5725 17.3022 56.4139C17.2989 55.8976 17.2999 55.3815 17.3008 54.8652C17.2994 54.4953 17.2977 54.1254 17.2958 53.7555C17.2914 52.7503 17.2909 51.7451 17.2912 50.7399C17.2913 49.9011 17.2896 49.0624 17.288 48.2236C17.2842 46.2452 17.2836 44.2667 17.285 42.2882C17.2863 40.2462 17.2818 38.2042 17.2746 36.1621C17.2686 34.4097 17.2663 32.6572 17.2671 30.9048C17.2675 29.8578 17.2664 28.8108 17.2617 27.7638C17.2573 26.7793 17.2577 25.7949 17.2616 24.8104C17.2623 24.4489 17.2613 24.0874 17.2585 23.726C17.255 23.2327 17.2574 22.7399 17.2614 22.2466C17.259 22.1033 17.2565 21.96 17.254 21.8124C17.2672 21.0512 17.3573 20.7343 17.8488 20.1395C18.3335 19.7478 18.8084 19.411 19.3443 19.0936C19.5353 18.9797 19.7263 18.8657 19.923 18.7484C20.1281 18.6281 20.3332 18.5079 20.5444 18.3841C20.7598 18.2563 20.9752 18.1285 21.1971 17.9969C22.9287 16.9712 24.6732 15.9679 26.4188 14.9666C27.8768 14.1287 29.3222 13.2718 30.7617 12.4026C32.6213 11.2798 34.4964 10.1873 36.3808 9.10672C38.0403 8.15275 39.6821 7.17158 41.3206 6.18218C43.4438 4.90343 45.5915 3.66856 47.7427 2.43767C48.0828 2.24089 48.4185 2.03619 48.7498 1.82479C49.4321 1.44356 50.0308 1.41838 50.7813 1.56277ZM48.9365 5.56515C48.7596 5.66984 48.5828 5.77453 48.4006 5.88239C48.2114 5.99573 48.0221 6.10908 47.8272 6.22586C47.5391 6.39719 47.5391 6.39719 47.2453 6.57199C45.6098 7.54837 43.991 8.54993 42.3828 9.57058C43.1122 10.1896 43.8771 10.6661 44.7144 11.1209C46.0087 11.8367 47.2874 12.5759 48.5596 13.3303C48.8333 13.4926 48.8333 13.4926 49.1126 13.6582C49.4856 13.8794 49.8584 14.1007 50.2313 14.3222C51.1017 14.8389 51.9729 15.3543 52.8442 15.8694C53.0179 15.9721 53.1915 16.0747 53.3704 16.1805C55.0035 17.1453 56.6401 18.1041 58.2768 19.0627C59.663 19.8745 61.0484 20.6875 62.4306 21.5059C62.7743 21.7093 63.1183 21.9123 63.4624 22.1149C64.4161 22.6765 65.3654 23.2444 66.3117 23.8185C66.7379 24.0741 67.1641 24.3297 67.5903 24.5852C67.7892 24.7075 67.988 24.8298 68.1929 24.9558C68.379 25.0666 68.5651 25.1775 68.7569 25.2917C69.0028 25.4408 69.0028 25.4408 69.2536 25.593C69.8426 25.8278 70.1055 25.7835 70.7031 25.5862C71.1778 25.3588 71.1778 25.3588 71.6492 25.0666C71.9161 24.9075 71.9161 24.9075 72.1885 24.7452C72.3751 24.632 72.5617 24.5188 72.7539 24.4021C73.0402 24.2306 73.0402 24.2306 73.3323 24.0556C74.7413 23.2097 76.1452 22.3552 77.5391 21.4846C76.982 20.884 76.4338 20.478 75.7217 20.0755C75.5173 19.9589 75.3127 19.8423 75.1021 19.7222C74.8831 19.5988 74.6641 19.4755 74.4385 19.3484C74.0927 19.1517 73.7473 18.9545 73.4018 18.7573C73.1676 18.6236 72.9334 18.49 72.699 18.3566C71.6203 17.7419 70.5502 17.1133 69.4824 16.4798C69.3075 16.3761 69.1326 16.2725 68.9523 16.1657C68.6019 15.958 68.2516 15.7502 67.9013 15.5423C67.0413 15.032 66.1806 14.5229 65.3198 14.0139C65.146 13.9112 64.9723 13.8084 64.7932 13.7026C63.2822 12.8099 61.7682 11.9224 60.2539 11.0354C58.5353 10.0288 56.8175 9.02094 55.1025 8.00808C54.9299 7.9062 54.7572 7.80431 54.5794 7.69933C53.7914 7.2335 53.0053 6.76493 52.2232 6.28918C52.0857 6.20572 51.9482 6.12226 51.8066 6.03627C51.5546 5.88295 51.3031 5.72889 51.0522 5.57393C50.1107 5.00066 49.8697 5.01054 48.9365 5.56515ZM36.6101 12.8374C36.2327 13.0605 35.8543 13.282 35.4759 13.5035C35.2371 13.6446 34.9983 13.7857 34.7595 13.927C34.4315 14.1203 34.4315 14.1203 34.0969 14.3175C33.5779 14.5989 33.5779 14.5989 33.3984 15.0393C33.5267 15.1127 33.655 15.1861 33.7871 15.2618C36.1772 16.6313 38.5598 18.0099 40.918 19.4339C42.5674 20.4298 44.227 21.405 45.8984 22.3636C47.5699 23.3221 49.2295 24.2974 50.8789 25.2932C53.1712 26.677 55.4838 28.0234 57.8115 29.3467C58.2228 29.5857 58.6298 29.8321 59.0335 30.0837C59.2396 30.2109 59.4457 30.338 59.6581 30.469C59.8428 30.5858 60.0275 30.7027 60.2178 30.823C60.8498 31.1025 61.0737 31.0892 61.7188 30.8596C62.1142 30.6537 62.5016 30.432 62.8822 30.1997C63.208 30.0024 63.208 30.0024 63.5403 29.8011C63.7673 29.6616 63.9942 29.5221 64.2212 29.3826C64.4519 29.2422 64.6827 29.102 64.9136 28.9618C65.477 28.6192 66.0396 28.2752 66.6016 27.93C66.1573 27.4454 65.7011 27.1323 65.1321 26.8054C64.9517 26.701 64.7713 26.5966 64.5854 26.4891C64.3887 26.3764 64.192 26.2638 63.9893 26.1477C63.563 25.9014 63.1368 25.655 62.7106 25.4084C62.5989 25.344 62.4873 25.2796 62.3722 25.2132C61.0684 24.4608 59.77 23.6991 58.4717 22.9373C58.2287 22.7948 57.9858 22.6524 57.7428 22.5099C56.1615 21.5826 54.5826 20.6514 53.0051 19.7176C51.3963 18.766 49.7835 17.8211 48.1705 16.8766C46.5608 15.9338 44.9527 14.9882 43.3472 14.0384C42.7002 13.6558 42.0532 13.2733 41.4063 12.8909C41.2724 12.8117 41.1386 12.7326 41.0008 12.651C40.6601 12.4498 40.3191 12.2492 39.978 12.0486C39.8015 11.9446 39.6251 11.8406 39.4432 11.7335C38.5368 11.234 37.4242 12.3555 36.6101 12.8374ZM29.4714 16.9771C29.3144 17.072 29.1573 17.167 28.9955 17.2648C28.8193 17.3701 28.6431 17.4755 28.4616 17.584C28.274 17.699 28.0864 17.8139 27.8931 17.9324C27.7019 18.0475 27.5108 18.1626 27.3139 18.2812C25.6849 19.2656 24.0679 20.2695 22.4609 21.2893C22.9052 21.7739 23.3614 22.087 23.9304 22.4139C24.1107 22.5182 24.2911 22.6226 24.4769 22.73C24.6737 22.8427 24.8705 22.9554 25.0732 23.0716C25.5008 23.3187 25.9283 23.5659 26.3557 23.8131C26.4676 23.8777 26.5795 23.9422 26.6947 24.0087C27.9765 24.7484 29.2533 25.4966 30.5298 26.2454C30.6485 26.315 30.7672 26.3846 30.8896 26.4563C32.8249 27.5906 34.7555 28.7328 36.6844 29.8779C38.3082 30.8412 39.9357 31.7979 41.5649 32.7517C43.3042 33.77 45.0424 34.7901 46.7773 35.8157C46.9523 35.9191 47.1272 36.0225 47.3074 36.129C47.4689 36.2245 47.6303 36.32 47.7966 36.4184C47.9447 36.505 48.0927 36.5915 48.2452 36.6807C48.5596 36.8702 48.8637 37.0768 49.1638 37.2882C49.7777 37.5804 50.1254 37.457 50.7813 37.305C51.2757 37.0812 51.2757 37.0812 51.7464 36.7854C51.9237 36.6793 52.1011 36.5732 52.2838 36.464C52.4687 36.3507 52.6537 36.2375 52.8442 36.1209C53.0342 36.0065 53.2242 35.8922 53.42 35.7744C53.9739 35.4402 54.5263 35.1035 55.0781 34.7659C55.2258 34.6759 55.3735 34.5859 55.5257 34.4931C56.2251 34.0667 56.9224 33.6373 57.6172 33.2034C56.9441 32.6425 56.2627 32.176 55.5054 31.7363C55.3965 31.6727 55.2876 31.6092 55.1754 31.5437C54.8179 31.3353 54.4597 31.128 54.1016 30.9207C53.8484 30.7733 53.5953 30.6258 53.3423 30.4783C52.8162 30.1717 52.29 29.8654 51.7635 29.5595C50.5395 28.8479 49.3174 28.1329 48.0957 27.4173C47.9782 27.3485 47.8608 27.2798 47.7398 27.2089C45.8964 26.1297 44.0638 25.0336 42.2346 23.9305C40.5892 22.9411 38.9277 21.9812 37.2618 21.0267C35.4919 20.01 33.7417 18.9632 31.9981 17.9023C31.8058 17.7858 31.6136 17.6694 31.4156 17.5494C31.2464 17.4463 31.0772 17.3433 30.9029 17.2371C30.2134 16.8247 30.2134 16.8247 29.4714 16.9771ZM20.7031 24.4143C20.6621 28.6213 20.6311 32.8283 20.6121 37.0355C20.603 38.9889 20.5906 40.9423 20.5705 42.8957C20.553 44.5983 20.5417 46.3007 20.5377 48.0034C20.5354 48.905 20.5301 49.8064 20.5173 50.7079C20.5053 51.5567 20.5017 52.4051 20.5043 53.2539C20.5038 53.5653 20.5003 53.8766 20.4936 54.1879C20.4029 55.8456 20.4029 55.8456 21.0889 57.276C21.5367 57.5794 21.9628 57.8004 22.4609 58.0081C22.6391 58.1174 22.8173 58.2268 23.0009 58.3394C23.2276 58.4704 23.2276 58.4704 23.4589 58.6039C23.6355 58.7064 23.8122 58.8089 23.9942 58.9145C24.2745 59.0761 24.2745 59.0761 24.5606 59.241C24.9761 59.482 25.3917 59.7231 25.8072 59.9643C26.025 60.0905 26.2429 60.2168 26.4673 60.3469C27.6487 61.0324 28.8267 61.7238 30.0049 62.4148C30.1253 62.4854 30.2457 62.556 30.3697 62.6287C32.0725 63.627 33.7729 64.6291 35.4714 65.6345C37.2 66.657 38.933 67.6717 40.6663 68.6863C41.7952 69.3473 42.9232 70.0099 44.0483 70.6775C44.2442 70.7936 44.4401 70.9098 44.6419 71.0295C45.004 71.2446 45.3659 71.46 45.7275 71.6758C45.8884 71.7713 46.0493 71.8669 46.2151 71.9653C46.4218 72.0886 46.4218 72.0886 46.6327 72.2143C47.1598 72.5117 47.7002 72.7779 48.2422 73.0471C48.3749 68.8522 48.4746 64.6576 48.5357 60.4609C48.5648 58.5119 48.6044 56.5642 48.6695 54.616C48.7262 52.9165 48.7625 51.2179 48.7751 49.5175C48.7825 48.6176 48.7995 47.7205 48.8411 46.8216C49.1343 43.306 49.1343 43.306 47.9904 40.1079C46.6859 38.8023 44.9616 38.0778 43.2735 37.4031C42.2644 36.9772 41.3561 36.4196 40.4297 35.8401C40.0864 35.6358 39.7426 35.4323 39.3982 35.2298C39.221 35.125 39.0437 35.0203 38.8611 34.9124C37.7251 34.2428 36.5871 33.5768 35.4492 32.9104C33.6186 31.8383 31.7898 30.763 29.9644 29.682C28.9281 29.0689 27.8902 28.4587 26.8509 27.8506C26.724 27.7763 26.597 27.702 26.4662 27.6255C25.8406 27.2594 25.2148 26.8935 24.5888 26.5281C23.6283 25.9665 22.6701 25.4052 21.7331 24.805C21.1631 24.3804 21.1631 24.3804 20.7031 24.4143ZM78.0312 24.908C77.7621 25.0679 77.7621 25.0679 77.4876 25.2311C77.2991 25.3442 77.1107 25.4574 76.9165 25.574C76.7379 25.6804 76.5592 25.7867 76.3752 25.8963C76.0068 26.116 75.6404 26.3389 75.2761 26.5653C74.8013 26.8416 74.3576 27.0731 73.8605 27.2959C72.3149 28.0227 72.3149 28.0227 71.4217 29.4047C71.3015 30.2452 71.3449 31.0795 71.3852 31.9247C71.3888 32.2351 71.3909 32.5456 71.3916 32.856C71.3968 33.6692 71.4186 34.4811 71.4449 35.2938C71.4843 36.5966 71.4987 37.8999 71.5122 39.2032C71.5194 39.6571 71.5339 40.1104 71.5497 40.5641C71.5555 40.8427 71.5612 41.1213 71.5667 41.3998C71.578 41.7634 71.578 41.7634 71.5895 42.1342C71.4537 42.9601 71.145 43.2271 70.5078 43.7503C70.1059 44.017 69.6945 44.2697 69.2764 44.5102C69.1016 44.6116 69.1016 44.6116 68.9233 44.7152C68.549 44.9321 68.1735 45.1469 67.7979 45.3616C67.4121 45.584 67.0266 45.8068 66.6411 46.0297C66.3886 46.1756 66.136 46.3214 65.8833 46.467C65.2031 46.8595 64.5282 47.2586 63.8603 47.6718C63.7272 47.754 63.5941 47.8363 63.457 47.9211C63.1273 48.1266 62.7987 48.334 62.4703 48.5415C61.8745 48.8488 61.4095 48.9771 60.7422 49.0237C60.2876 48.8015 59.9281 48.6002 59.5703 48.2425C59.5462 47.8651 59.5356 47.4868 59.5302 47.1087C59.5244 46.745 59.5244 46.745 59.5184 46.3741C59.5151 46.1075 59.5118 45.841 59.5085 45.5745C59.5045 45.3032 59.5004 45.032 59.4962 44.7608C59.4854 44.0457 59.4758 43.3307 59.4664 42.6156C59.4566 41.8864 59.4457 41.1572 59.4349 40.4281C59.4139 38.9964 59.3941 37.5648 59.375 36.1331C58.6616 36.4115 58.0149 36.7251 57.3532 37.1119C57.1546 37.2279 56.9559 37.3438 56.7513 37.4633C56.5456 37.5842 56.3399 37.7052 56.1279 37.8299C55.9268 37.9471 55.7256 38.0643 55.5183 38.185C54.9135 38.5392 54.3101 38.8942 53.7109 39.2581C53.4507 39.371 53.4507 39.371 53.1852 39.4861C52.5368 39.8077 52.07 40.1062 51.5625 40.6253C51.2463 41.6641 51.2901 42.6836 51.3186 43.7567C51.3192 44.0763 51.3189 44.396 51.3177 44.7156C51.317 45.5809 51.3296 46.4456 51.3447 47.3108C51.3581 48.2158 51.3594 49.1208 51.3619 50.0259C51.3686 51.7387 51.3862 53.4512 51.4078 55.1639C51.4318 57.1141 51.4436 59.0644 51.4544 61.0147C51.4768 65.0257 51.5146 69.0364 51.5625 73.0471C52.2566 72.8214 52.8824 72.6064 53.5042 72.2224C53.6474 72.1351 53.7906 72.0477 53.9382 71.9577C54.1701 71.8142 54.1701 71.8142 54.4067 71.6677C54.7552 71.4554 55.1039 71.2433 55.4527 71.0315C55.6422 70.9163 55.8316 70.8012 56.0268 70.6826C57.1609 69.9993 58.305 69.3329 59.4482 68.6648C59.9381 68.3783 60.4279 68.0917 60.9177 67.805C61.0369 67.7352 61.1562 67.6654 61.2791 67.5935C62.3389 66.973 63.3964 66.3486 64.4531 65.7229C65.9886 64.814 67.5268 63.91 69.0664 63.0083C74.4742 60.2945 74.4742 60.2945 79.2969 56.8362C79.3158 56.4184 79.3207 56 79.3204 55.5819C79.3205 55.4493 79.3207 55.3167 79.3209 55.1802C79.3212 54.7327 79.3201 54.2853 79.3191 53.8378C79.319 53.5184 79.319 53.1989 79.3191 52.8794C79.3192 52.0095 79.3181 51.1395 79.3167 50.2695C79.3155 49.3613 79.3153 48.4531 79.3151 47.545C79.3145 45.824 79.3129 44.103 79.311 42.382C79.3088 40.4232 79.3077 38.4645 79.3067 36.5057C79.3047 32.4753 79.3012 28.4448 79.2969 24.4143C78.7605 24.4143 78.4914 24.633 78.0312 24.908ZM67.025 31.3945C66.7427 31.5623 66.7427 31.5623 66.4547 31.7336C66.1588 31.9113 66.1588 31.9113 65.8569 32.0926C65.6619 32.2087 65.4669 32.3249 65.266 32.4447C64.7341 32.7618 64.2029 33.08 63.6719 33.3987C63.5027 33.4802 63.3336 33.5617 63.1593 33.6457C62.6532 33.9394 62.6532 33.9394 62.5779 34.4555C62.5801 34.6416 62.5822 34.8276 62.5845 35.0193C62.5845 35.2304 62.5846 35.4416 62.5847 35.6591C62.5897 35.8867 62.5948 36.1144 62.6 36.349C62.6013 36.5823 62.6027 36.8155 62.6041 37.0559C62.6096 37.8023 62.6219 38.5484 62.6343 39.2947C62.6392 39.8001 62.6436 40.3056 62.6476 40.811C62.6584 42.0513 62.6748 43.2914 62.6953 44.5315C63.0341 44.3475 63.3728 44.1633 63.7115 43.979C63.9001 43.8764 64.0887 43.7739 64.283 43.6682C65.0726 43.2337 65.8503 42.7806 66.626 42.322C66.773 42.2358 66.9201 42.1496 67.0715 42.0607C67.7542 41.688 67.7542 41.688 68.3594 41.2112C68.3776 40.8875 68.3823 40.563 68.3816 40.2388C68.3815 39.9279 68.3815 39.9279 68.3815 39.6108C68.3805 39.3854 68.3795 39.16 68.3785 38.9277C68.3782 38.6982 68.3779 38.4688 68.3776 38.2323C68.3765 37.4959 68.3741 36.7596 68.3716 36.0232C68.3706 35.5254 68.3697 35.0276 68.3689 34.5298C68.3668 33.3064 68.3635 32.083 68.3594 30.8596C67.803 30.8596 67.5015 31.1097 67.025 31.3945Z" fill="#EB0029"/>
<path d="M95.1172 64.8441C95.6787 65.2347 95.6787 65.2347 96.0937 65.8207C96.2736 67.2408 95.8178 68.0887 95.0928 69.2875C94.9885 69.4646 94.8841 69.6417 94.7767 69.8241C93.1498 72.5411 91.3223 75.1374 89.2578 77.5394C89.0849 77.748 88.9122 77.9568 88.7398 78.1658C86.6035 80.7341 84.2748 83.0993 81.6406 85.1566C81.3068 85.4372 80.9731 85.7179 80.6396 85.9989C78.2123 87.9758 75.6243 89.6505 72.8898 91.1681C72.5047 91.3823 72.1222 91.6002 71.74 91.8194C66.2641 94.9075 60.0637 96.7486 53.9062 97.8519C53.6275 97.904 53.6275 97.904 53.3431 97.9572C47.497 99.0052 40.7933 98.9523 34.9609 97.8519C34.7521 97.8162 34.5432 97.7806 34.3281 97.7438C29.8101 96.9679 25.2552 95.7028 21.0937 93.7504C21.0582 93.906 21.0227 94.0616 20.9862 94.2219C20.3468 96.9169 20.3468 96.9169 19.5801 97.5468C18.8859 97.7203 18.4667 97.6577 17.7734 97.4613C17.2078 97.0505 16.7157 96.5763 16.2109 96.0941C15.9632 95.9068 15.9632 95.9068 15.7104 95.7157C15.1552 95.2459 14.7029 94.7282 14.2319 94.1753C13.9975 93.9022 13.7587 93.6327 13.5147 93.3681C11.2731 90.9359 9.46395 88.2077 7.81249 85.3519C7.74001 85.2284 7.66753 85.1049 7.59286 84.9777C5.4 81.2127 3.89347 76.9994 3.84521 72.62C3.83954 72.4464 3.83388 72.2728 3.82804 72.0939C3.81573 70.8334 3.81573 70.8334 4.25719 70.2C4.92007 69.7721 5.50045 69.7754 6.24999 69.9222C6.75644 70.1278 7.2407 70.3679 7.73238 70.6066C12.0839 72.5157 17.1333 73.145 21.8468 73.2883C22.0761 73.2953 22.3054 73.3023 22.5416 73.3095C22.9921 73.3216 23.4426 73.3309 23.8932 73.3369C24.202 73.3442 24.202 73.3442 24.5171 73.3517C24.6998 73.3543 24.8826 73.3569 25.0709 73.3596C25.6864 73.4531 26.0597 73.6621 26.5625 74.0238C27.1035 75.1057 26.693 76.3529 26.3412 77.4334C26.2853 77.5973 26.2295 77.7612 26.1719 77.9301C26.116 78.1 26.0601 78.2699 26.0025 78.445C25.8657 78.86 25.7268 79.2742 25.5859 79.6879C25.6936 79.7228 25.8012 79.7577 25.9121 79.7937C26.8074 80.0877 27.6901 80.402 28.5689 80.742C34.5938 83.0495 40.8344 84.0992 47.2656 84.3754C47.4147 84.3821 47.5638 84.3889 47.7175 84.3959C62.3556 84.9693 77.9398 79.3077 88.8306 69.5194C89.1035 69.2634 89.3761 69.007 89.6484 68.7504C89.8999 68.5338 90.1522 68.3181 90.4053 68.1034C91.2344 67.3847 92 66.6047 92.7665 65.8204C93.5633 65.0099 93.9562 64.7075 95.1172 64.8441ZM7.22655 74.2191C8.3293 80.6571 11.8607 86.0968 15.979 91.0282C16.0657 91.1329 16.1524 91.2376 16.2417 91.3455C16.7675 91.9668 17.3175 92.4816 17.9687 92.9691C18.0115 92.7926 18.0543 92.6161 18.0984 92.4343C18.1913 92.0887 18.1913 92.0887 18.2861 91.7362C18.345 91.5073 18.404 91.2785 18.4647 91.0427C18.75 90.4301 18.75 90.4301 19.3138 90.0455C19.9361 89.8394 20.1382 89.7918 20.7397 90.0028C20.9097 90.0617 21.0796 90.1206 21.2547 90.1813C21.8682 90.4273 22.4732 90.6881 23.079 90.9522C29.3512 93.6756 36.1428 95.0884 42.9687 95.3129C43.1754 95.3209 43.3821 95.329 43.5951 95.3373C52.2355 95.5077 60.8008 93.3866 68.5547 89.6488C68.7053 89.5767 68.856 89.5045 69.0112 89.4302C75.4431 86.3105 80.5749 81.7884 85.5469 76.7582C84.8767 76.7582 84.7014 76.8802 84.1507 77.2381C83.9887 77.3416 83.8267 77.4451 83.6597 77.5518C83.3975 77.7209 83.3975 77.7209 83.1299 77.8934C79.7896 79.9992 76.3236 81.7424 72.6562 83.2035C72.487 83.2712 72.3177 83.3389 72.1433 83.4086C57.4337 89.2112 40.1948 89.3061 25.5859 83.2035C24.7712 82.8453 23.9686 82.4673 23.1705 82.0736C22.6915 81.809 22.6915 81.809 22.2656 81.8363C21.7699 80.349 22.2004 79.1248 22.6807 77.6874C22.8712 77.1809 22.8712 77.1809 22.8516 76.7582C22.6809 76.7445 22.5102 76.7309 22.3343 76.7168C17.4297 76.3171 12.6796 75.8011 7.96365 74.3143C7.61428 74.2019 7.61428 74.2019 7.22655 74.2191Z" fill="#EB0029"/>
</svg>
