<svg width="100" height="100" viewBox="0 0 100 100" fill="none" xmlns="http://www.w3.org/2000/svg">
<g clip-path="url(#clip0_281_6534)">
<path d="M55.0606 34.6022C57.5024 36.4382 58.0497 40.407 58.5007 43.2144C58.6586 44.4544 58.6415 45.6998 58.6426 46.9481C58.6427 47.0883 58.6428 47.2286 58.643 47.3731C58.6381 50.6553 58.0863 53.5359 57.0312 56.6405C56.9668 56.8338 56.9023 57.0272 56.8359 57.2264C57.0823 57.2247 57.3287 57.2229 57.5826 57.2211C59.9128 57.2053 62.243 57.1936 64.5732 57.1859C65.7711 57.1819 66.9688 57.1764 68.1666 57.1675C69.3241 57.1589 70.4815 57.1543 71.639 57.1523C72.079 57.1508 72.5191 57.148 72.9591 57.1438C78.6466 57.0912 78.6466 57.0912 80.7205 58.837C82.1182 60.2698 82.8101 61.961 82.8979 63.9525C82.832 65.8992 82.0322 67.5715 80.6641 68.9452C79.3993 69.9217 79.3993 69.9217 78.7109 69.9217C78.7814 70.0406 78.8519 70.1594 78.9246 70.2818C79.8552 72.0396 80.0055 73.8469 79.5509 75.7742C79.011 77.2527 78.0773 78.6123 76.7578 79.492C76.6289 79.492 76.5 79.492 76.3672 79.492C76.4354 79.624 76.5036 79.7559 76.5739 79.8918C76.6628 80.066 76.7517 80.2403 76.8433 80.4198C76.9316 80.592 77.02 80.7642 77.1111 80.9416C77.7566 82.3385 77.7601 84.0362 77.4055 85.5192C76.7921 87.1585 75.7959 88.4001 74.4141 89.453C74.4823 89.5849 74.5505 89.7168 74.6208 89.8527C74.7097 90.027 74.7986 90.2012 74.8901 90.3807C74.9785 90.5529 75.0669 90.7251 75.1579 90.9025C75.8676 92.4383 75.8018 94.2775 75.2686 95.8617C74.5503 97.5835 73.5366 98.7396 71.875 99.6092C71.0522 99.9252 70.3677 100.05 69.488 100.055C69.2482 100.057 69.0084 100.059 68.7613 100.061C68.4981 100.062 68.2349 100.062 67.9717 100.063C67.6925 100.065 67.4132 100.067 67.134 100.069C66.3773 100.074 65.6206 100.076 64.8639 100.078C64.3902 100.079 63.9165 100.081 63.4428 100.083C61.958 100.088 60.4732 100.092 58.9884 100.093C57.2795 100.095 55.5707 100.102 53.8618 100.113C52.5376 100.122 51.2135 100.125 49.8892 100.126C49.0999 100.126 48.3106 100.129 47.5213 100.136C46.7777 100.142 46.0343 100.143 45.2907 100.14C45.0196 100.139 44.7484 100.141 44.4773 100.145C41.7981 100.181 40.1324 99.3384 38.2195 97.5203C35.944 95.5661 32.9573 94.5832 30.0781 93.9452C30.0701 94.1425 30.062 94.3399 30.0537 94.5433C29.9174 95.4641 29.4433 96.1181 28.7109 96.6795C27.5629 97.1861 26.6437 97.3508 25.3971 97.3413C25.1457 97.3428 25.1457 97.3428 24.8893 97.3444C24.3399 97.347 23.7907 97.3453 23.2414 97.3433C22.8572 97.3437 22.473 97.3442 22.0888 97.345C21.2855 97.3458 20.4822 97.3446 19.6789 97.3419C18.6513 97.3385 17.6239 97.3404 16.5963 97.3439C15.8036 97.3461 15.0109 97.3454 14.2181 97.3439C13.8393 97.3435 13.4605 97.344 13.0817 97.3453C12.5516 97.3468 12.0217 97.3445 11.4917 97.3413C11.3366 97.3425 11.1814 97.3437 11.0215 97.3449C9.7457 97.3304 8.83603 97.0588 7.84913 96.2035C7.07472 95.2963 6.98209 94.7071 6.97902 93.5084C6.97814 93.3658 6.97725 93.2232 6.97634 93.0763C6.97387 92.5983 6.97419 92.1203 6.97451 91.6423C6.97334 91.2997 6.97201 90.957 6.97054 90.6144C6.96708 89.6834 6.96617 88.7524 6.96592 87.8215C6.96555 87.0444 6.96411 86.2673 6.96273 85.4902C6.95955 83.6569 6.95859 81.8236 6.95887 79.9902C6.95911 78.0988 6.95498 76.2075 6.94882 74.3161C6.94371 72.6924 6.94161 71.0686 6.94186 69.4449C6.94196 68.4751 6.94085 67.5053 6.93671 66.5354C6.93293 65.6232 6.9329 64.7111 6.93574 63.7989C6.93615 63.4643 6.93523 63.1297 6.93287 62.7951C6.92985 62.3379 6.93167 61.8809 6.93468 61.4237C6.93447 61.168 6.93425 60.9123 6.93403 60.6488C7.08053 59.6121 7.55255 59.0179 8.3252 58.3372C9.17793 57.7314 9.8882 57.7809 10.9056 57.7778C11.0844 57.7765 11.2633 57.7752 11.4475 57.7739C12.0412 57.77 12.6349 57.7677 13.2286 57.7658C13.4313 57.765 13.6339 57.7642 13.8427 57.7634C14.9156 57.7593 15.9885 57.7565 17.0615 57.7547C18.1692 57.7525 19.2769 57.7458 20.3846 57.7381C21.2367 57.7329 22.0887 57.7313 22.9407 57.7306C23.349 57.7297 23.7573 57.7274 24.1655 57.7238C24.7378 57.719 25.3098 57.7192 25.8821 57.7206C26.0501 57.718 26.218 57.7155 26.3911 57.713C27.5197 57.7227 28.1751 57.9396 29.1016 58.5936C29.6384 59.2755 29.9622 59.9387 30.2734 60.742C30.3822 60.631 30.491 60.52 30.603 60.4056C31.5665 59.4307 32.5503 58.505 33.5938 57.617C33.7851 57.4496 33.9764 57.2822 34.1736 57.1097C35.6847 55.7963 37.234 54.6271 38.971 53.6192C41.0226 52.3467 42.4366 50.2702 43.457 48.12C43.5183 47.992 43.5796 47.8641 43.6427 47.7322C44.5772 45.6489 44.8226 43.5325 44.9341 41.2718C45.1776 36.5832 45.1776 36.5832 46.9849 34.8387C49.4467 32.7865 52.4297 32.9989 55.0606 34.6022ZM48.8281 37.6952C48.4675 38.4361 48.3776 39.0705 48.3414 39.8894C48.323 40.2426 48.323 40.2426 48.3042 40.603C48.2918 40.8519 48.2794 41.1008 48.2666 41.3573C47.9252 46.9596 46.2388 51.4709 42.1875 55.4686C41.4187 56.1457 40.5968 56.6589 39.7095 57.1654C37.6187 58.3949 35.8535 60.1932 34.0832 61.8372C33.78 62.1176 33.4751 62.396 33.1696 62.6738C33.0155 62.8141 33.0155 62.8141 32.8583 62.9572C32.5753 63.2148 32.2922 63.4723 32.0091 63.7297C31.8231 63.9039 31.637 64.0781 31.4453 64.2577C31.3303 64.3451 31.2152 64.4326 31.0966 64.5228C30.5107 65.0096 30.1338 65.3909 29.9542 66.1452C29.9099 66.7863 29.909 67.4145 29.9229 68.057C29.9227 68.2992 29.9225 68.5413 29.9223 68.7908C29.9231 69.4515 29.9299 70.1116 29.9395 70.7723C29.9481 71.4638 29.9489 72.1553 29.9505 72.8469C29.9547 74.155 29.9659 75.4629 29.9797 76.7709C29.995 78.2606 30.0025 79.7504 30.0093 81.2402C30.0236 84.3034 30.0476 87.3664 30.0781 90.4295C30.2809 90.4879 30.2809 90.4879 30.4877 90.5475C31.1054 90.7256 31.7228 90.9045 32.3402 91.0834C32.5529 91.1446 32.7655 91.2058 32.9846 91.2689C36.1455 92.1861 38.8689 93.5045 41.2937 95.7652C42.7014 97.0372 44.2154 96.9316 46.0159 96.9254C46.2612 96.9261 46.5066 96.9268 46.7593 96.9275C47.4292 96.9292 48.0991 96.9286 48.769 96.9273C49.472 96.9263 50.1751 96.9272 50.8782 96.9279C52.0588 96.9286 53.2394 96.9276 54.42 96.9258C55.7821 96.9236 57.1442 96.9243 58.5062 96.9265C59.6785 96.9283 60.8507 96.9285 62.023 96.9275C62.7219 96.9269 63.4208 96.9268 64.1197 96.9281C64.8994 96.9294 65.6791 96.9276 66.4588 96.9254C66.6885 96.9262 66.9182 96.927 67.1548 96.9278C69.2751 96.9289 69.2751 96.9289 71.1548 96.0448C71.9272 95.2543 72.2267 94.6805 72.3511 93.5789C72.3001 92.422 71.8385 91.5384 70.9961 90.7591C70.1747 90.3631 69.37 90.1801 68.4784 90.0015C67.9688 89.8436 67.9688 89.8436 67.5781 89.2577C67.4489 88.0733 67.4489 88.0733 67.8848 87.4564C68.5429 86.9749 68.9709 87.0571 69.7754 87.1092C70.9751 87.1509 71.8954 87.1074 72.8516 86.328C73.7183 85.4879 74.1862 84.8705 74.2676 83.6302C74.2479 82.555 73.8764 81.9091 73.1567 81.1156C72.4203 80.5317 71.5522 80.4134 70.6459 80.2481C70.0221 80.0474 69.8447 79.8635 69.5312 79.2967C69.4509 78.6541 69.4679 78.2627 69.7388 77.6732C70.3067 77.1785 70.7357 77.1839 71.4844 77.1483C71.8062 77.1902 72.1277 77.2351 72.4487 77.2826C73.4926 77.4014 74.1638 77.1944 75 76.5623C75.8795 75.7173 76.3901 75.0181 76.416 73.7669C76.4003 72.8003 76.2022 72.1039 75.502 71.398C74.7473 70.739 74.1666 70.4908 73.1819 70.4596C72.9389 70.45 72.9389 70.45 72.691 70.4401C72.3512 70.4282 72.0115 70.417 71.6717 70.4066C71.5094 70.3999 71.3471 70.3932 71.18 70.3863C71.0323 70.3815 70.8847 70.3766 70.7325 70.3715C70.2584 70.3047 69.9379 70.1726 69.5312 69.9217C69.2293 69.3179 69.2786 68.8291 69.3359 68.1639C69.6383 67.7348 69.6383 67.7348 70.1172 67.3827C70.6352 67.3102 71.0744 67.2827 71.5912 67.2911C71.8051 67.289 71.8051 67.289 72.0233 67.2869C72.6308 67.2812 73.2382 67.2844 73.8457 67.2868C76.2014 67.3298 76.2014 67.3298 78.3203 66.4061C78.9933 65.7154 79.4825 65.0309 79.4991 64.0417C79.4281 63.0087 79.2064 62.3261 78.5156 61.5233C77.5284 60.7623 76.815 60.5244 75.5901 60.5171C75.2964 60.5147 75.2964 60.5147 74.9968 60.5122C74.7832 60.5114 74.5696 60.5106 74.3495 60.5097C74.1237 60.5081 73.8978 60.5065 73.6651 60.5048C73.1746 60.5014 72.684 60.4984 72.1935 60.4959C71.4179 60.4918 70.6424 60.4865 69.8669 60.4809C68.0809 60.4682 66.295 60.4573 64.5091 60.4465C62.8716 60.4366 61.2341 60.4263 59.5966 60.4144C58.7012 60.408 57.8057 60.403 56.9103 60.3983C56.4429 60.3951 55.9754 60.3918 55.508 60.3884C55.294 60.3876 55.08 60.3868 54.8595 60.3859C54.6643 60.3843 54.469 60.3827 54.2679 60.381C54.098 60.38 53.9282 60.379 53.7532 60.3779C53.3203 60.3514 53.3203 60.3514 52.7344 60.1561C52.3902 58.8367 52.7839 58.0512 53.3203 56.8358C55.516 51.5955 56.0592 45.9424 54.4922 40.4295C54.4042 40.0806 54.4042 40.0806 54.3144 39.7246C53.9548 38.4479 53.511 37.5991 52.3438 36.9139C50.9747 36.4575 49.8744 36.721 48.8281 37.6952ZM10.3516 61.1327C10.3516 71.9608 10.3516 82.7889 10.3516 93.9452C15.7656 93.9452 21.1797 93.9452 26.7578 93.9452C26.7578 83.117 26.7578 72.2889 26.7578 61.1327C21.3438 61.1327 15.9297 61.1327 10.3516 61.1327Z" fill="#EB0029"/>
<path d="M50.3838 -0.0898438C50.9692 0.0427526 51.1717 0.32728 51.5625 0.781433C51.8069 1.25346 52.0247 1.71284 52.2316 2.2005C52.3226 2.40882 52.3226 2.40882 52.4155 2.62135C52.609 3.06525 52.7999 3.51021 52.9907 3.95526C53.1166 4.24525 53.2426 4.53517 53.3688 4.82501C53.6196 5.40163 53.8689 5.97885 54.1173 6.5565C54.3708 7.14468 54.6289 7.73054 54.8907 8.31508C54.9862 8.52934 54.9862 8.52934 55.0836 8.74794C55.2047 9.01928 55.3267 9.29025 55.4496 9.56078C55.6991 10.1215 55.8594 10.5117 55.8594 11.133C56.0509 11.1487 56.2424 11.1644 56.4397 11.1806C58.4485 11.3456 60.4569 11.5133 62.4652 11.6831C62.847 11.7153 63.2287 11.747 63.6105 11.7787C64.1804 11.8264 64.7501 11.876 65.3198 11.9265C65.4797 11.9395 65.6397 11.9526 65.8044 11.966C66.7502 12.0527 67.514 12.2179 68.3228 12.7199C68.63 13.2051 68.6441 13.6671 68.6707 14.2321C68.4905 14.8791 68.0694 15.1765 67.5781 15.6252C67.3719 15.8213 67.1659 16.0176 66.9601 16.2142C65.9208 17.1888 64.8822 18.1517 63.7695 19.0432C63.4108 19.3353 63.0528 19.6284 62.6953 19.9221C62.5761 20.0187 62.4569 20.1154 62.3341 20.215C61.9447 20.5348 61.5629 20.8622 61.1816 21.1916C60.996 21.341 60.996 21.341 60.8067 21.4933C60.4579 21.8016 60.2084 22.0668 59.9609 22.4611C59.9256 22.8463 59.9256 22.8463 59.9992 23.2541C60.033 23.4871 60.033 23.4871 60.0675 23.7248C60.2203 24.5757 60.4056 25.4166 60.6026 26.2583C60.691 26.646 60.7794 27.0337 60.8677 27.4214C61.0064 28.0249 61.1456 28.6283 61.2856 29.2316C61.4216 29.8189 61.5554 30.4067 61.689 30.9946C61.7311 31.1733 61.7732 31.3519 61.8166 31.536C62.051 32.5726 62.1821 33.507 62.1094 34.5705C61.7412 35.1022 61.471 35.2938 60.8765 35.5349C59.7468 35.5611 58.6601 34.7974 57.7148 34.2394C57.5989 34.1712 57.4829 34.1029 57.3634 34.0326C57.1179 33.8881 56.8725 33.7431 56.6274 33.5978C56.2465 33.3721 55.8647 33.1478 55.4828 32.9238C54.4268 32.3032 53.3729 31.6806 52.3384 31.0244C52.2051 30.9405 52.0718 30.8567 51.9344 30.7704C51.6034 30.5604 51.275 30.3462 50.9468 30.1317C50.2325 29.8123 49.9625 29.8356 49.2188 30.0783C48.6112 30.3867 48.0378 30.7417 47.4609 31.1037C47.1144 31.3162 46.7678 31.5285 46.4211 31.7408C46.2407 31.8519 46.0603 31.963 45.8745 32.0775C44.9232 32.6607 43.9648 33.2317 43.0054 33.8015C42.8272 33.9084 42.6491 34.0153 42.4656 34.1255C39.9696 35.6088 39.9696 35.6088 39.0137 35.425C38.1417 34.989 38.1417 34.989 37.8906 34.5705C37.8051 33.2496 38.0568 32.0775 38.3606 30.7962C38.4083 30.5883 38.456 30.3804 38.5051 30.1662C38.6567 29.5059 38.8106 28.846 38.9648 28.1862C39.1189 27.5243 39.2724 26.8623 39.4246 26.1999C39.5191 25.7888 39.6147 25.378 39.7115 24.9674C39.776 24.6877 39.776 24.6877 39.8418 24.4023C39.88 24.2391 39.9182 24.076 39.9575 23.9079C40.132 22.9716 40.132 22.9716 39.8042 22.1271C39.6952 22.0289 39.5861 21.9306 39.4737 21.8294C39.292 21.6626 39.292 21.6626 39.1067 21.4925C38.9096 21.3194 38.9096 21.3194 38.7085 21.1428C38.5744 21.0214 38.4404 20.9001 38.3023 20.7751C37.3975 19.9624 36.465 19.1887 35.5148 18.4297C34.475 17.5647 33.4907 16.6347 32.5124 15.701C32.2661 15.4674 32.0145 15.2394 31.7619 15.0125C31.3999 14.5964 31.3391 14.4118 31.3477 13.8674C31.3446 13.674 31.3446 13.674 31.3416 13.4767C31.4941 12.9026 31.7701 12.68 32.2266 12.3049C32.7948 12.1577 32.7948 12.1577 33.4755 12.0867C33.6015 12.0727 33.7276 12.0586 33.8574 12.0442C34.2901 11.9972 34.723 11.9557 35.1562 11.9142C35.488 11.8803 35.8197 11.8461 36.1514 11.8118C37.0469 11.7207 37.9429 11.6348 38.8391 11.551C39.3987 11.4986 39.9583 11.4452 40.5178 11.3916C40.8757 11.3577 41.2337 11.3239 41.5916 11.2902C41.841 11.2664 41.841 11.2664 42.0953 11.2421C42.25 11.2277 42.4047 11.2133 42.5642 11.1985C42.7669 11.1795 42.7669 11.1795 42.9737 11.16C43.3618 11.1328 43.7516 11.133 44.1406 11.133C44.2144 10.8971 44.2882 10.6612 44.3642 10.4181C44.7823 9.16508 45.312 7.96172 45.8374 6.75067C45.9423 6.5081 46.0472 6.26551 46.1521 6.02292C46.3603 5.54161 46.5692 5.06057 46.7783 4.57963C47.038 3.981 47.295 3.38131 47.551 2.7811C47.6877 2.46442 47.8245 2.1478 47.9614 1.83124C48.0219 1.68812 48.0824 1.54501 48.1447 1.39755C48.6649 0.20918 49.087 -0.0348764 50.3838 -0.0898438ZM49.8047 6.05487C49.7092 6.28255 49.6138 6.51023 49.5154 6.74481C49.1599 7.59024 48.8005 8.4339 48.4397 9.2771C48.2843 9.64208 48.1299 10.0075 47.9766 10.3734C47.756 10.8998 47.5314 11.4243 47.3061 11.9486C47.2385 12.1122 47.1709 12.2758 47.1013 12.4443C46.8175 13.0958 46.5904 13.5749 46.0629 14.0585C45.2567 14.3483 44.4686 14.4175 43.618 14.4861C43.4373 14.5026 43.2566 14.5191 43.0705 14.5361C42.4956 14.5882 41.9204 14.6367 41.3452 14.6852C40.9544 14.72 40.5637 14.755 40.173 14.7901C39.2171 14.8758 38.261 14.9583 37.3047 15.0392C37.6505 15.7891 38.0747 16.2107 38.6963 16.7604C38.7928 16.8464 38.8894 16.9324 38.9888 17.0209C39.2727 17.2731 39.5582 17.5234 39.8438 17.7736C39.9825 17.8955 40.1212 18.0173 40.2641 18.1429C40.5107 18.3587 40.7576 18.5741 41.0049 18.7891C43.5486 21.0184 43.5486 21.0184 43.6157 21.8492C43.599 23.5246 43.1426 25.1569 42.7734 26.7824C42.698 27.1216 42.6227 27.4609 42.5476 27.8002C42.3646 28.6251 42.1791 29.4495 41.9922 30.2736C42.716 30.0032 43.3627 29.6736 44.0277 29.281C44.2281 29.1633 44.4285 29.0456 44.635 28.9244C44.8425 28.8016 45.0499 28.6789 45.2637 28.5524C45.8725 28.1936 46.4816 27.8353 47.0921 27.4793C47.4486 27.2703 47.8036 27.0586 48.1564 26.8432C49.6113 25.9782 49.6113 25.9782 50.5859 26.1721C51.1623 26.4176 51.6946 26.721 52.2339 27.0388C52.3869 27.1262 52.5399 27.2137 52.6975 27.3039C53.8362 27.9586 54.9651 28.6316 56.0821 29.3226C56.7089 29.7071 57.3226 30.0099 58.0078 30.2736C57.9368 29.9606 57.9368 29.9606 57.8644 29.6412C57.6876 28.8591 57.5135 28.0763 57.3402 27.2934C57.2652 26.9561 57.1894 26.6189 57.1129 26.2819C56.0771 21.7158 56.0771 21.7158 56.7322 20.6095C56.8631 20.4994 56.994 20.3894 57.1289 20.2761C57.2734 20.1494 57.4179 20.0228 57.5668 19.8923C57.7124 19.7732 57.8579 19.6541 58.0078 19.5314C58.244 19.3201 58.48 19.1085 58.7158 18.8967C59.227 18.454 59.7441 18.0188 60.2631 17.5852C60.4475 17.4299 60.4475 17.4299 60.6357 17.2714C60.882 17.0641 61.1292 16.858 61.3774 16.6531C61.5486 16.5087 61.5486 16.5087 61.7233 16.3614C61.8259 16.276 61.9285 16.1906 62.0341 16.1026C62.3465 15.7769 62.5015 15.4444 62.6953 15.0392C62.3302 15.0083 62.3302 15.0083 61.9578 14.9768C61.053 14.8996 60.1486 14.8191 59.2442 14.7376C58.8531 14.7029 58.4619 14.669 58.0706 14.636C57.5075 14.5883 56.9448 14.5375 56.382 14.4861C56.1204 14.465 56.1204 14.465 55.8535 14.4435C54.1841 14.2849 54.1841 14.2849 53.5156 13.6721C53.1839 13.1205 52.9394 12.5426 52.6939 11.9486C52.6216 11.7803 52.5493 11.6121 52.4748 11.4388C52.2451 10.9026 52.0197 10.3648 51.7944 9.82684C51.6392 9.46242 51.4837 9.09811 51.3279 8.73393C50.9471 7.84224 50.5702 6.94902 50.1953 6.05487C50.0664 6.05487 49.9375 6.05487 49.8047 6.05487Z" fill="#EB0029"/>
<path d="M82.1167 12.4021C82.2655 12.3961 82.4143 12.39 82.5676 12.3838C83.2245 12.5568 83.3995 12.9258 83.7891 13.4763C84.0549 13.9742 84.2816 14.4861 84.5062 15.0037C84.5701 15.1483 84.6341 15.293 84.6999 15.442C84.8339 15.746 84.9671 16.0503 85.0997 16.355C85.303 16.8217 85.5091 17.2872 85.7155 17.7526C85.8456 18.0488 85.9756 18.3451 86.1053 18.6414C86.167 18.7806 86.2286 18.9198 86.2921 19.0631C86.5426 19.6422 86.7188 20.0649 86.7188 20.7029C86.9433 20.6976 87.1679 20.6923 87.3993 20.6869C88.68 20.6876 89.9516 20.8045 91.2258 20.921C91.652 20.9594 92.0784 20.9942 92.5049 21.029C92.7785 21.0536 93.0522 21.0784 93.3258 21.1034C93.5713 21.1249 93.8169 21.1464 94.0699 21.1685C94.9417 21.3282 95.4723 21.6439 96.0938 22.2654C96.2155 22.9417 96.2322 23.4135 95.8565 24.0079C94.4739 25.6345 92.7629 26.9829 91.1026 28.3117C90.945 28.4434 90.7874 28.575 90.625 28.7107C90.4694 28.8197 90.3138 28.9287 90.1535 29.041C89.7886 29.5722 89.8163 29.6836 89.9109 30.2991C89.9816 30.6252 90.0572 30.9502 90.1367 31.2742C90.194 31.5318 90.194 31.5318 90.2525 31.7946C90.3724 32.3302 90.4983 32.8642 90.625 33.3982C90.7382 33.889 90.8502 34.38 90.9611 34.8713C91.0283 35.1676 91.0971 35.4634 91.1678 35.7588C91.6218 37.7127 91.6218 37.7127 91.0889 38.635C90.4943 39.1827 90.2654 39.2877 89.4531 39.2576C87.8732 38.619 86.422 37.6525 84.9731 36.7673C84.5404 36.5033 84.1073 36.2398 83.6739 35.9769C83.3903 35.8037 83.3903 35.8037 83.1009 35.6269C82.6158 35.3297 82.6158 35.3297 82.0312 35.156C81.5415 35.3663 81.5415 35.3663 81.0173 35.6939C80.8165 35.8126 80.6157 35.9313 80.4089 36.0536C80.199 36.1804 79.9892 36.3071 79.7729 36.4377C79.5684 36.5592 79.3638 36.6807 79.1531 36.8059C78.3591 37.2781 77.5674 37.7537 76.7791 38.2355C76.6064 38.3406 76.4337 38.4458 76.2558 38.5541C76.1039 38.6474 75.9521 38.7406 75.7957 38.8367C75.2568 39.1368 74.8373 39.272 74.2188 39.2576C73.5295 38.9443 73.2758 38.7221 72.8516 38.0857C72.7576 36.1929 73.4161 34.2352 73.8701 32.4103C73.9691 32.01 74.0647 31.609 74.16 31.2078C74.2181 30.9719 74.2762 30.736 74.336 30.493C74.4191 29.8433 74.3967 29.6251 74.0234 29.1013C73.6765 28.7477 73.3306 28.4166 72.9614 28.0881C72.8576 27.9941 72.7539 27.9002 72.647 27.8033C71.9644 27.1906 71.2616 26.6095 70.5444 26.0374C68.2877 24.2058 68.2877 24.2058 68.0298 23.01C68.1962 22.3292 68.4518 21.9776 68.9453 21.4841C69.6061 21.2639 70.1998 21.2075 70.8939 21.1416C71.0276 21.1288 71.1613 21.1161 71.2991 21.103C71.5824 21.0762 71.8658 21.0498 72.1492 21.0237C72.5775 20.9842 73.0056 20.943 73.4337 20.9016C74.805 20.7721 76.1601 20.6672 77.5391 20.7029C77.6096 20.4748 77.6801 20.2467 77.7527 20.0117C78.1708 18.7589 78.6967 17.5518 79.2218 16.3413C79.3957 15.9395 79.5672 15.5369 79.7386 15.1342C79.8496 14.877 79.9607 14.6199 80.072 14.3629C80.1716 14.1316 80.2712 13.9004 80.3738 13.6622C80.8148 12.7863 81.1185 12.4156 82.1167 12.4021ZM82.0312 18.3591C81.9692 18.505 81.9072 18.6509 81.8433 18.8012C81.5619 19.4603 81.2778 20.1182 80.9937 20.7761C80.8961 21.0057 80.7985 21.2354 80.698 21.4719C80.603 21.691 80.5079 21.91 80.41 22.1357C80.3231 22.3382 80.2361 22.5407 80.1466 22.7494C79.8828 23.2419 79.8828 23.2419 79.2969 23.6326C78.8815 23.7043 78.4628 23.7571 78.0434 23.7989C77.7985 23.8241 77.5537 23.8492 77.3014 23.8752C77.0455 23.8999 76.7896 23.9245 76.5259 23.95C76.2651 23.9763 76.0043 24.0027 75.7435 24.0293C75.1052 24.0938 74.4667 24.1568 73.8281 24.2185C74.0498 24.4398 74.0498 24.4398 74.276 24.6656C74.5664 24.9565 74.8564 25.2479 75.1442 25.5414C75.8719 26.2817 76.6281 26.9709 77.4216 27.6403C77.7344 27.9294 77.7344 27.9294 77.9297 28.3201C77.8381 30.2426 77.3668 32.1103 76.9531 33.9841C77.5847 33.7678 78.1278 33.4825 78.6896 33.1281C78.8283 33.0413 78.967 32.9544 79.11 32.8649C79.3958 32.6843 79.6802 32.5012 79.9629 32.3156C80.9738 31.6909 81.8207 31.3624 83.0078 31.6404C83.7327 31.97 84.3838 32.3848 85.0464 32.8245C85.3912 33.0478 85.7367 33.2699 86.0832 33.4905C86.2336 33.5897 86.3841 33.6889 86.539 33.7912C86.7247 33.8867 86.7247 33.8867 86.9141 33.9841C87.043 33.9197 87.1719 33.8552 87.3047 33.7888C87.2751 33.6648 87.2455 33.5408 87.215 33.413C87.0808 32.8468 86.9486 32.2802 86.8164 31.7136C86.7465 31.4209 86.7465 31.4209 86.6753 31.1223C86.1135 28.6988 86.1135 28.6988 86.5517 27.9256C87.421 26.9911 88.3563 26.1886 89.3646 25.4056C89.8032 25.0341 90.0965 24.6812 90.4297 24.2185C90.2681 24.2048 90.1065 24.1912 89.9401 24.1771C89.3385 24.1246 88.7372 24.0689 88.1361 24.0111C87.7488 23.9748 87.3612 23.9421 86.9736 23.9095C86.7294 23.8856 86.4851 23.8617 86.2335 23.837C86.0085 23.8166 85.7835 23.7961 85.5516 23.775C84.8494 23.6057 84.6175 23.4188 84.1797 22.8513C83.9117 22.3503 83.9117 22.3503 83.6761 21.7924C83.5905 21.5922 83.5049 21.392 83.4167 21.1858C83.3301 20.9781 83.2435 20.7704 83.1543 20.5564C83.0199 20.2403 83.0199 20.2403 82.8827 19.9178C82.6623 19.3989 82.4437 18.8794 82.2266 18.3591C82.1621 18.3591 82.0977 18.3591 82.0312 18.3591Z" fill="#EB0029"/>
<path d="M17.4255 12.3701C17.5726 12.3726 17.7196 12.3752 17.8711 12.3777C18.0181 12.3752 18.1652 12.3727 18.3167 12.3701C18.9617 12.5632 19.145 12.929 19.5312 13.4764C19.7988 13.9905 20.0245 14.5191 20.2484 15.0534C20.3123 15.2028 20.3763 15.3522 20.4421 15.5062C20.5761 15.8202 20.7093 16.1346 20.8419 16.4492C21.0454 16.9321 21.2513 17.414 21.4577 17.8957C21.5878 18.2015 21.7177 18.5073 21.8475 18.8131C21.9092 18.9576 21.9708 19.102 22.0343 19.2509C22.4609 20.2669 22.4609 20.2669 22.4609 20.7029C22.6855 20.6977 22.9101 20.6924 23.1415 20.6869C24.4222 20.6877 25.6938 20.8046 26.968 20.9211C27.3942 20.9594 27.8206 20.9943 28.2471 21.0291C28.5207 21.0537 28.7944 21.0785 29.068 21.1035C29.3135 21.125 29.5591 21.1464 29.812 21.1686C30.494 21.2935 30.8932 21.4618 31.4453 21.8748C31.9157 22.5804 31.9773 22.8004 31.8359 23.6326C31.1671 24.7197 30.1101 25.5218 29.1504 26.3426C29.0336 26.4443 28.9167 26.5461 28.7964 26.6509C28.2342 27.1357 27.6782 27.5859 27.0523 27.986C26.389 28.4541 25.9825 28.7806 25.5859 29.492C25.5132 30.6518 25.893 31.7847 26.2189 32.885C26.4517 33.6909 26.6272 34.5079 26.8066 35.327C26.8406 35.4696 26.8747 35.6122 26.9097 35.7592C27.365 37.7109 27.365 37.7109 26.8311 38.6351C26.2365 39.1827 26.0076 39.2877 25.1953 39.2576C24.0437 38.805 23.0009 38.1384 21.9666 37.4678C21.6276 37.2511 21.2884 37.0348 20.9491 36.8186C20.7184 36.6695 20.4893 36.5179 20.2619 36.3639C18.9669 35.4327 18.9669 35.4327 17.4566 35.2312C16.9299 35.4853 16.4882 35.7882 16.0156 36.1326C15.6111 36.378 15.2051 36.621 14.798 36.862C14.1559 37.2562 13.5153 37.6526 12.8761 38.0514C12.6684 38.1786 12.4607 38.3057 12.2467 38.4367C12.0607 38.5522 11.8747 38.6677 11.6831 38.7867C11.0914 39.083 10.6191 39.2058 9.96094 39.2576C9.27167 38.9443 9.01802 38.7222 8.59375 38.0858C8.49977 36.1929 9.15826 34.2353 9.61232 32.4104C9.7113 32.0101 9.80693 31.6091 9.90219 31.2079C9.96027 30.972 10.0184 30.7361 10.0782 30.493C10.1612 29.8443 10.1383 29.6246 9.76562 29.1014C9.44279 28.7769 9.1075 28.4647 8.76465 28.1614C8.66811 28.0755 8.57157 27.9895 8.47211 27.9009C8.18827 27.6488 7.90276 27.3985 7.61719 27.1483C7.47846 27.0264 7.33974 26.9045 7.19681 26.779C6.95011 26.5631 6.70317 26.3474 6.45599 26.132C5.96634 25.7038 5.47871 25.2735 4.99268 24.8411C4.82777 24.6948 4.66286 24.5486 4.49295 24.3979C3.96318 23.8908 3.914 23.7163 3.84521 22.9734C3.90625 22.2654 3.90625 22.2654 4.26025 21.8016C5.00442 21.2488 5.73373 21.2274 6.63605 21.1416C6.76977 21.1289 6.9035 21.1162 7.04128 21.1031C7.32461 21.0763 7.60798 21.0499 7.89137 21.0238C8.31965 20.9842 8.74776 20.943 9.17587 20.9017C10.5472 20.7721 11.9023 20.6673 13.2812 20.7029C13.354 20.4703 13.4268 20.2377 13.5017 19.998C13.8962 18.8164 14.3797 17.6743 14.8698 16.5297C15.0274 16.1606 15.1826 15.7905 15.3378 15.4203C15.4383 15.1847 15.5389 14.949 15.6425 14.7062C15.7781 14.387 15.7781 14.387 15.9164 14.0614C16.6513 12.6019 16.6513 12.6019 17.4255 12.3701ZM17.7734 18.3592C17.7114 18.5051 17.6494 18.6509 17.5855 18.8012C17.3041 19.4603 17.02 20.1183 16.7358 20.7762C16.6383 21.0058 16.5407 21.2354 16.4402 21.472C16.3452 21.691 16.2501 21.9101 16.1522 22.1357C16.0653 22.3383 15.9783 22.5408 15.8887 22.7494C15.625 23.242 15.625 23.242 15.0391 23.6326C14.6237 23.7043 14.205 23.7572 13.7856 23.799C13.5407 23.8241 13.2959 23.8493 13.0436 23.8752C12.7877 23.8999 12.5317 23.9246 12.2681 23.95C12.0073 23.9763 11.7465 24.0028 11.4857 24.0294C10.8474 24.0939 10.2089 24.1569 9.57031 24.2186C10.13 24.9376 10.6805 25.4903 11.4014 26.0496C13.6064 27.8438 13.6064 27.8438 13.7253 28.7085C13.6899 29.247 13.5905 29.745 13.4766 30.2733C13.4125 30.5901 13.3487 30.907 13.2851 31.2239C13.097 32.1459 12.8982 33.0653 12.6953 33.9842C13.3269 33.7679 13.87 33.4826 14.4318 33.1282C14.5705 33.0413 14.7092 32.9545 14.8521 32.865C15.138 32.6843 15.4224 32.5012 15.7051 32.3156C16.716 31.6909 17.5628 31.3624 18.75 31.6404C19.4749 31.9701 20.126 32.3849 20.7886 32.8245C21.1333 33.0478 21.4789 33.2699 21.8254 33.4906C21.9758 33.5898 22.1262 33.689 22.2812 33.7912C22.4669 33.8867 22.4669 33.8867 22.6562 33.9842C22.7852 33.9197 22.9141 33.8553 23.0469 33.7889C23.0173 33.6649 22.9877 33.5408 22.9572 33.413C22.823 32.8469 22.6908 32.2803 22.5586 31.7137C22.4887 31.421 22.4887 31.421 22.4174 31.1224C21.8524 28.6845 21.8524 28.6845 22.3145 27.912C22.4272 27.7929 22.54 27.6738 22.6562 27.5511C22.7809 27.4192 22.9055 27.2872 23.0339 27.1513C23.8777 26.3283 24.7733 25.5764 25.6836 24.8289C25.9253 24.6235 25.9253 24.6235 26.1719 24.4139C26.1719 24.3494 26.1719 24.285 26.1719 24.2186C26.0103 24.2049 25.8487 24.1912 25.6823 24.1772C25.0806 24.1246 24.4794 24.0689 23.8783 24.0111C23.491 23.9749 23.1034 23.9422 22.7158 23.9096C22.4715 23.8857 22.2273 23.8617 21.9757 23.8371C21.7507 23.8166 21.5257 23.7962 21.2938 23.7751C20.5916 23.6057 20.3597 23.4189 19.9219 22.8514C19.6539 22.3503 19.6539 22.3503 19.4183 21.7924C19.3327 21.5923 19.2471 21.3921 19.1589 21.1859C19.0723 20.9782 18.9857 20.7705 18.8965 20.5565C18.762 20.2404 18.762 20.2404 18.6249 19.9179C18.4045 19.399 18.1858 18.8795 17.9688 18.3592C17.9043 18.3592 17.8398 18.3592 17.7734 18.3592Z" fill="#EB0029"/>
<path d="M20.7031 64.4528C21.165 64.8175 21.418 65.1014 21.6797 65.6247C21.7291 66.3825 21.7392 66.9477 21.2891 67.5778C20.7771 67.9914 20.3471 67.9916 19.7144 67.944C19.1957 67.8581 18.9761 67.7972 18.5547 67.468C18.2721 66.7792 18.2091 66.1523 18.3594 65.4294C19.0165 64.4736 19.5628 64.2662 20.7031 64.4528Z" fill="#EB0029"/>
</g>
<defs>
<clipPath id="clip0_281_6534">
<rect width="100" height="100" fill="white"/>
</clipPath>
</defs>
</svg>
