<svg width="70" height="70" viewBox="0 0 70 70" fill="none" xmlns="http://www.w3.org/2000/svg">
<path d="M35 0C15.7009 0 0 15.7009 0 35C0 54.2991 15.7009 70 35 70C54.2991 70 70 54.2991 70 35C70 15.7009 54.2991 0 35 0ZM35 65.625C18.1133 65.625 4.375 51.8867 4.375 35C4.375 18.1133 18.1133 4.375 35 4.375C51.8867 4.375 65.625 18.1133 65.625 35C65.625 51.8867 51.8867 65.625 35 65.625ZM53.4373 45.6641C49.6129 52.2874 42.7206 56.2417 35.0005 56.2419C27.2802 56.242 20.3875 52.2877 16.5628 45.6641C15.9586 44.6179 16.317 43.28 17.3631 42.6759C18.4096 42.0718 19.7474 42.4303 20.3513 43.4763C23.3852 48.7303 28.8616 51.867 35.0004 51.8669C41.1389 51.8667 46.6149 48.7301 49.6486 43.4763C50.2526 42.43 51.5905 42.0716 52.6367 42.6758C53.683 43.28 54.0414 44.6178 53.4373 45.6641ZM16.2255 26.3789C16.2255 23.9656 18.1889 22.002 20.6024 22.002C23.0159 22.002 24.9793 23.9654 24.9793 26.3789C24.9793 28.7924 23.0159 30.7558 20.6024 30.7558C18.1889 30.7558 16.2255 28.7924 16.2255 26.3789ZM53.7746 26.3789C53.7746 28.7923 51.8112 30.7558 49.3977 30.7558C46.9842 30.7558 45.0208 28.7924 45.0208 26.3789C45.0208 23.9654 46.9842 22.002 49.3977 22.002C51.8111 22.0021 53.7746 23.9656 53.7746 26.3789Z" fill="#E31E24"/>
</svg>
