<svg width="20" height="20" viewBox="0 0 20 20" fill="none" xmlns="http://www.w3.org/2000/svg">
<path d="M19.4534 0.218854C19.8479 0.492235 20.0548 0.964793 19.9806 1.43735L17.4812 17.684C17.4226 18.0628 17.1922 18.3948 16.8563 18.5822C16.5204 18.7697 16.1182 18.7931 15.7628 18.6447L11.0919 16.7037L8.41663 19.5976C8.06905 19.9765 7.52229 20.1015 7.04192 19.914C6.56155 19.7265 6.24911 19.2618 6.24911 18.7463V15.4813C6.24911 15.3251 6.30769 15.1767 6.41314 15.0634L12.9587 7.92038C13.1852 7.67434 13.1774 7.29551 12.943 7.06119C12.7087 6.82686 12.3299 6.81124 12.0838 7.03385L4.14017 14.091L0.69167 12.3648C0.277693 12.1578 0.0121231 11.7438 0.000406773 11.283C-0.0113095 10.8221 0.230828 10.3925 0.629183 10.1621L18.1256 0.164178C18.5434 -0.074054 19.059 -0.0506214 19.4534 0.218854Z" fill="white"/>
</svg>
