<svg width="24" height="20" viewBox="0 0 24 20" fill="none" xmlns="http://www.w3.org/2000/svg">
<path d="M21.5567 4.87369C21.5703 5.07862 21.5703 5.28809 21.5703 5.49301C21.5703 11.8092 16.7615 19.0908 7.97258 19.0908C5.26305 19.0908 2.74933 18.3075 0.636353 16.9459C1.01887 16.9914 1.39229 17.0051 1.78847 17.0051C4.0244 17.0051 6.07818 16.2492 7.72212 14.965C5.6228 14.9194 3.86047 13.5442 3.25481 11.6498C3.55081 11.6953 3.84681 11.7227 4.15647 11.7227C4.58453 11.7227 5.01259 11.6635 5.41332 11.5587C3.22293 11.117 1.58355 9.19073 1.58355 6.86827V6.80907C2.22109 7.16427 2.95881 7.38741 3.74207 7.41473C2.45333 6.55861 1.61087 5.09228 1.61087 3.43468C1.61087 2.54668 1.84767 1.73155 2.26207 1.02115C4.6164 3.92194 8.15018 5.81634 12.1166 6.02126C12.0437 5.66606 11.9982 5.2972 11.9982 4.92834C11.9982 2.29622 14.1294 0.151367 16.7751 0.151367C18.1504 0.151367 19.3936 0.729704 20.2679 1.65869C21.3472 1.45376 22.3855 1.05303 23.3008 0.506566C22.9456 1.6177 22.1896 2.54668 21.2015 3.13868C22.1623 3.03394 23.0959 2.76982 23.952 2.40096C23.3008 3.34816 22.4856 4.19062 21.5567 4.87369Z" fill="white"/>
</svg>
