<svg width="100" height="100" viewBox="0 0 100 100" fill="none" xmlns="http://www.w3.org/2000/svg">
<path d="M95.7031 9.17944C95.894 9.33302 96.0848 9.4866 96.2814 9.64483C97.5815 10.739 98.3095 11.6359 98.5161 13.3451C98.5853 14.9053 98.4151 16.1229 97.4609 17.3826C96.7993 18.1024 96.074 18.7253 95.3125 19.3357C95.1978 19.4289 95.0831 19.5221 94.965 19.6182C90.5292 23.1905 85.4659 25.3362 79.8828 26.3669C79.8828 27.5271 79.8828 28.6873 79.8828 29.8826C80.3469 29.9948 80.8111 30.107 81.2893 30.2226C82.8281 30.5951 84.366 30.9715 85.9035 31.3498C86.8351 31.5789 87.7669 31.8067 88.6995 32.0315C89.6007 32.2488 90.5009 32.4695 91.4007 32.6925C91.7429 32.7768 92.0855 32.8598 92.4283 32.9415C96.7952 33.9846 96.7952 33.9846 98.0469 35.9373C98.5374 36.8689 98.4953 37.7682 98.4943 38.7952C98.4956 38.9837 98.4969 39.1722 98.4982 39.3663C98.5019 39.9893 98.5027 40.6122 98.5031 41.2351C98.5044 41.6699 98.5057 42.1047 98.5071 42.5395C98.5094 43.4517 98.5101 44.3639 98.5099 45.2761C98.5098 46.4396 98.5152 47.6029 98.5219 48.7664C98.5263 49.6652 98.527 50.564 98.5268 51.4628C98.5273 51.8914 98.529 52.3199 98.5321 52.7485C98.5623 57.462 97.3334 60.1311 94.3337 63.7495C94.2339 63.8707 94.1341 63.992 94.0312 64.117C93.7841 64.4121 93.5278 64.6995 93.2701 64.9854C92.9214 65.3937 92.9214 65.3937 93.0175 65.8108C93.2146 66.3484 93.5753 66.7178 93.9348 67.1558C95.788 69.5514 95.5949 72.1838 95.5303 75.0736C95.5167 75.7873 95.5156 76.501 95.5131 77.2147C95.5065 78.5609 95.4889 79.9067 95.4672 81.2527C95.4431 82.7873 95.4314 84.3219 95.4206 85.8567C95.3983 89.0088 95.3602 92.1604 95.3125 95.3123C96.3438 95.3123 97.375 95.3123 98.4375 95.3123C98.4375 96.3435 98.4375 97.3748 98.4375 98.4373C66.4688 98.4373 34.5 98.4373 1.56251 98.4373C1.56251 97.406 1.56251 96.3748 1.56251 95.3123C2.59376 95.3123 3.62501 95.3123 4.68751 95.3123C4.68751 91.1873 4.68751 87.0623 4.68751 82.8123C4.30079 82.6833 3.91407 82.5544 3.51564 82.4216C3.12272 82.1683 3.12272 82.1683 2.79542 81.8845C2.6859 81.7929 2.57638 81.7012 2.46354 81.6068C1.56256 80.5858 1.38331 79.5052 1.41364 78.1866C1.62576 76.5242 2.55985 74.9944 3.32323 73.53C3.62611 72.9478 3.91946 72.3615 4.21182 71.774C4.40265 71.3984 4.594 71.023 4.78593 70.6479C4.87286 70.4746 4.95979 70.3012 5.04936 70.1226C5.75498 68.7829 6.59861 67.8018 8.00782 67.1873C9.4571 67.0177 10.7654 66.9873 11.9827 67.8548C13.3331 69.1508 14.0611 70.9238 14.8973 72.5686C15.0885 72.9423 15.2821 73.3149 15.4781 73.6861C17.6583 77.8172 17.6583 77.8172 17.1875 80.0779C16.77 81.0943 16.1697 81.8285 15.2344 82.4216C14.8477 82.5505 14.4609 82.6794 14.0625 82.8123C14.0625 86.9373 14.0625 91.0623 14.0625 95.3123C17.6719 95.3123 21.2813 95.3123 25 95.3123C25 83.4529 25 71.5935 25 59.3748C24.6133 59.2458 24.2266 59.1169 23.8281 58.9841C23.4352 58.7308 23.4352 58.7308 23.1079 58.447C22.9984 58.3554 22.8889 58.2637 22.776 58.1693C21.8751 57.1483 21.6958 56.0677 21.7261 54.7491C21.9383 53.0867 22.8724 51.5569 23.6357 50.0925C23.9386 49.5103 24.232 48.924 24.5243 48.3365C24.7151 47.9609 24.9065 47.5855 25.0984 47.2104C25.1854 47.0371 25.2723 46.8637 25.3619 46.6851C26.0675 45.3454 26.9111 44.3643 28.3203 43.7498C29.7696 43.5802 31.0779 43.5498 32.2952 44.4173C33.6456 45.7133 34.3736 47.4863 35.2098 49.1311C35.401 49.5048 35.5946 49.8774 35.7906 50.2486C37.9708 54.3797 37.9708 54.3797 37.5 56.6404C37.0825 57.6568 36.4822 58.391 35.5469 58.9841C35.1602 59.113 34.7734 59.2419 34.375 59.3748C34.375 71.2341 34.375 83.0935 34.375 95.3123C37.4688 95.3123 40.5625 95.3123 43.75 95.3123C43.75 87.0623 43.75 78.8123 43.75 70.3123C43.3633 70.1833 42.9766 70.0544 42.5781 69.9216C42.1852 69.6683 42.1852 69.6683 41.8579 69.3845C41.7484 69.2929 41.6389 69.2012 41.526 69.1068C40.6251 68.0858 40.4458 67.0052 40.4761 65.6866C40.6883 64.0242 41.6224 62.4944 42.3857 61.03C42.6886 60.4478 42.982 59.8615 43.2743 59.274C43.4651 58.8984 43.6565 58.523 43.8484 58.1479C43.9354 57.9746 44.0223 57.8012 44.1119 57.6226C44.8175 56.2829 45.6611 55.3018 47.0703 54.6873C48.5196 54.5177 49.8279 54.4873 51.0452 55.3548C52.3956 56.6508 53.1236 58.4238 53.9598 60.0686C54.151 60.4423 54.3446 60.8149 54.5405 61.1861C56.7208 65.3172 56.7208 65.3172 56.25 67.5779C55.8325 68.5943 55.2322 69.3285 54.2969 69.9216C53.9102 70.0505 53.5234 70.1794 53.125 70.3123C53.125 78.5623 53.125 86.8123 53.125 95.3123C57.7656 95.3123 62.4063 95.3123 67.1875 95.3123C67.1467 92.5818 67.1467 92.5818 67.1051 89.7962C67.0931 88.6373 67.0817 87.4784 67.0731 86.3195C67.0592 84.4832 67.043 82.6472 67.0107 80.8112C66.9872 79.4734 66.9722 78.1358 66.967 76.7978C66.964 76.0907 66.957 75.3842 66.9397 74.6773C66.8615 71.3494 66.9851 68.866 69.3419 66.3318C69.5742 66.0175 69.5742 66.0175 69.4793 65.6069C69.3093 65.1648 69.0914 64.8849 68.7805 64.5276C68.6667 64.3944 68.5529 64.2612 68.4356 64.1239C68.3138 63.9827 68.1919 63.8415 68.0664 63.696C67.1974 62.6609 66.3471 61.6257 65.6006 60.4978C65.4712 60.3034 65.3418 60.1091 65.2084 59.9088C63.8713 57.423 63.9457 54.8953 63.9404 52.1482C63.9224 47.1858 63.9224 47.1858 62.2925 42.5413C62.1841 42.3231 62.0757 42.1049 61.964 41.8802C61.6901 41.3298 61.4126 40.7815 61.1328 40.2341C60.6754 39.3194 60.8407 38.1013 60.9375 37.1091C61.3687 35.9354 62.1831 35.2195 63.2187 34.5548C63.8561 34.3016 64.4727 34.2999 65.1489 34.3015C65.2875 34.3018 65.4261 34.3021 65.5688 34.3025C67.3725 34.3441 68.6237 34.9416 70.1172 35.9373C70.1172 32.7791 70.1172 29.6208 70.1172 26.3669C68.8926 26.1091 67.668 25.8513 66.4063 25.5857C66.2774 25.8435 66.1484 26.1013 66.0156 26.3669C65.8498 26.5934 65.6767 26.8146 65.4976 27.0307C65.3953 27.1551 65.2931 27.2795 65.1877 27.4077C65.0783 27.5396 64.9688 27.6715 64.856 27.8074C64.6246 28.0887 64.3934 28.3703 64.1625 28.6519C64.0467 28.793 63.931 28.9341 63.8118 29.0795C63.3252 29.6782 62.8513 30.2865 62.3779 30.8958C61.6039 31.8892 60.8028 32.8545 59.984 33.8113C59.2591 34.6622 58.5677 35.5359 57.882 36.4185C57.0079 37.5394 56.1031 38.6342 55.1942 39.727C55.0832 39.8608 54.9721 39.9947 54.8576 40.1327C54.7588 40.2513 54.66 40.3699 54.5581 40.4921C54.325 40.7848 54.1138 41.0947 53.9063 41.406C53.9823 41.95 54.1649 42.3189 54.4067 42.822C54.9899 44.3636 54.9321 46.4259 54.3701 47.9612C53.5671 49.6345 52.345 50.6994 50.6317 51.3891C48.9451 51.8515 46.9186 51.7871 45.3339 51.0267C43.7091 50.0578 42.6812 48.7086 42.1875 46.8748C42.156 46.3454 42.1415 45.8401 42.1509 45.3123C42.1511 45.1113 42.1511 45.1113 42.1513 44.9064C42.1567 44.2779 42.1893 43.7435 42.3638 43.1371C42.4492 42.5214 42.4492 42.5214 41.8793 42.0125C41.6435 41.8185 41.4042 41.6287 41.1621 41.4426C41.0378 41.3422 40.9134 41.2418 40.7853 41.1384C40.5309 40.9332 40.2752 40.7297 40.0183 40.5277C39.6779 40.2575 39.3455 39.9808 39.0152 39.6985C37.9973 38.7223 37.9973 38.7223 36.7188 38.281C36.3224 38.4803 36.3224 38.4803 35.9375 38.7937C33.3373 40.6436 30.6315 40.8552 27.5391 40.6248C26.711 40.4824 25.9577 40.1922 25.1953 39.8435C24.8702 39.7124 24.5448 39.5819 24.2188 39.4529C24.1647 39.5676 24.1107 39.6824 24.055 39.8006C23.8397 40.212 23.6075 40.5536 23.3238 40.92C23.2236 41.0502 23.1234 41.1803 23.0202 41.3145C22.9122 41.4534 22.8042 41.5924 22.6929 41.7356C22.4617 42.0354 22.2305 42.3353 21.9994 42.6351C21.8811 42.788 21.7629 42.9409 21.6411 43.0985C21.098 43.8019 20.5589 44.5083 20.0195 45.2146C19.8105 45.488 19.6015 45.7614 19.3924 46.0348C19.2358 46.2396 19.2358 46.2396 19.076 46.4486C18.7329 46.8971 18.3898 47.3456 18.0466 47.7941C17.9314 47.9447 17.8162 48.0952 17.6975 48.2503C17.4771 48.5385 17.2566 48.8266 17.0361 49.1147C16.5629 49.7332 16.0904 50.352 15.625 50.9763C15.8343 51.3968 16.0457 51.816 16.2605 52.2336C16.3449 52.3988 16.4292 52.564 16.5161 52.7341C16.601 52.8993 16.6858 53.0645 16.7732 53.2346C17.5488 54.9209 17.4619 57.448 16.8823 59.1917C15.98 61.2518 14.3771 62.8548 12.3169 63.7571C10.3345 64.4012 7.85011 64.3777 5.93492 63.5389C3.95879 62.4457 2.39788 60.8236 1.69145 58.6492C1.2213 56.3096 1.35859 53.9233 2.63826 51.8712C3.87427 50.1552 5.51566 48.8536 7.6172 48.4373C9.42458 48.2732 11.1333 48.3778 12.8906 48.8279C13.0304 48.6408 13.1701 48.4538 13.3141 48.261C14.6801 46.4346 16.0591 44.6184 17.4469 42.8085C18.0079 42.0768 18.5682 41.3447 19.1284 40.6125C19.2299 40.4801 19.3313 40.3477 19.4358 40.2113C20.1244 39.3116 20.8062 38.4072 21.4844 37.4998C21.1926 36.8949 20.8597 36.4064 20.4468 35.8762C18.6765 33.3245 18.4477 30.5627 18.75 27.5388C18.9107 26.6913 19.1546 25.9692 19.5313 25.1951C19.6209 25.0072 19.7105 24.8194 19.8029 24.6259C21.3125 21.6781 23.6903 20.0115 26.7891 18.9237C29.1493 18.3763 31.9917 18.4665 34.1797 19.531C34.3675 19.6206 34.5553 19.7103 34.7489 19.8026C37.6967 21.3123 39.3632 23.6901 40.4511 26.7888C40.6728 27.745 40.6998 28.6476 40.6983 29.6262C40.6982 29.8164 40.6982 30.0066 40.6982 30.2025C40.6727 31.8096 40.4302 33.1714 39.6103 34.5807C39.4256 34.9523 39.4256 34.9523 39.4684 35.3506C39.7252 35.9087 40.0914 36.1606 40.5762 36.5354C40.7688 36.6867 40.9614 36.838 41.1598 36.9939C41.263 37.0748 41.3661 37.1556 41.4724 37.2389C41.8141 37.5136 42.1459 37.7973 42.4767 38.0849C42.5891 38.1825 42.7016 38.28 42.8175 38.3805C43.0369 38.5715 43.2555 38.7634 43.4733 38.9563C44.2017 39.6105 44.2017 39.6105 45.1172 39.8435C45.4812 39.6949 45.4812 39.6949 45.8496 39.4651C46.7178 39.0476 47.5243 38.9863 48.4741 38.989C48.6064 38.9888 48.7386 38.9885 48.8749 38.9883C49.7067 39.0061 50.398 39.152 51.1719 39.4529C51.2259 39.3374 51.28 39.2219 51.3357 39.1029C51.5497 38.696 51.7752 38.3753 52.0668 38.0216C52.167 37.8992 52.2673 37.7768 52.3706 37.6507C52.4785 37.5203 52.5865 37.3899 52.6978 37.2556C52.9284 36.9744 53.1591 36.6931 53.3897 36.4118C53.567 36.1964 53.567 36.1964 53.7479 35.9767C54.2993 35.3062 54.8477 34.6332 55.3955 33.9597C55.5534 33.7658 55.5534 33.7658 55.7146 33.5679C56.3991 32.7252 57.072 31.8743 57.7393 31.0178C58.4316 30.1291 59.1426 29.2611 59.8755 28.4055C60.6198 27.5362 61.3383 26.6515 62.0361 25.7444C62.1194 25.6364 62.2026 25.5283 62.2883 25.417C62.5855 25.0274 62.8663 24.6579 63.0859 24.2185C62.9789 24.1865 62.8718 24.1546 62.7615 24.1217C61.6412 23.7702 60.6405 23.3177 59.6191 22.7415C59.4667 22.6558 59.3142 22.5702 59.157 22.482C57.8767 21.7467 56.7174 20.925 55.582 19.9814C55.2539 19.7101 54.921 19.4455 54.5876 19.1808C53.2449 18.0998 52.1253 17.1177 51.5625 15.4294C51.4021 13.667 51.4431 12.1841 52.5391 10.7419C53.2074 10.0276 53.9298 9.40639 54.6875 8.78882C54.9715 8.55052 54.9715 8.55052 55.2612 8.3074C58.9645 5.31742 63.3577 3.27797 67.9688 2.14819C68.2135 2.08575 68.4582 2.02331 68.7103 1.95898C78.3677 -0.20256 88.249 3.04104 95.7031 9.17944ZM57.4219 10.9373C57.3017 11.0328 57.1816 11.1284 57.0578 11.2269C56.6931 11.5228 56.3364 11.8261 55.9815 12.1335C55.8709 12.2246 55.7603 12.3157 55.6463 12.4096C55.2313 12.7845 54.9195 13.1197 54.7936 13.6738C54.7665 14.2835 54.8226 14.7419 55.1354 15.2692C55.2575 15.3785 55.3796 15.4878 55.5054 15.6003C55.6484 15.7287 55.7914 15.8571 55.9387 15.9894C56.1895 16.1956 56.1895 16.1956 56.4453 16.406C56.6367 16.5636 56.828 16.7212 57.0252 16.8836C60.0498 19.3125 63.7028 21.5924 67.5781 22.2654C67.4089 22.0801 67.2398 21.8948 67.0654 21.7039C64.6796 18.9073 64.0721 16.025 64.2144 12.4531C64.3659 10.5711 65.1307 8.93219 66.2796 7.45062C66.6221 7.00429 66.9059 6.54093 67.1875 6.05444C63.892 6.05444 59.9001 8.95909 57.4219 10.9373ZM82.8125 6.05444C83.1889 6.70457 83.5979 7.29259 84.0576 7.8855C85.8175 10.4338 86.0436 13.1955 85.7422 16.2107C85.5815 17.0584 85.3366 17.7798 84.9609 18.5544C84.8736 18.7423 84.7862 18.9301 84.6962 19.1236C84.1038 20.302 83.4181 21.2065 82.4219 22.0701C82.84 22.333 82.84 22.333 83.4465 22.0968C86.7606 20.9866 89.8506 19.38 92.5781 17.1873C92.6977 17.092 92.8173 16.9967 92.9405 16.8985C93.3057 16.6022 93.663 16.2986 94.0186 15.991C94.1292 15.8999 94.2398 15.8087 94.3538 15.7149C94.7687 15.34 95.0806 15.0048 95.2064 14.4507C95.2335 13.841 95.1775 13.3826 94.8647 12.8553C94.7426 12.746 94.6204 12.6367 94.4946 12.5242C94.3516 12.3958 94.2086 12.2674 94.0613 12.1351C93.8941 11.9976 93.7269 11.8601 93.5547 11.7185C93.3633 11.5609 93.172 11.4033 92.9749 11.2409C90.425 9.1935 86.2386 6.05444 82.8125 6.05444ZM68.7866 9.42358C67.401 11.3409 67.1575 13.3229 67.3828 15.6248C67.7727 17.4865 68.7838 18.9977 70.3125 20.1169C70.3143 19.995 70.3162 19.873 70.318 19.7473C70.3286 19.1868 70.3449 18.6265 70.3613 18.0662C70.3655 17.7784 70.3655 17.7784 70.3697 17.4848C70.4178 16.043 70.6758 14.9683 71.6301 13.8624C71.7936 13.7317 71.7936 13.7317 71.9605 13.5984C72.069 13.5083 72.1775 13.4181 72.2893 13.3253C73.5552 12.4989 74.9038 12.5641 76.3672 12.6951C77.5793 13.0138 78.425 13.8072 79.1016 14.8435C79.4187 15.5335 79.5465 16.0982 79.5731 16.8554C79.5844 17.1414 79.5844 17.1414 79.596 17.4333C79.602 17.6301 79.608 17.8268 79.6143 18.0295C79.6256 18.3303 79.6256 18.3303 79.6372 18.6372C79.6555 19.1304 79.6722 19.6236 79.6875 20.1169C80.4898 19.4711 81.1814 18.8849 81.7017 17.9807C81.8395 17.7485 81.8395 17.7485 81.9801 17.5115C82.8675 15.6407 82.9593 13.3098 82.312 11.3401C81.4182 9.25544 79.8068 7.64411 77.7222 6.75024C74.3204 5.64814 71.0535 6.73317 68.7866 9.42358ZM73.9624 16.1741C73.3786 16.9308 73.4133 17.5766 73.414 18.5034C73.4138 18.7051 73.4138 18.7051 73.4135 18.911C73.4132 19.3626 73.4143 19.8142 73.4153 20.2659C73.4154 20.5892 73.4154 20.9126 73.4153 21.2359C73.4152 22.1148 73.4163 22.9936 73.4177 23.8725C73.4189 24.7905 73.419 25.7086 73.4193 26.6267C73.4199 28.3657 73.4215 30.1046 73.4234 31.8436C73.4256 33.8231 73.4267 35.8027 73.4277 37.7822C73.4297 41.8547 73.4332 45.9272 73.4375 49.9998C72.4063 49.9998 71.375 49.9998 70.3125 49.9998C70.317 49.5007 70.3216 49.0017 70.3262 48.4876C70.3293 47.9982 70.3317 47.5089 70.334 47.0195C70.3359 46.6824 70.3386 46.3452 70.342 46.0081C70.4552 42.2693 70.4552 42.2693 68.75 39.0623C67.6938 38.2043 66.7862 37.6666 65.4053 37.6707C65.1447 37.6699 65.1447 37.6699 64.8789 37.6691C64.4574 37.6476 64.4574 37.6476 64.2578 37.8904C64.0524 39.1372 64.7255 40.0911 65.2954 41.1497C65.4919 41.5156 65.6865 41.8826 65.8791 42.2506C65.966 42.4119 66.0529 42.5732 66.1425 42.7394C66.8237 44.34 67.0782 45.8702 67.0784 47.6003C67.081 47.7911 67.0836 47.9819 67.0862 48.1786C67.0941 48.7816 67.0984 49.3845 67.1021 49.9875C67.1418 55.0975 67.6982 58.1243 71.1189 62.0548C71.4844 62.4998 71.4844 62.4998 71.6541 62.8881C71.9347 63.4278 72.1581 63.705 72.6563 64.0623C73.9115 64.326 75.1624 64.3207 76.4412 64.3247C76.8188 64.3297 77.1964 64.335 77.574 64.3405C78.3655 64.3498 79.1569 64.3527 79.9485 64.3518C80.9574 64.3516 81.9645 64.3729 82.973 64.3999C83.7535 64.4174 84.5335 64.4204 85.3141 64.4196C85.6855 64.4214 86.0569 64.4282 86.4281 64.4404C88.4432 64.532 88.4432 64.532 90.2426 63.7612C90.9812 63.0316 91.5643 62.2127 92.1209 61.3397C92.4624 60.8151 92.8401 60.3236 93.224 59.8297C94.8704 57.6772 95.3425 55.5177 95.3409 52.8599C95.3415 52.705 95.3422 52.5501 95.3429 52.3906C95.3447 51.8838 95.3451 51.377 95.3453 50.8703C95.3459 50.5158 95.3466 50.1613 95.3473 49.8068C95.3484 49.0662 95.3488 48.3257 95.3487 47.5851C95.3487 46.6368 95.3514 45.6884 95.3547 44.7401C95.3569 44.0091 95.3573 43.278 95.3572 42.547C95.3574 42.1973 95.3583 41.8476 95.3598 41.4978C95.3617 41.0094 95.3611 40.521 95.36 40.0326C95.3611 39.8888 95.3622 39.745 95.3633 39.5968C95.3585 38.8137 95.3098 38.1877 94.9219 37.4998C94.0347 36.7466 94.0347 36.7466 92.1875 36.5232C92.1875 40.9705 92.1875 45.4177 92.1875 49.9998C91.1563 49.9998 90.125 49.9998 89.0625 49.9998C89.0625 45.2947 89.0625 40.5896 89.0625 35.7419C87.392 35.1269 87.392 35.1269 85.9375 34.9607C85.9375 39.9236 85.9375 44.8865 85.9375 49.9998C84.9063 49.9998 83.875 49.9998 82.8125 49.9998C82.8125 44.7791 82.8125 39.5583 82.8125 34.1794C81.142 33.5644 81.142 33.5644 79.6875 33.3982C79.6875 38.8767 79.6875 44.3552 79.6875 49.9998C78.6563 49.9998 77.625 49.9998 76.5625 49.9998C76.5638 49.5908 76.5651 49.1819 76.5665 48.7606C76.5784 44.9123 76.5871 41.064 76.5929 37.2157C76.5959 35.2371 76.6 33.2585 76.6067 31.2799C76.6125 29.5556 76.6163 27.8312 76.6176 26.1068C76.6184 25.1936 76.6202 24.2804 76.6245 23.3672C76.6284 22.5078 76.6297 21.6484 76.6288 20.789C76.6289 20.4735 76.6301 20.158 76.6324 19.8425C76.6353 19.4118 76.6346 18.9812 76.633 18.5504C76.6335 18.3093 76.634 18.0682 76.6346 17.8199C76.5341 16.9379 76.2048 16.4389 75.5859 15.8201C74.8655 15.7261 74.5426 15.7193 73.9624 16.1741ZM23.4741 25.0486C22.0885 26.9659 21.845 28.9479 22.0703 31.2498C22.5113 33.3553 23.7782 34.9824 25.5028 36.2287C27.4512 37.4398 29.643 37.641 31.8657 37.1755C34.0502 36.4678 35.7036 34.9238 36.7813 32.9183C37.5726 31.073 37.6172 28.8717 36.9995 26.9651C36.1057 24.8804 34.4943 23.2691 32.4097 22.3752C29.0079 21.2731 25.741 22.3582 23.4741 25.0486ZM45.8252 43.6765C45.3947 44.5706 45.3521 45.3133 45.5078 46.2888C45.9628 47.2339 46.5159 47.7869 47.4609 48.2419C48.4364 48.3976 49.1792 48.355 50.0733 47.9246C50.7733 47.2912 51.2882 46.784 51.442 45.8204C51.492 44.7103 51.3548 44.0135 50.5859 43.1638C49.7362 42.395 49.0395 42.2578 47.9294 42.3078C46.9658 42.4616 46.4586 42.9765 45.8252 43.6765ZM29.2969 47.0701C28.5876 47.7881 28.1616 48.6605 27.713 49.5534C27.6404 49.6967 27.5678 49.8399 27.493 49.9875C27.3408 50.289 27.1892 50.5909 27.0381 50.8931C26.8071 51.3539 26.5724 51.8126 26.3374 52.2714C26.1895 52.5657 26.0417 52.86 25.8942 53.1545C25.7889 53.3587 25.7889 53.3587 25.6815 53.5671C25.2876 54.3659 25.114 54.9469 25.1953 55.8591C26.1513 56.4099 26.1513 56.4099 28.125 56.2498C28.125 69.1404 28.125 82.031 28.125 95.3123C29.1563 95.3123 30.1875 95.3123 31.25 95.3123C31.25 82.4216 31.25 69.531 31.25 56.2498C31.959 56.2498 32.668 56.2498 33.3984 56.2498C33.6563 56.1208 33.9141 55.9919 34.1797 55.8591C34.288 54.7387 33.9291 54.0231 33.4313 53.0553C33.3546 52.9023 33.278 52.7493 33.199 52.5916C33.0371 52.2695 32.874 51.948 32.7098 51.627C32.4589 51.1359 32.2118 50.643 31.9653 50.1497C31.8072 49.8364 31.6489 49.5232 31.4903 49.2101C31.4165 49.063 31.3426 48.9159 31.2665 48.7644C31.1961 48.6274 31.1258 48.4905 31.0533 48.3494C30.9922 48.2293 30.931 48.1092 30.868 47.9855C30.6358 47.6103 30.426 47.3436 30.0781 47.0701C29.8203 47.0701 29.5625 47.0701 29.2969 47.0701ZM5.51301 53.7412C4.74502 54.8956 4.74637 56.0781 4.88282 57.4216C5.2292 58.7194 6.14194 59.604 7.22657 60.3513C8.39823 60.9257 9.74275 60.9566 10.9985 60.6214C12.1956 60.093 13.1327 59.0996 13.7055 57.9313C14.0778 56.7582 14.0751 55.3703 13.5742 54.2356C12.8945 53.0769 11.829 52.1615 10.5469 51.7576C8.25705 51.479 6.97122 52.0142 5.51301 53.7412ZM48.0469 58.0076C47.3376 58.7256 46.9116 59.598 46.463 60.4909C46.3904 60.6342 46.3178 60.7774 46.243 60.925C46.0908 61.2266 45.9392 61.5284 45.7881 61.8306C45.5571 62.2914 45.3224 62.7501 45.0874 63.2089C44.9395 63.5032 44.7917 63.7975 44.6442 64.092C44.5389 64.2962 44.5389 64.2962 44.4315 64.5046C44.0376 65.3034 43.864 65.8844 43.9453 66.7966C44.9013 67.3474 44.9013 67.3474 46.875 67.1873C46.875 76.4685 46.875 85.7498 46.875 95.3123C47.9063 95.3123 48.9375 95.3123 50 95.3123C50 86.031 50 76.7498 50 67.1873C50.709 67.1873 51.418 67.1873 52.1484 67.1873C52.4063 67.0583 52.6641 66.9294 52.9297 66.7966C53.038 65.6762 52.6791 64.9606 52.1813 63.9928C52.1046 63.8398 52.028 63.6868 51.949 63.5291C51.7871 63.207 51.624 62.8855 51.4598 62.5645C51.2089 62.0734 50.9618 61.5805 50.7153 61.0872C50.5572 60.7739 50.3989 60.4607 50.2403 60.1476C50.1665 60.0005 50.0926 59.8534 50.0165 59.7019C49.9461 59.5649 49.8758 59.428 49.8033 59.2869C49.7422 59.1668 49.681 59.0467 49.618 58.923C49.3858 58.5478 49.176 58.2811 48.8281 58.0076C48.5703 58.0076 48.3125 58.0076 48.0469 58.0076ZM71.5919 68.7207C71.492 68.9237 71.392 69.1266 71.2891 69.3357C71.1654 69.502 71.1654 69.502 71.0392 69.6716C70.1753 70.848 70.1792 71.8902 70.2016 73.3167C70.2015 73.5551 70.2014 73.7934 70.2012 74.039C70.2018 74.6883 70.2066 75.3373 70.2135 75.9865C70.2196 76.6666 70.2202 77.3467 70.2213 78.0268C70.2244 79.3127 70.2324 80.5985 70.2422 81.8843C70.2542 83.4929 70.2595 85.1015 70.2648 86.7101C70.2743 89.5776 70.2939 92.4448 70.3125 95.3123C77.5313 95.3123 84.75 95.3123 92.1875 95.3123C92.258 90.8494 92.258 90.8494 92.3053 86.3864C92.3182 84.7888 92.3346 83.1916 92.3643 81.5942C92.3879 80.3285 92.4028 79.0631 92.408 77.7972C92.4111 77.1283 92.418 76.46 92.4353 75.7913C92.5143 72.3497 92.2301 69.9834 89.8438 67.3826C89.4497 66.9885 88.6503 67.1404 88.1092 67.131C87.8671 67.1258 87.8671 67.1258 87.6202 67.1204C86.1281 67.0902 84.6357 67.0732 83.1432 67.0599C82.1403 67.0509 81.1378 67.0377 80.1351 67.0145C79.1661 66.992 78.1974 66.9802 77.2281 66.9758C76.8592 66.9723 76.4903 66.9652 76.1215 66.9541C73.3901 66.8358 73.3901 66.8358 71.5919 68.7207ZM8.98439 70.5076C8.27508 71.2256 7.84912 72.098 7.40052 72.9909C7.32793 73.1342 7.25534 73.2774 7.18055 73.425C7.02829 73.7265 6.87665 74.0284 6.72561 74.3306C6.49458 74.7914 6.25987 75.2501 6.02494 75.7089C5.87696 76.0032 5.72919 76.2975 5.58168 76.592C5.47641 76.7962 5.47641 76.7962 5.36902 77.0046C4.97514 77.8034 4.80153 78.3844 4.88282 79.2966C5.83877 79.8474 5.83877 79.8474 7.81251 79.6873C7.81251 84.8435 7.81251 89.9998 7.81251 95.3123C8.84376 95.3123 9.87501 95.3123 10.9375 95.3123C10.9375 90.156 10.9375 84.9998 10.9375 79.6873C11.6465 79.6873 12.3555 79.6873 13.0859 79.6873C13.3438 79.5583 13.6016 79.4294 13.8672 79.2966C13.9755 78.1762 13.6166 77.4606 13.1188 76.4928C13.0421 76.3398 12.9655 76.1868 12.8865 76.0291C12.7246 75.707 12.5615 75.3855 12.3973 75.0645C12.1464 74.5734 11.8993 74.0805 11.6528 73.5872C11.4947 73.2739 11.3364 72.9607 11.1778 72.6476C11.104 72.5005 11.0301 72.3534 10.954 72.2019C10.8836 72.0649 10.8133 71.928 10.7408 71.7869C10.6797 71.6668 10.6185 71.5467 10.5555 71.423C10.3233 71.0478 10.1135 70.7811 9.76564 70.5076C9.50782 70.5076 9.25001 70.5076 8.98439 70.5076Z" fill="#EB0029"/>
<path d="M31.9214 25.2932C33.0591 25.9807 33.9809 27.049 34.375 28.3206C34.5323 29.8511 34.5947 31.3712 33.5938 32.6175C32.6554 33.6029 31.8044 34.2983 30.4161 34.4409C28.7528 34.4592 27.6024 34.3983 26.3741 33.2286C25.1276 31.8802 24.9062 30.8203 24.9405 28.9935C25.0763 27.4579 25.7906 26.6507 26.9341 25.6732C28.3138 24.7225 30.3894 24.6143 31.9214 25.2932ZM28.6377 28.638C28.2252 29.2409 28.2008 29.5566 28.3203 30.2737C28.6133 30.762 28.6133 30.762 29.1016 31.055C29.8187 31.1745 30.1344 31.1501 30.7373 30.7376C31.1498 30.1347 31.1742 29.819 31.0547 29.1018C30.7617 28.6136 30.7617 28.6136 30.2735 28.3206C29.5563 28.2011 29.2406 28.2255 28.6377 28.638Z" fill="#EB0029"/>
</svg>
