<svg width="95" height="95" viewBox="0 0 95 95" fill="none" xmlns="http://www.w3.org/2000/svg">
<path d="M46.7142 2.39925C47.3858 2.39843 48.0571 2.39152 48.7287 2.38432C51.5661 2.37026 54.2266 2.6373 57 3.22967C57.2281 3.27544 57.4561 3.32121 57.6911 3.36836C61.7782 4.22094 65.6927 5.78647 69.35 7.78967C69.5666 7.90755 69.5666 7.90755 69.7876 8.02782C71.8044 9.13467 73.6489 10.3233 75.43 11.7797C75.5838 11.8972 75.7376 12.0148 75.8961 12.1359C79.877 15.1941 83.3189 19.0527 85.88 23.3697C86.0368 23.624 86.1937 23.8783 86.3505 24.1326C90.035 30.2027 92.5792 37.4374 92.5938 44.5947C92.5951 44.8171 92.5964 45.0394 92.5977 45.2684C92.5996 45.7362 92.6005 46.204 92.6004 46.6719C92.6012 47.3727 92.6081 48.0732 92.6153 48.774C92.629 51.6568 92.3895 54.3738 91.77 57.1897C91.7322 57.3619 91.6944 57.5341 91.6554 57.7116C90.0291 65.013 86.5213 71.9568 81.51 77.5197C81.3515 77.6958 81.3515 77.6958 81.1897 77.8755C79.8458 79.3594 78.4773 80.7816 76.95 82.0797C76.7773 82.231 76.6047 82.3824 76.4268 82.5383C72.975 85.5075 68.98 87.6536 64.79 89.3947C64.4538 89.535 64.4538 89.535 64.1108 89.6781C61.9232 90.5653 59.6799 91.1797 57.38 91.6984C57.1324 91.7565 57.1324 91.7565 56.8798 91.8157C56.3513 91.9359 55.8218 92.0451 55.29 92.1497C55.1092 92.1861 54.9283 92.2226 54.742 92.2602C52.6165 92.6274 50.4761 92.5937 48.3253 92.5896C47.6591 92.589 46.9931 92.5935 46.327 92.5983C43.8128 92.6056 41.4135 92.4714 38.95 91.9597C38.7265 91.914 38.5029 91.8683 38.2726 91.8213C37.6882 91.6945 37.1079 91.5575 36.5275 91.4134C36.2231 91.3384 36.2231 91.3384 35.9126 91.2618C27.3485 89.1123 18.9337 84.2359 13.3 77.3297C13.1057 77.1001 13.1057 77.1001 12.9074 76.8658C6.81708 69.5892 2.42588 60.0206 2.40617 50.4046C2.40491 50.1823 2.40364 49.96 2.40234 49.7309C2.40043 49.2631 2.39952 48.7953 2.39958 48.3275C2.39876 47.6267 2.39186 46.9261 2.38465 46.2253C2.37082 43.341 2.60787 40.6266 3.23 37.8097C3.28266 37.5671 3.33532 37.3245 3.38957 37.0745C3.52601 36.4881 3.67529 35.9081 3.83562 35.3278C3.89136 35.1241 3.94709 34.9203 4.00452 34.7104C5.49912 29.4445 8.11659 24.0115 11.59 19.7597C11.6693 19.6624 11.7485 19.5651 11.8302 19.4649C15.2429 15.2986 19.0629 11.641 23.75 8.92967C24.0039 8.77164 24.2575 8.61302 24.5107 8.45393C26.327 7.33303 28.2057 6.43207 30.1744 5.61654C30.5138 5.47519 30.5138 5.47519 30.8602 5.33099C33.0582 4.44145 35.3098 3.82192 37.62 3.30092C37.7851 3.26222 37.9502 3.22352 38.1202 3.18365C38.6487 3.06347 39.1782 2.9542 39.71 2.84967C39.8903 2.81333 40.0706 2.77699 40.2563 2.73955C42.3945 2.37048 44.5504 2.39896 46.7142 2.39925ZM51.49 5.50967C50.232 6.79905 49.09 8.17861 48.0247 9.63029C47.7614 9.98853 47.4942 10.3438 47.2269 10.699C47.1451 10.8129 47.0633 10.9267 46.979 11.044C45.8543 12.5263 44.1269 12.9496 42.4294 13.549C42.222 13.6231 42.0147 13.6971 41.8011 13.7733C40.2926 14.3088 38.7777 14.8241 37.2547 15.3168C36.8049 15.4635 36.3572 15.6152 35.91 15.7697C35.74 15.8268 35.57 15.884 35.3948 15.9429C35.2256 16.004 35.0564 16.0652 34.8821 16.1281C34.7287 16.1822 34.5754 16.2362 34.4174 16.2919C33.2946 16.9471 32.8776 18.6758 32.3811 19.8324C32.2715 20.0851 32.1596 20.3367 32.0455 20.5874C31.3565 21.9522 31.3565 21.9522 31.2333 23.4175C31.4385 23.8155 31.4385 23.8155 31.92 24.3197C32.0613 24.5227 32.2026 24.7257 32.3482 24.9349C32.493 25.1277 32.6377 25.3204 32.7869 25.519C32.9321 25.7142 33.0774 25.9094 33.227 26.1106C33.6147 26.6292 33.6147 26.6292 34.2 26.9797C34.3661 26.7732 34.3661 26.7732 34.5355 26.5626C36.1142 24.7009 37.9888 23.5009 40.4923 23.2843C41.5607 23.2212 42.63 23.1965 43.7 23.1797C43.9403 23.1753 44.1805 23.171 44.4281 23.1665C47.7866 23.1192 50.7294 23.3379 53.8619 24.6886C54.7051 25.0432 55.5688 25.342 56.43 25.6497C56.8116 25.7894 57.1918 25.9307 57.57 26.0794C57.952 26.2271 57.952 26.2271 58.3656 26.3303C60.1694 26.885 61.3985 28.3406 62.7 29.6397C62.8504 29.7837 63.0008 29.9277 63.1557 30.0761C63.5574 30.5032 63.5971 30.7673 63.65 31.3497C63.6371 31.5806 63.6242 31.8115 63.6109 32.0494C63.6098 32.9478 63.9049 33.5756 64.3232 34.3563C64.4273 34.5584 64.4273 34.5584 64.5336 34.7646C64.6802 35.0475 64.8283 35.3296 64.9778 35.611C65.2051 36.0393 65.427 36.4701 65.6483 36.9016C65.7921 37.1775 65.9362 37.4532 66.0807 37.7288C66.1464 37.8562 66.2122 37.9837 66.2799 38.1151C66.7052 38.9087 67.1634 39.483 67.83 40.0897C69.612 39.4029 71.084 38.6379 72.58 37.4297C72.7061 37.328 72.8323 37.2264 72.9622 37.1217C73.2179 36.9113 73.4696 36.6962 73.72 36.4797C73.622 36.2563 73.5241 36.0329 73.4231 35.8028C73.1253 35.0129 73.1483 34.4605 73.34 33.6297C73.3557 33.4847 73.3713 33.3397 73.3875 33.1903C73.53 32.8697 73.53 32.8697 73.9465 32.6636C74.8855 32.3574 75.8396 32.4196 76.8194 32.4184C77.0289 32.4138 77.2384 32.4091 77.4543 32.4043C79.0478 32.3986 80.157 32.637 81.3155 33.7625C83.1851 35.872 84.2947 37.8534 85.31 40.4697C85.4981 40.4697 85.6862 40.4697 85.88 40.4697C85.9194 40.3501 85.9589 40.2306 85.9995 40.1075C86.3977 39.0011 86.849 38.2356 87.6872 37.4081C88.0446 36.9551 88.1212 36.6753 88.16 36.0997C87.397 32.6359 85.6713 29.0124 83.79 26.0297C83.6541 25.8083 83.5183 25.5869 83.3825 25.3654C82.0614 23.2369 80.5659 21.2743 78.8663 19.4316C78.4981 19.0303 78.1451 18.6197 77.7931 18.204C77.243 17.5729 76.6521 17.0247 76.0134 16.4844C75.6191 16.1489 75.2406 15.8 74.86 15.449C68.8739 10.1654 59.691 5.50967 51.49 5.50967ZM17.6769 17.8165C16.3908 19.1046 15.1551 20.3915 14.06 21.8497C13.9757 21.9606 13.8914 22.0715 13.8045 22.1858C11.3415 25.4507 9.4166 29.0431 7.98 32.8697C7.92051 33.028 7.86103 33.1864 7.79974 33.3496C7.11551 35.2061 6.54114 37.0908 6.10375 39.0209C6.06144 39.1846 6.01913 39.3483 5.97554 39.517C5.87778 39.9962 5.82319 40.3646 5.89 40.8497C6.25803 41.3957 6.70579 41.7747 7.22 42.1797C7.42988 42.3735 7.63968 42.5675 7.84937 42.7615C8.30026 43.0786 8.49758 43.1324 9.05617 43.1029C9.53179 43.0092 9.98795 42.8956 10.45 42.7497C10.5127 42.5616 10.5754 42.3735 10.64 42.1797C10.3641 41.7059 10.3641 41.7059 9.98687 41.2059C9.4498 40.3851 9.07831 39.7661 9.17047 38.7701C9.63704 37.4646 11.2865 36.729 12.4049 36.0566C13.8701 35.0981 14.4962 34.1238 15.3187 32.5847C15.554 32.1566 15.7892 31.7287 16.0246 31.3007C16.3615 30.6815 16.6973 30.0618 17.0311 29.4409C18.0685 27.5159 19.0225 25.8654 20.6417 24.3842C21.5457 23.4877 22.0726 22.4375 22.1469 21.1609C22.059 19.7771 21.2907 18.6303 20.33 17.6697C19.0151 16.8678 18.7575 16.7489 17.6769 17.8165ZM45.6356 5.31373C45.4495 5.32774 45.2635 5.34174 45.0717 5.35617C44.8699 5.37548 44.668 5.39478 44.46 5.41467C44.2498 5.4336 44.0396 5.45254 43.823 5.47205C37.281 6.11678 31.0044 8.0009 25.46 11.5897C25.2717 11.7048 25.0833 11.8199 24.8893 11.9385C23.674 12.6856 22.5645 13.5256 21.47 14.4397C21.8556 14.9311 22.2271 15.3869 22.6812 15.8172C24.2873 17.4997 25.0735 19.3355 25.08 21.6597C24.931 23.736 23.9649 25.5822 22.4415 26.9736C21.1255 28.2391 20.257 29.7954 19.3919 31.3853C19.1589 31.8066 18.9258 32.2279 18.6927 32.6492C18.3935 33.1936 18.0947 33.7382 17.796 34.2829C17.5931 34.6518 17.3883 35.0196 17.1831 35.3872C17.0771 35.5802 16.971 35.7732 16.8618 35.972C16.1161 37.1131 15.0499 37.854 13.9583 38.6339C13.5231 38.9565 13.164 39.2302 12.9029 39.7112C12.9284 40.2768 13.1852 40.5583 13.5256 41.004C13.6481 41.1708 13.7705 41.3376 13.8967 41.5095C14.0133 41.6679 14.1299 41.8264 14.25 41.9897C14.8049 42.8045 15.1482 43.4461 15.01 44.4597C14.63 45.0297 14.63 45.0297 14.1045 45.1967C8.60295 46.276 8.60295 46.276 6.84 45.9797C6.39023 45.5952 6.39023 45.5952 6.08 45.2197C5.8919 45.2824 5.7038 45.3451 5.51 45.4097C5.32426 46.4457 5.32504 47.3904 5.40312 48.4378C5.41304 48.5858 5.42296 48.7339 5.43318 48.8864C5.45756 49.2476 5.4836 49.6087 5.51 49.9697C6.26048 50.174 6.69948 50.1381 7.42707 49.8739C7.60745 49.8116 7.78784 49.7493 7.97369 49.685C8.34956 49.5504 8.72511 49.4148 9.10033 49.2783C10.4753 48.8057 10.4753 48.8057 11.2575 48.9195C11.9201 49.2875 12.5199 49.7002 13.1219 50.1597C13.246 50.2526 13.3702 50.3455 13.4981 50.4413C13.8768 50.7256 14.2536 51.0122 14.63 51.2997C14.7946 51.425 14.7946 51.425 14.9626 51.5528C15.1704 51.7112 15.3779 51.87 15.5852 52.0291C15.7891 52.1852 15.9937 52.3404 16.199 52.4948C16.7001 52.8748 17.1643 53.2621 17.6158 53.7006C19.2106 55.1642 20.873 55.4873 22.99 55.8309C24.62 56.1084 25.6948 56.5126 26.7596 57.8035C26.8628 57.9875 26.8628 57.9875 26.9681 58.1753C27.0404 58.2995 27.1126 58.4236 27.1871 58.5516C27.518 59.2177 27.5677 59.7246 27.5485 60.456C27.5437 60.749 27.5437 60.749 27.5389 61.0479C27.5306 61.4552 27.5207 61.8624 27.5092 62.2696C27.4932 63.4412 27.6114 64.3916 27.9872 65.5006C28.4156 66.885 28.3288 68.5221 27.7281 69.8365C26.9411 71.1659 25.9549 71.854 24.513 72.3607C23.905 72.7083 23.6491 73.2211 23.4563 73.8888C23.3609 74.3162 23.2782 74.7442 23.2 75.1751C23.1704 75.3322 23.1408 75.4893 23.1103 75.6512C23.0485 75.982 22.9877 76.3131 22.9279 76.6443C22.8357 77.1511 22.7388 77.6569 22.6415 78.1628C22.582 78.485 22.5227 78.8072 22.4638 79.1295C22.4345 79.2805 22.4053 79.4315 22.3751 79.5871C22.2719 80.1755 22.1922 80.6343 22.3808 81.2093C23.2809 82.3888 24.8549 83.1457 26.1131 83.9084C26.2217 83.9745 26.3302 84.0405 26.4421 84.1086C35.596 89.5447 46.3444 90.8306 56.6794 88.7415C56.8166 88.7139 56.9537 88.6863 57.0951 88.6579C58.2431 88.4069 59.3245 88.0106 60.42 87.5897C60.6123 87.5159 60.8046 87.4422 61.0027 87.3662C65.0295 85.8012 68.8781 84.0486 72.39 81.5097C72.571 81.3811 72.752 81.2525 72.9385 81.12C73.42 80.7596 73.42 80.7596 73.3994 80.0372C73.3798 79.8334 73.3602 79.6296 73.34 79.4197C73.5555 79.4863 73.7711 79.5529 73.9931 79.6215C74.595 79.699 74.7956 79.658 75.2882 79.2883C75.5811 78.9873 75.8676 78.6801 76.1484 78.368C76.5228 77.9521 76.9 77.6023 77.33 77.2465C80.5751 74.4269 82.919 70.6298 84.93 66.8797C85.0402 66.6825 85.1504 66.4853 85.264 66.2822C87.4622 62.1801 88.6303 57.5819 89.3 53.0097C89.3308 52.7996 89.3308 52.7996 89.3623 52.5853C89.554 51.0198 89.5254 49.4378 89.5252 47.8631C89.5256 47.3557 89.5291 46.8484 89.5327 46.3411C89.5332 46.0158 89.5336 45.6905 89.5338 45.3651C89.5358 45.1398 89.5358 45.1398 89.5379 44.9099C89.5344 44.0518 89.435 43.3681 89.11 42.5597C88.448 42.9616 88.1919 43.4145 87.8282 44.0834C87.2076 45.0637 86.478 45.8573 85.3575 46.1934C84.7215 46.169 84.4857 46.1576 83.98 45.7897C83.7624 45.3332 83.5929 44.9108 83.4337 44.4344C83.386 44.2994 83.3383 44.1644 83.2891 44.0253C83.1368 43.593 82.9882 43.1596 82.84 42.7259C82.6912 42.2966 82.5416 41.8675 82.3909 41.4388C82.2974 41.1723 82.2051 40.9054 82.1142 40.6381C81.5632 39.0518 80.8674 37.8002 79.7169 36.5747C79.6105 36.4547 79.504 36.3346 79.3944 36.211C78.7769 35.5217 78.7769 35.5217 77.9171 35.2625C77.7205 35.3007 77.7205 35.3007 77.52 35.3397C77.1854 35.8624 77.1406 36.1168 77.1637 36.7528C77.1343 37.5914 76.939 37.7698 76.38 38.3797C74.2271 40.2358 71.8913 41.6556 69.2787 42.7615C69.1002 42.8388 68.9217 42.9161 68.7377 42.9958C66.9356 43.7295 66.9356 43.7295 65.93 43.3197C64.9715 42.2734 64.3931 40.8809 63.7806 39.6147C63.0184 38.0522 63.0184 38.0522 62.1983 36.5197C60.9348 34.2601 60.9348 34.2601 60.8712 33.024C60.712 31.5808 59.6376 30.7312 58.5771 29.8445C57.6033 29.1018 56.5969 28.7054 55.4332 28.3497C54.897 28.1768 54.483 28.0089 53.9941 27.7501C51.0006 26.2113 47.6422 26.1126 44.3531 26.1247C44.0958 26.1252 44.0958 26.1252 43.8333 26.1257C43.3372 26.1281 42.8415 26.1343 42.3455 26.1425C42.198 26.1441 42.0505 26.1458 41.8986 26.1475C40.2426 26.1899 38.841 26.4996 37.6408 27.7271C36.9263 28.5061 36.9263 28.5061 36.48 29.4497C36.8299 29.8828 36.8299 29.8828 37.3613 29.8638C37.6745 29.8553 37.6745 29.8553 37.9941 29.8467C38.2243 29.8429 38.4545 29.8391 38.6917 29.8352C39.1747 29.8237 39.6576 29.8114 40.1405 29.7981C41.7949 29.7728 43.2699 29.8376 44.6619 30.8034C45.0521 31.3824 45.063 31.5304 45.0775 32.1928C45.1084 32.7902 45.1497 32.9905 45.5829 33.4167C46.242 33.8614 46.8874 34.2879 47.69 34.3897C48.0101 34.1407 48.3261 33.8865 48.64 33.6297C50.6062 32.5768 52.7119 33.4716 54.7133 34.0728C56.729 34.715 57.9675 35.651 58.9639 37.5279C59.2098 38.0455 59.4432 38.5668 59.6719 39.0922C59.7543 39.2773 59.8368 39.4624 59.9218 39.6531C60.3401 40.5964 60.7443 41.5442 61.1325 42.5003C62.1568 45.0272 62.1568 45.0272 64.03 46.9297C64.7767 47.1958 65.533 47.3486 66.31 47.4997C68.0157 47.8753 68.0157 47.8753 68.7087 48.5684C69.1182 49.5735 69.189 50.3611 68.7867 51.3872C67.9805 52.9436 66.8752 54.064 65.6212 55.254C65.3242 55.5391 65.0278 55.8249 64.7326 56.1119C64.4663 56.3702 64.1979 56.6263 63.9293 56.8823C63.1587 57.699 62.5882 58.4516 62.4877 59.5981C62.5249 60.3359 62.7503 61.0233 62.9434 61.7333C63.2667 63.1212 63.2394 64.3997 62.5968 65.6847C62.1512 66.3849 61.5996 66.9918 61.0605 67.6211C60.4768 68.3837 60.0563 69.1907 59.6251 70.0456C59.2944 70.6955 58.9577 71.2654 58.4844 71.8197C57.948 72.4765 57.7439 73.1794 57.5106 73.9809C56.8044 76.3342 55.0466 77.7571 52.9432 78.9031C51.6731 79.5141 50.6094 79.7957 49.2456 79.3484C48.9796 79.2477 48.7143 79.145 48.45 79.0397C48.2619 78.977 48.0738 78.9143 47.88 78.8497C47.6893 78.5231 47.6893 78.5231 47.5 78.0897C47.416 77.9349 47.332 77.7801 47.2454 77.6206C46.0763 75.4024 45.2143 73.0568 44.3165 70.7194C44.0422 70.0121 43.7579 69.3092 43.4693 68.6077C42.834 66.9143 42.9873 65.0982 43.5219 63.4003C43.8552 62.3409 44.0464 61.4948 43.7 60.4197C43.396 59.868 43.0479 59.4113 42.6498 58.9256C41.6907 57.718 41.4535 56.7623 41.3487 55.2422C41.2926 54.6535 41.2429 54.3623 40.945 53.8409C39.9835 53.3121 38.9849 53.5214 37.9577 53.7697C35.2018 54.4003 32.3812 54.0373 29.925 52.6415C29.2353 52.1969 28.6631 51.7303 28.12 51.1097C27.9672 50.949 27.8143 50.7883 27.6569 50.6228C25.8395 48.3798 25.4557 45.74 25.65 42.9397C26.0151 40.3008 27.1698 38.2854 28.88 36.2897C29.8103 35.1659 30.729 34.0342 31.6231 32.8815C31.7039 32.7782 31.7847 32.6749 31.868 32.5685C32.2624 32.0566 32.6088 31.5621 32.87 30.9697C31.6404 29.1611 30.3884 27.3719 29.0992 25.6052C28.9989 25.4676 28.8987 25.3299 28.7954 25.188C28.6616 25.0051 28.6616 25.0051 28.5251 24.8185C28.0287 24.1059 28.0036 23.4523 28.12 22.6097C28.3869 21.7632 28.7316 20.9546 29.0819 20.1397C29.2256 19.7994 29.2256 19.7994 29.3723 19.4524C29.5634 19.0009 29.7555 18.5499 29.9486 18.0993C30.1729 17.5676 30.3858 17.0339 30.5915 16.4948C30.6466 16.3553 30.7017 16.2158 30.7584 16.0721C30.8993 15.7152 31.0369 15.3569 31.1741 14.9985C31.915 13.8669 33.4206 13.5224 34.6609 13.1119C34.8094 13.0618 34.9578 13.0117 35.1108 12.96C35.4253 12.8539 35.7399 12.7482 36.0546 12.643C36.5444 12.4786 37.0334 12.3119 37.5222 12.1445C40.165 11.2402 40.165 11.2402 41.4905 10.8326C43.5465 10.1819 44.591 9.3913 45.79 7.59967C46.049 7.26538 46.31 6.93267 46.5737 6.60217C46.7563 6.36499 46.9385 6.12763 47.12 5.88967C46.651 5.30378 46.3722 5.25575 45.6356 5.31373ZM40.4581 32.6522C40.2325 32.6647 40.2325 32.6647 40.0023 32.6775C39.8431 32.69 39.684 32.7025 39.52 32.7153C39.3573 32.7268 39.1946 32.7383 39.027 32.7501C38.5575 32.7857 38.0888 32.8268 37.62 32.8697C37.4057 32.8871 37.1914 32.9044 36.9706 32.9224C35.6432 33.089 34.8737 33.5654 34.01 34.5797C33.6151 35.1084 33.2312 35.6414 32.8572 36.1849C32.284 37.0149 31.6672 37.7849 31.0056 38.5459C29.2599 40.5714 28.3761 42.2301 28.4466 44.9599C28.5794 46.5502 29.1753 47.6367 30.21 48.8297C30.3632 49.0097 30.3632 49.0097 30.5195 49.1933C31.6382 50.4133 32.9928 51.0029 34.6364 51.1483C35.769 51.1699 36.8104 51.0289 37.9169 50.8128C39.511 50.5101 40.8391 50.3182 42.275 51.2165C42.3945 51.303 42.514 51.3895 42.6372 51.4785C42.9322 51.7147 42.9322 51.7147 43.32 51.6797C43.8641 52.729 44.1166 53.5797 44.2106 54.7672C44.3357 55.9582 44.6532 56.6831 45.4575 57.5712C46.5989 58.8706 46.8016 60.322 46.7979 61.9946C46.7163 62.9889 46.4387 63.886 46.1277 64.8275C45.7445 66.701 46.4115 68.2346 47.1437 69.9434C47.2382 70.1687 47.3326 70.3939 47.4299 70.626C47.7043 71.2782 47.982 71.9289 48.26 72.5797C48.3961 72.9051 48.5319 73.2307 48.6675 73.5564C49.1341 74.6614 49.5556 75.6534 50.35 76.5697C51.8889 76.3749 53.351 75.1058 54.3036 73.9171C54.6882 73.2589 54.8724 72.5379 55.0918 71.8115C55.3326 71.1288 55.6746 70.6278 56.0968 70.0458C56.5361 69.3785 56.8786 68.6731 57.2375 67.9603C57.9043 66.6484 58.6677 65.586 59.6659 64.5076C60.069 63.9926 60.1968 63.7276 60.23 63.0797C60.1298 62.5649 60.1298 62.5649 59.9569 62.0347C59.4556 60.1323 59.423 58.4168 60.2701 56.6115C60.9266 55.5264 61.8029 54.6541 62.7 53.7697C63.0625 53.4102 63.4249 53.0507 63.787 52.6908C64.0245 52.4557 64.2633 52.222 64.5035 51.9896C64.6666 51.8299 64.6666 51.8299 64.833 51.667C64.9302 51.5731 65.0273 51.4792 65.1274 51.3824C65.4061 51.0901 65.4061 51.0901 65.55 50.5397C65.081 50.0707 64.8673 50.0944 64.22 50.0172C62.6179 49.7404 61.4355 49.0814 60.4675 47.7609C59.1496 45.6491 58.2219 43.3514 57.285 41.053C56.2689 38.5841 56.2689 38.5841 54.2168 37.014C52.4936 36.3413 52.4936 36.3413 50.73 36.4797C50.3468 36.7925 49.9667 37.1091 49.59 37.4297C48.3232 37.8519 47.2344 37.6855 46.0535 37.1001C45.9038 37.0208 45.7542 36.9414 45.6 36.8597C45.4288 36.7725 45.2576 36.6853 45.0812 36.5954C42.6903 35.3423 42.6903 35.3423 41.99 34.5797C41.8356 33.879 41.8356 33.879 41.8 33.2497C41.396 32.7042 41.1244 32.6101 40.4581 32.6522ZM8.265 52.594C8.10017 52.6436 7.93533 52.6932 7.76551 52.7443C7.52781 52.8187 7.52781 52.8187 7.28531 52.8946C7.14069 52.9394 6.99606 52.9842 6.84705 53.0303C6.41622 53.2188 6.17903 53.3997 5.89 53.7697C5.89127 54.6678 6.09783 55.5498 6.27 56.4297C6.2933 56.5538 6.3166 56.678 6.3406 56.8059C6.80012 59.1915 7.63838 61.4041 8.55 63.6497C8.60149 63.7794 8.65299 63.909 8.70604 64.0427C9.39441 65.7748 10.2412 67.3824 11.21 68.9697C11.2774 69.0804 11.3448 69.1911 11.4142 69.3052C13.4582 72.6365 15.9468 76.0003 19 78.4697C19.1881 78.407 19.3762 78.3443 19.57 78.2797C19.752 77.8402 19.752 77.8402 19.8617 77.294C19.9087 77.0873 19.9558 76.8806 20.0043 76.6676C20.2752 75.3341 20.499 73.9923 20.7133 72.6487C20.7512 72.43 20.789 72.2113 20.828 71.9859C20.8602 71.7895 20.8924 71.5931 20.9256 71.3907C21.1193 70.7769 21.354 70.5124 21.85 70.1097C22.3829 69.916 22.3829 69.916 22.9662 69.7653C23.9094 69.4701 24.4666 69.1664 25.1008 68.4138C25.539 67.3932 25.2162 66.3786 24.89 65.3715C24.4716 63.979 24.4081 62.9827 24.7 61.5597C24.8084 60.7235 24.7619 60.1975 24.2725 59.5172C23.361 58.5676 22.1434 58.4759 20.897 58.2648C20.6281 58.2192 20.3593 58.1728 20.0905 58.1258C19.8294 58.0808 19.5677 58.0387 19.3055 58C18.4026 57.8498 17.8258 57.5479 17.1 56.9997C16.9202 56.8645 16.7405 56.7293 16.5552 56.59C16.3666 56.443 16.1781 56.2961 15.9837 56.1447C14.8748 55.2842 13.7546 54.4397 12.6292 53.6008C12.5076 53.5101 12.3861 53.4193 12.2609 53.3258C12.1456 53.2399 12.0302 53.154 11.9114 53.0655C11.6211 52.8435 11.3406 52.6088 11.0616 52.3729C10.2038 51.7356 9.19457 52.3019 8.265 52.594Z" fill="#EB0029"/>
<path d="M72.96 58.9C73.428 59.1229 73.6613 59.3351 73.8691 59.813C74.0103 60.2457 74.1292 60.6798 74.2425 61.1207C74.3053 61.3424 74.3053 61.3424 74.3694 61.5686C74.8085 63.2036 74.7145 64.4997 74.2046 66.0926C74.1563 66.249 74.1079 66.4055 74.0581 66.5667C73.9558 66.8964 73.8524 67.2258 73.7481 67.5549C73.5911 68.0503 73.4372 68.5466 73.284 69.0432C71.223 75.6717 71.223 75.6717 69.1741 76.7957C68.3889 77.1032 67.7104 77.1173 66.9023 76.8172C65.8451 76.2749 65.2103 75.463 64.6356 74.4325C64.1173 72.7957 64.4725 71.535 65.0215 69.9546C65.3146 69.0647 65.4057 68.3142 65.3719 67.3669C65.3327 66.2206 65.4035 65.3398 66.12 64.41C66.757 63.8644 67.4533 63.4383 68.2189 63.0964C69.421 62.505 69.8879 61.497 70.4792 60.3463C70.5467 60.2151 70.6142 60.0839 70.6837 59.9488C70.7427 59.8294 70.8017 59.7101 70.8624 59.5872C71.3917 58.7643 72.0764 58.8225 72.96 58.9ZM70.3 65.55C70.0542 65.6998 69.8089 65.8504 69.5637 66.0013C69.4271 66.0851 69.2904 66.1688 69.1496 66.2551C68.7576 66.4973 68.7576 66.4973 68.4 66.88C68.3972 67.2998 68.4122 67.7197 68.4356 68.1388C68.4827 69.4612 68.2179 70.5495 67.7544 71.7834C67.6364 72.1067 67.5413 72.4382 67.45 72.77C67.5754 72.9581 67.7008 73.1462 67.83 73.34C68.3061 73.1566 68.5475 73.0266 68.8253 72.5912C69.7081 70.4371 70.2691 68.1754 70.87 65.93C70.6819 65.8046 70.4938 65.6792 70.3 65.55Z" fill="#EB0029"/>
</svg>
